<?xml version="1.0" encoding="UTF-8"?>
<svg id="Layer_1" data-name="Layer 1" xmlns="http://www.w3.org/2000/svg" viewBox="0 0 712.04 76.3">
  <defs>
    <style>
      .cls-1 {
        fill: #231f20;
      }
    </style>
  </defs>
  <g>
    <path class="cls-1" d="M34.53,76.05c-6.22,0-11.49-.79-15.79-2.36s-7.85-3.75-10.62-6.52c-2.77-2.77-4.78-5.98-6.01-9.62-1.24-3.63-1.85-7.55-1.85-11.75,0-5.33.94-10.7,2.81-16.14,1.87-5.43,4.67-10.33,8.38-14.67,3.71-4.35,8.37-7.89,13.99-10.63C31.05,1.62,37.64.25,45.21.25c3.89,0,7.68.35,11.35,1.04,3.67.69,7.27,1.62,10.79,2.77-.22,2.19-.34,4.38-.34,6.55,0,1.57.06,3.08.17,4.5.11,1.43.24,2.78.39,4.05-.68.68-1.69,1.01-3.04,1.01-1.65,0-2.59-.74-2.81-2.25-.98-4.72-3.02-8.06-6.12-10.01-3.11-1.95-6.84-2.93-11.18-2.93-4.65,0-8.79,1.09-12.42,3.26-3.63,2.18-6.71,5.07-9.22,8.7-2.51,3.63-4.44,7.86-5.79,12.69-1.35,4.83-2.02,9.94-2.02,15.33,0,3.97.49,7.57,1.46,10.78.98,3.22,2.36,5.97,4.16,8.25s3.99,4.04,6.57,5.28c2.59,1.23,5.45,1.85,8.6,1.85,4.5,0,8.32-1.05,11.46-3.15,3.15-2.1,5.81-5.51,7.98-10.23.37-.67.79-1.18,1.24-1.52.45-.34,1.16-.5,2.13-.5.75,0,1.46.16,2.13.5s1.12.62,1.35.84c-.97,1.95-1.95,4.35-2.92,7.2-.98,2.85-1.8,5.96-2.47,9.33-1.8.38-3.73.72-5.79,1.01-2.06.3-4.1.56-6.13.79-2.02.23-3.91.39-5.68.5-1.76.11-3.28.17-4.55.17Z"/>
    <path class="cls-1" d="M34.53,76.3c-6.22,0-11.57-.8-15.88-2.38-4.32-1.58-7.93-3.79-10.71-6.58-2.79-2.79-4.83-6.05-6.07-9.71-1.24-3.64-1.87-7.62-1.87-11.83,0-5.32.95-10.78,2.82-16.22,1.87-5.44,4.71-10.4,8.42-14.75,3.72-4.36,8.45-7.96,14.07-10.69C30.95,1.39,37.64,0,45.21,0c3.88,0,7.72.35,11.4,1.04,3.67.69,7.31,1.63,10.82,2.77l.19.06-.02.2c-.22,2.19-.34,4.38-.34,6.52,0,1.56.06,3.07.17,4.48.11,1.43.24,2.78.39,4.04v.12s-.07.09-.07.09c-.72.72-1.8,1.09-3.21,1.09-1.78,0-2.81-.83-3.06-2.46-.95-4.62-2.98-7.93-6.01-9.83-3.06-1.92-6.78-2.89-11.05-2.89-4.58,0-8.72,1.08-12.3,3.22-3.59,2.15-6.67,5.06-9.14,8.63-2.48,3.59-4.42,7.83-5.75,12.61-1.34,4.78-2.02,9.91-2.02,15.26,0,3.94.49,7.54,1.45,10.71.96,3.18,2.35,5.92,4.12,8.17,1.77,2.24,3.95,3.99,6.49,5.21,2.54,1.21,5.4,1.83,8.49,1.83,4.43,0,8.24-1.05,11.33-3.11,3.09-2.06,5.75-5.47,7.9-10.13.39-.71.83-1.25,1.31-1.61.49-.37,1.24-.55,2.28-.55.8,0,1.55.18,2.25.53.73.37,1.18.65,1.41.89l.12.13-.08.16c-.97,1.94-1.95,4.36-2.91,7.17-.97,2.83-1.8,5.96-2.46,9.3l-.03.16-.16.03c-1.83.38-3.79.73-5.8,1.02-2.09.3-4.15.57-6.14.79-1.9.21-3.82.38-5.69.51-1.75.11-3.29.17-4.57.17ZM45.21.5c-7.49,0-14.11,1.37-19.68,4.08-5.56,2.71-10.24,6.26-13.91,10.57-3.67,4.31-6.48,9.22-8.33,14.59-1.85,5.39-2.8,10.79-2.8,16.06,0,4.16.62,8.09,1.84,11.67,1.22,3.59,3.22,6.79,5.95,9.52,2.73,2.74,6.28,4.91,10.53,6.47,4.26,1.56,9.55,2.35,15.71,2.35,1.27,0,2.79-.06,4.53-.17,1.86-.12,3.77-.29,5.67-.5,1.98-.22,4.04-.49,6.12-.79,1.95-.28,3.84-.61,5.61-.98.67-3.31,1.49-6.4,2.45-9.2.94-2.75,1.9-5.13,2.85-7.06-.23-.18-.61-.41-1.15-.68-.63-.32-1.31-.48-2.02-.48-.92,0-1.59.15-1.98.45-.43.32-.82.81-1.17,1.44-2.18,4.73-4.89,8.21-8.06,10.32-3.17,2.12-7.08,3.19-11.6,3.19-3.17,0-6.1-.63-8.71-1.87-2.61-1.25-4.85-3.04-6.66-5.35-1.81-2.3-3.22-5.1-4.2-8.34-.98-3.22-1.47-6.87-1.47-10.85,0-5.39.68-10.57,2.03-15.39,1.35-4.84,3.31-9.13,5.82-12.76,2.51-3.63,5.64-6.58,9.29-8.77,3.66-2.18,7.88-3.29,12.55-3.29,4.37,0,8.18,1,11.32,2.97,3.15,1.98,5.25,5.4,6.24,10.17.21,1.38,1.05,2.05,2.57,2.05,1.24,0,2.15-.28,2.77-.86-.15-1.23-.27-2.55-.38-3.94-.11-1.42-.17-2.94-.17-4.52,0-2.09.11-4.23.32-6.37-3.43-1.11-6.99-2.02-10.57-2.7-3.65-.68-7.45-1.03-11.3-1.03Z"/>
  </g>
  <g>
    <path class="cls-1" d="M106.24,50.41h-21.36l-8.65,15.86c-.3.52-.45,1.09-.45,1.69,0,1.2.73,2.1,2.19,2.7,1.46.6,3.2,1.05,5.23,1.35,1.42.23,2.13.75,2.13,1.57,0,.52-.11,1.16-.34,1.91-2.85-.23-5.38-.41-7.59-.57-2.21-.15-4.29-.22-6.24-.22-1.42,0-3.02.04-4.78.11-1.76.07-4.02.3-6.8.67-.15-.38-.26-.73-.34-1.07-.07-.33-.11-.65-.11-.96,0-.52.21-.95.62-1.29.41-.34,1.14-.58,2.19-.73,3.75-.67,6.26-2.1,7.53-4.28L105.12,1.82c.6-1.05,1.42-1.57,2.47-1.57.98,0,1.8.26,2.48.79l12.59,65.9c.3,1.43.99,2.48,2.08,3.16,1.09.67,2.38,1.09,3.88,1.23.9.15,1.55.34,1.96.56.41.23.62.75.62,1.57,0,.23-.02.51-.06.84-.04.34-.1.69-.17,1.07-1.95-.15-4.05-.3-6.29-.45-2.25-.15-4.65-.22-7.19-.22-1.05,0-2.21.01-3.49.06-1.28.04-2.59.09-3.93.16-1.35.08-2.66.17-3.94.28-1.27.11-2.44.21-3.48.28-.23-.67-.34-1.31-.34-1.91,0-.45.15-.84.45-1.18.3-.34.86-.58,1.69-.73,3.07-.45,4.61-1.77,4.61-3.94,0-.52-.04-.89-.11-1.12l-2.7-16.2ZM105.34,45.24l-4.05-25.76-13.6,25.76h17.65Z"/>
    <path class="cls-1" d="M59.44,75.76l-.07-.18c-.15-.38-.26-.74-.35-1.11-.08-.37-.12-.7-.12-1.01,0-.6.24-1.09.71-1.48.45-.37,1.21-.63,2.32-.78,3.64-.65,6.12-2.05,7.35-4.16L104.9,1.7c.65-1.13,1.55-1.7,2.69-1.7,1.02,0,1.91.28,2.63.84l.07.06.02.09,12.59,65.9c.28,1.36.93,2.34,1.97,2.99,1.05.65,2.32,1.05,3.77,1.2.93.15,1.61.35,2.06.59.5.28.75.88.75,1.79,0,.22-.02.5-.06.87-.04.34-.1.7-.17,1.09l-.04.22-.22-.02c-1.95-.15-4.05-.3-6.29-.45-2.2-.15-4.61-.22-7.17-.22-1.21,0-2.34.02-3.48.06-1.21.03-2.49.09-3.93.16-1.45.08-2.74.18-3.93.28-1.27.12-2.44.21-3.49.29h-.19s-.06-.17-.06-.17c-.23-.7-.35-1.37-.35-1.99,0-.51.17-.96.51-1.34.33-.38.93-.65,1.83-.81,2.96-.44,4.4-1.65,4.4-3.7,0-.6-.05-.9-.1-1.05l-2.67-16.02h-21l-8.58,15.73c-.28.49-.42,1.01-.42,1.57,0,1.1.67,1.91,2.04,2.47,1.43.59,3.16,1.04,5.17,1.33,1.56.25,2.35.86,2.35,1.82,0,.55-.11,1.2-.35,1.99l-.06.19-.2-.02c-2.85-.23-5.37-.41-7.58-.57-2.16-.15-4.26-.22-6.22-.22-1.47,0-3.07.04-4.77.11-1.74.07-3.95.29-6.78.67l-.19.03ZM84.74,50.16h21.72l2.73,16.4c.07.22.11.63.11,1.16,0,2.31-1.62,3.72-4.82,4.19-.76.14-1.28.36-1.54.65-.26.29-.39.63-.39,1.01,0,.52.09,1.07.27,1.65.99-.08,2.09-.16,3.28-.27,1.19-.11,2.49-.2,3.94-.28,1.44-.08,2.73-.13,3.94-.16,1.14-.04,2.28-.06,3.49-.06,2.57,0,5,.07,7.21.22,2.16.15,4.19.29,6.08.44.05-.29.1-.57.13-.83.04-.35.06-.61.06-.82,0-.72-.17-1.18-.49-1.36-.39-.21-1.03-.39-1.89-.53-1.52-.15-2.86-.58-3.97-1.27-1.14-.72-1.88-1.83-2.19-3.32L109.84,1.18c-.62-.46-1.36-.68-2.25-.68-.96,0-1.7.47-2.26,1.45l-35.63,65.34c-1.31,2.24-3.9,3.72-7.71,4.4-1.01.14-1.71.37-2.08.68-.35.29-.53.65-.53,1.1,0,.28.03.57.1.91.06.28.15.56.26.85,2.75-.37,4.92-.58,6.63-.65,1.7-.08,3.31-.12,4.79-.12,1.98,0,4.08.07,6.26.22,2.16.15,4.62.33,7.39.55.18-.65.27-1.2.27-1.65,0-.25,0-1.02-1.93-1.33-2.04-.3-3.82-.76-5.28-1.36-1.56-.64-2.35-1.63-2.35-2.93,0-.64.16-1.25.48-1.81l8.72-15.98ZM105.63,45.49h-18.35l14.14-26.78,4.21,26.78ZM88.11,44.99h16.94l-3.89-24.73-13.06,24.73Z"/>
  </g>
  <g>
    <path class="cls-1" d="M215.73,1.6c2.17,0,4.25-.06,6.24-.16,1.99-.11,4.25-.32,6.8-.62.22.83.34,1.5.34,2.03,0,1.2-.79,1.95-2.36,2.25-1.5.38-2.66.81-3.49,1.29-.82.49-1.31,1.37-1.46,2.65l-8.54,57.81c-.22,1.43.07,2.45.9,3.09.82.64,1.99,1.11,3.49,1.4.82.15,1.46.38,1.91.67.45.3.68.79.68,1.46,0,.52-.11,1.16-.34,1.91-2.78-.23-5.47-.4-8.1-.5-2.62-.11-4.83-.17-6.63-.17-1.57,0-3.56.07-5.96.22-2.4.16-4.87.34-7.42.57-.15-.45-.26-.84-.34-1.18-.07-.33-.11-.65-.11-.96,0-1.12.83-1.79,2.48-2.02,2.02-.23,3.5-.69,4.44-1.4.94-.72,1.52-1.78,1.74-3.21l7.08-46.11-28.66,52.97c-.45.83-.92,1.45-1.4,1.86-.49.41-1.14.62-1.97.62-.75,0-1.37-.08-1.85-.23-.49-.15-.92-.33-1.29-.56l-13.27-57.24-11.24,48.13c-.38,1.5-.11,2.65.79,3.43.9.79,2.66,1.37,5.28,1.74,1.12.15,1.89.39,2.31.73.41.34.62.81.62,1.4,0,.45-.11,1.13-.34,2.03-2.77-.23-5.11-.41-7.02-.57-1.91-.15-3.58-.22-5-.22-1.28,0-2.83.06-4.67.17-1.84.11-3.95.31-6.35.62-.15-.38-.26-.73-.34-1.07-.07-.33-.11-.65-.11-.96,0-.52.17-.94.5-1.23s.96-.52,1.85-.67c3.52-.6,5.62-2.21,6.29-4.84l13.71-57.93c.23-.82.13-1.57-.28-2.25-.41-.67-1.56-1.2-3.43-1.57-.9-.15-1.51-.38-1.85-.67-.34-.3-.5-.75-.5-1.35,0-.52.11-1.24.34-2.14,1.35.16,2.62.28,3.82.4,1.2.11,2.38.18,3.54.23,1.16.04,2.38.07,3.65.11,1.27.04,2.7.06,4.27.06s2.68.28,3.32.84c.63.57,1.03,1.3,1.18,2.2l11.57,53.08,27.77-52.29c.37-.75.75-1.37,1.12-1.86.37-.49.82-.88,1.35-1.18.52-.3,1.16-.5,1.91-.62.75-.11,1.76-.17,3.04-.17Z"/>
    <path class="cls-1" d="M175.03,76.3c-.76,0-1.41-.08-1.93-.24-.52-.16-.97-.36-1.35-.59l-.09-.05-.02-.1-13.03-56.2-10.99,47.09c-.35,1.42-.12,2.46.71,3.19.86.75,2.59,1.32,5.15,1.69,1.19.16,1.98.42,2.43.79.47.39.71.93.71,1.6,0,.48-.11,1.16-.35,2.09l-.05.2-.21-.02c-1.56-.13-2.99-.24-4.28-.35l-2.75-.22c-1.86-.15-3.54-.22-4.98-.22-1.26,0-2.82.06-4.65.17-1.82.11-3.95.31-6.33.62l-.19.02-.07-.18c-.15-.38-.27-.74-.35-1.11-.08-.37-.12-.7-.12-1.01,0-.6.2-1.08.59-1.42.37-.33,1.04-.58,1.98-.73,3.45-.59,5.44-2.11,6.09-4.65l13.71-57.92c.21-.76.12-1.45-.25-2.06-.37-.61-1.47-1.1-3.27-1.46-.94-.16-1.59-.4-1.97-.73-.39-.35-.59-.86-.59-1.53,0-.54.12-1.28.34-2.2l.05-.21.22.03c1.35.16,2.62.28,3.82.4,1.12.11,2.27.18,3.52.23,1.16.04,2.38.07,3.65.11,1.15.04,2.51.06,4.27.06,1.62,0,2.79.3,3.48.91.68.6,1.1,1.39,1.26,2.34l11.43,52.41,27.45-51.7c.37-.75.76-1.38,1.15-1.89.38-.5.86-.92,1.42-1.25.55-.31,1.22-.53,2-.65.76-.12,1.79-.17,3.07-.17,2.11,0,4.21-.05,6.22-.16,2-.11,4.29-.32,6.79-.62l.21-.03.06.21c.23.86.35,1.55.35,2.09,0,1.33-.86,2.17-2.56,2.49-1.45.36-2.6.79-3.41,1.26-.76.45-1.2,1.26-1.34,2.46l-8.54,57.82c-.21,1.34.05,2.28.81,2.86.79.61,1.93,1.07,3.38,1.36.85.15,1.52.39,2,.71.52.35.79.92.79,1.67,0,.55-.11,1.2-.35,1.99l-.06.19-.2-.02c-2.83-.23-5.55-.4-8.09-.5-2.62-.11-4.84-.17-6.62-.17-1.6,0-3.6.07-5.94.22-2.63.17-5.06.36-7.41.57l-.2.02-.06-.19c-.16-.5-.27-.88-.34-1.21-.08-.35-.12-.69-.12-1.01,0-1.26.9-2.02,2.69-2.27,1.97-.22,3.42-.68,4.32-1.36.89-.68,1.43-1.68,1.65-3.05l6.86-44.7-27.98,51.71c-.46.85-.95,1.5-1.46,1.93-.53.45-1.25.67-2.13.67ZM172.11,75.11c.32.19.71.35,1.15.48.47.14,1.07.22,1.78.22.77,0,1.36-.18,1.81-.56.46-.39.92-.99,1.35-1.79l29.34-54.23-7.3,47.53c-.23,1.48-.85,2.61-1.84,3.37-.97.73-2.51,1.22-4.56,1.45-1.51.21-2.25.79-2.25,1.77,0,.28.04.58.11.9.06.27.15.58.27.97,2.3-.2,4.66-.38,7.23-.55,2.36-.15,4.37-.22,5.97-.22,1.78,0,4.02.06,6.64.17,2.49.1,5.14.26,7.9.49.18-.65.27-1.2.27-1.65,0-.59-.19-1-.57-1.26-.42-.28-1.03-.49-1.81-.64-1.54-.3-2.74-.79-3.59-1.45-.9-.69-1.23-1.81-.99-3.33l8.54-57.81c.16-1.34.69-2.29,1.58-2.82.85-.5,2.05-.94,3.55-1.32,1.47-.28,2.17-.93,2.17-2.01,0-.45-.09-1.04-.27-1.76-2.43.29-4.65.49-6.6.6-2.03.11-4.13.16-6.25.16-1.25,0-2.26.06-3,.17-.72.11-1.33.31-1.83.59-.51.29-.92.66-1.27,1.12-.37.48-.74,1.09-1.1,1.82l-28.09,52.9-11.72-53.74c-.15-.86-.51-1.53-1.1-2.07-.59-.52-1.65-.78-3.15-.78-1.76,0-3.12-.02-4.28-.06-1.27-.04-2.49-.07-3.65-.11-1.26-.05-2.43-.12-3.55-.23-1.14-.11-2.34-.23-3.61-.37-.18.78-.28,1.41-.28,1.87,0,.52.14.91.42,1.16.31.27.89.48,1.73.61,1.97.4,3.15.95,3.6,1.69.45.73.55,1.56.31,2.44l-13.71,57.92c-.7,2.72-2.88,4.41-6.49,5.02-1.05.17-1.52.43-1.73.61-.28.25-.42.59-.42,1.05,0,.28.03.58.1.91.07.28.15.56.26.85,2.32-.29,4.39-.49,6.17-.6,1.84-.11,3.41-.17,4.68-.17,1.45,0,3.14.07,5.02.22l2.75.22c1.23.1,2.59.21,4.07.33.19-.78.28-1.37.28-1.76,0-.52-.17-.92-.53-1.21-.37-.31-1.1-.53-2.18-.68-2.7-.39-4.47-.98-5.41-1.8-.97-.85-1.26-2.09-.86-3.68l11.48-49.17,13.48,58.18Z"/>
  </g>
  <g>
    <path class="cls-1" d="M274.85.25c4.79,0,9.03.77,12.7,2.3,3.67,1.54,6.74,3.64,9.22,6.3,2.47,2.67,4.34,5.82,5.62,9.45,1.27,3.64,1.91,7.56,1.91,11.76,0,6.82-1.09,13.04-3.26,18.67-2.18,5.62-5.16,10.46-8.94,14.51-3.79,4.05-8.26,7.2-13.43,9.45-5.17,2.25-10.76,3.38-16.75,3.38-4.65,0-8.73-.82-12.25-2.48-3.52-1.65-6.48-3.86-8.88-6.64-2.4-2.77-4.2-5.99-5.4-9.67-1.2-3.67-1.8-7.5-1.8-11.47,0-6,1.03-11.75,3.09-17.26,2.06-5.51,4.93-10.37,8.6-14.57,3.67-4.2,8.02-7.54,13.04-10.01,5.02-2.47,10.53-3.71,16.52-3.71ZM264.73,70.99c4.35,0,8.1-1.16,11.24-3.48,3.15-2.33,5.75-5.36,7.81-9.11,2.06-3.74,3.58-7.96,4.55-12.65.97-4.69,1.46-9.42,1.46-14.23,0-8.25-1.35-14.68-4.05-19.29-2.7-4.61-6.6-6.91-11.69-6.91-4.5,0-8.37,1.14-11.63,3.43-3.26,2.29-5.96,5.31-8.1,9.06-2.13,3.75-3.71,8.06-4.72,12.94-1.01,4.87-1.52,9.94-1.52,15.18,0,7.87,1.33,14.02,3.99,18.45,2.66,4.43,6.88,6.63,12.65,6.63Z"/>
    <path class="cls-1" d="M261.92,76.3c-4.67,0-8.82-.84-12.36-2.5-3.54-1.65-6.55-3.9-8.96-6.7-2.41-2.78-4.24-6.06-5.45-9.75-1.2-3.68-1.81-7.57-1.81-11.55,0-6,1.05-11.84,3.11-17.35,2.06-5.52,4.97-10.45,8.64-14.64,3.68-4.21,8.09-7.6,13.12-10.07,5.04-2.48,10.63-3.73,16.63-3.73,4.79,0,9.1.78,12.8,2.32,3.69,1.55,6.82,3.69,9.3,6.36,2.48,2.68,4.39,5.88,5.67,9.53,1.28,3.65,1.93,7.64,1.93,11.84,0,6.81-1.1,13.12-3.28,18.75-2.18,5.63-5.2,10.54-8.99,14.59-3.8,4.06-8.34,7.26-13.52,9.5-5.18,2.25-10.85,3.4-16.85,3.4ZM274.85.5c-5.92,0-11.44,1.24-16.41,3.68-4.97,2.45-9.33,5.8-12.96,9.95-3.63,4.15-6.51,9.03-8.55,14.49-2.04,5.45-3.08,11.23-3.08,17.17,0,3.93.6,7.77,1.79,11.4,1.18,3.62,2.98,6.85,5.35,9.58,2.37,2.74,5.33,4.96,8.8,6.57,3.47,1.63,7.55,2.45,12.15,2.45,5.93,0,11.53-1.13,16.65-3.35,5.11-2.22,9.6-5.38,13.35-9.39,3.74-4.01,6.73-8.86,8.89-14.43,2.15-5.57,3.24-11.82,3.24-18.58,0-4.15-.64-8.08-1.9-11.68-1.26-3.58-3.13-6.73-5.57-9.36-2.43-2.62-5.51-4.72-9.13-6.24-3.64-1.52-7.88-2.29-12.61-2.29ZM264.73,71.24c-5.84,0-10.17-2.27-12.86-6.75-2.67-4.44-4.03-10.69-4.03-18.57,0-5.24.51-10.36,1.52-15.23,1.01-4.87,2.61-9.25,4.75-13.01,2.15-3.77,4.9-6.84,8.17-9.14,3.29-2.3,7.25-3.47,11.77-3.47,5.17,0,9.17,2.37,11.91,7.04,2.71,4.63,4.08,11.16,4.08,19.41,0,4.78-.49,9.58-1.47,14.28-.98,4.69-2.52,8.97-4.58,12.72-2.07,3.76-4.72,6.86-7.88,9.19-3.17,2.34-7,3.53-11.39,3.53ZM274.06,5.56c-4.42,0-8.29,1.14-11.49,3.38-3.21,2.25-5.91,5.27-8.02,8.98-2.11,3.71-3.69,8.04-4.69,12.86-1,4.84-1.51,9.93-1.51,15.13,0,7.79,1.33,13.95,3.95,18.32,2.6,4.32,6.78,6.51,12.43,6.51,4.28,0,8.01-1.15,11.09-3.43,3.11-2.29,5.71-5.33,7.74-9.03,2.04-3.7,3.56-7.94,4.53-12.58.97-4.66,1.46-9.43,1.46-14.18,0-8.16-1.35-14.61-4.01-19.16-2.64-4.51-6.5-6.79-11.48-6.79Z"/>
  </g>
  <g>
    <path class="cls-1" d="M370.39,60.53c-1.5,3.22-3.47,5.98-5.9,8.26-2.44,2.29-5.4,4.07-8.88,5.34-3.49,1.28-7.63,1.91-12.42,1.91-8.17,0-14.54-1.78-19.11-5.34-4.57-3.56-6.86-8.68-6.86-15.35,0-.97.04-1.95.11-2.92.07-.98.22-1.99.45-3.04l7.64-39.59c.3-1.35.13-2.42-.51-3.21-.63-.79-2.04-1.29-4.21-1.52-1.65-.23-2.48-.9-2.48-2.02,0-.52.19-1.28.56-2.26,2.85.3,5.45.51,7.81.62,2.36.11,4.44.16,6.24.16.75,0,1.7-.01,2.87-.06,1.16-.04,2.4-.07,3.71-.11,1.31-.04,2.64-.11,3.99-.23,1.35-.11,2.66-.24,3.93-.4.07.38.13.72.17,1.01.04.3.05.6.05.9,0,.75-.21,1.31-.62,1.69-.41.38-1.26.64-2.53.79-2.17.3-3.58.77-4.22,1.4-.64.64-1.11,1.63-1.4,2.98l-7.76,39.03c-.6,3-.9,5.59-.9,7.77,0,4.5,1.24,7.93,3.71,10.29,2.48,2.36,6.67,3.54,12.59,3.54,5.4,0,9.99-1.61,13.77-4.84,3.78-3.22,6.39-8.55,7.81-15.97l7.42-38.91c.23-1.27,0-2.45-.67-3.54-.67-1.09-1.99-1.78-3.93-2.08-1.12-.15-1.89-.37-2.31-.67-.41-.3-.62-.74-.62-1.35,0-.45.11-1.13.34-2.03,2.77.23,4.87.42,6.29.57,1.42.15,2.85.22,4.27.22,1.27,0,2.72-.01,4.33-.06,1.61-.04,3.61-.2,6.01-.5.15.38.26.73.34,1.07.07.33.11.65.11.96,0,.52-.17.94-.5,1.23-.34.3-.96.52-1.85.67-3.3.52-5.17,2.06-5.62,4.61l-7.65,40.15c-.9,3.98-2.1,7.57-3.6,10.8Z"/>
    <path class="cls-1" d="M343.19,76.3c-8.19,0-14.67-1.81-19.26-5.39-4.61-3.59-6.95-8.82-6.95-15.55,0-.96.04-1.95.11-2.94.08-1,.22-2,.46-3.08l7.64-39.58c.28-1.27.13-2.28-.46-3-.59-.73-1.95-1.21-4.05-1.43-1.79-.25-2.7-1.01-2.7-2.27,0-.56.19-1.33.58-2.34l.07-.18.19.02c2.79.3,5.42.51,7.8.62,2.43.11,4.47.16,6.23.16.87,0,1.83-.02,2.86-.06,1.16-.04,2.4-.07,3.71-.11,1.41-.05,2.71-.12,3.98-.23,1.47-.12,2.75-.25,3.92-.4l.23-.03.04.23c.08.38.13.73.17,1.03.04.32.06.62.06.93,0,.82-.23,1.45-.7,1.87-.45.42-1.33.69-2.67.85-2.1.29-3.47.74-4.07,1.33-.6.6-1.05,1.56-1.34,2.86l-7.75,39.02c-.59,2.98-.9,5.57-.9,7.72,0,4.41,1.22,7.81,3.63,10.11,2.41,2.3,6.59,3.47,12.42,3.47,5.31,0,9.89-1.61,13.61-4.78,3.72-3.17,6.33-8.49,7.73-15.83l7.42-38.91c.21-1.2,0-2.33-.64-3.36-.63-1.02-1.9-1.68-3.76-1.97-1.18-.16-1.97-.39-2.41-.72-.48-.34-.72-.86-.72-1.55,0-.48.12-1.18.34-2.09l.05-.2.21.02c2.62.21,4.8.41,6.3.57,1.38.15,2.81.22,4.24.22s2.88-.02,4.32-.06c1.64-.04,3.65-.2,5.99-.5l.19-.02.07.18c.15.38.27.74.35,1.11.08.37.12.7.12,1.01,0,.6-.2,1.08-.59,1.42-.38.34-1.03.58-1.98.73-3.21.51-4.99,1.95-5.42,4.41l-7.65,40.16c-.89,3.96-2.11,7.61-3.61,10.86h0c-1.51,3.24-3.51,6.05-5.96,8.34-2.45,2.3-5.46,4.12-8.96,5.39-3.5,1.28-7.71,1.93-12.51,1.93ZM318.96,1.08c-.32.86-.48,1.53-.48,1.99,0,.99.74,1.57,2.26,1.78,2.26.24,3.69.76,4.37,1.61.68.84.87,1.99.56,3.42l-7.64,39.58c-.23,1.05-.37,2.04-.45,3.01-.07.98-.11,1.96-.11,2.9,0,6.57,2.28,11.67,6.76,15.16,4.5,3.51,10.88,5.29,18.95,5.29,4.74,0,8.89-.64,12.34-1.9,3.44-1.25,6.4-3.03,8.79-5.29,2.4-2.25,4.36-5,5.85-8.19h0c1.49-3.21,2.69-6.83,3.58-10.75l7.64-40.14c.47-2.65,2.43-4.27,5.83-4.81.84-.14,1.42-.35,1.73-.62.28-.25.42-.59.42-1.05,0-.28-.03-.58-.1-.91-.06-.28-.15-.56-.26-.85-2.27.28-4.24.45-5.84.48-1.45.04-2.86.06-4.34.06s-2.9-.07-4.29-.22c-1.46-.15-3.56-.34-6.08-.55-.19.77-.28,1.36-.28,1.76,0,.52.17.9.51,1.15.37.27,1.11.49,2.19.63,2.02.32,3.4,1.06,4.11,2.2.71,1.14.94,2.39.71,3.71l-7.42,38.91c-1.43,7.45-4.08,12.87-7.9,16.11-3.81,3.25-8.5,4.9-13.93,4.9-5.96,0-10.25-1.21-12.76-3.61-2.51-2.4-3.79-5.92-3.79-10.47,0-2.18.3-4.81.91-7.81l7.76-39.03c.31-1.39.8-2.44,1.47-3.11.68-.68,2.11-1.17,4.36-1.48,1.22-.14,2.02-.39,2.39-.72.36-.33.54-.82.54-1.5,0-.29-.02-.57-.05-.87-.03-.23-.07-.49-.12-.77-1.11.13-2.33.25-3.71.37-1.28.11-2.59.18-4.01.23-1.31.04-2.55.07-3.71.11-1.03.04-1.99.06-2.87.06-1.76,0-3.81-.05-6.25-.16-2.34-.11-4.91-.32-7.64-.6Z"/>
  </g>
  <g>
    <path class="cls-1" d="M408.16,66.94c-.15.75-.04,1.38.34,1.86.38.49.88.89,1.52,1.18.63.3,1.33.52,2.08.67.75.15,1.46.26,2.13.33,1.27.16,2.15.42,2.64.79.49.38.73.83.73,1.35,0,.3-.04.67-.11,1.12-.07.45-.15.87-.22,1.24-1.35-.08-2.83-.17-4.44-.28-1.61-.11-3.17-.21-4.67-.28-1.5-.07-2.94-.13-4.33-.16-1.39-.04-2.53-.06-3.43-.06-1.5,0-3.52.07-6.07.22-2.55.16-5.06.34-7.53.57-.15-.38-.24-.79-.28-1.24-.04-.45-.05-.82-.05-1.12,0-.67.3-1.14.9-1.41.6-.26,1.35-.46,2.25-.62,1.42-.22,2.59-.63,3.49-1.23.9-.6,1.5-1.65,1.8-3.15l11.01-57.36c.3-1.35.09-2.35-.62-2.99-.71-.63-2.08-1.06-4.1-1.29-1.65-.23-2.47-.97-2.47-2.25,0-.52.11-1.2.34-2.03,2.85.23,5.6.42,8.26.57,2.66.15,4.93.22,6.8.22h21.02c2.92,0,5.15-.11,6.69-.33,1.53-.23,2.75-.34,3.65-.34s1.5.16,1.8.45c.3.3.45.86.45,1.69,0,2.4.18,4.76.56,7.08.38,2.33.82,4.65,1.35,6.97-.38.3-.88.55-1.51.73-.64.19-1.22.28-1.74.28-.83,0-1.42-.17-1.8-.51-.38-.33-.64-.77-.79-1.29-1.05-3.6-2.47-6.17-4.27-7.7-1.8-1.54-4.23-2.31-7.31-2.31h-12.48l-5.62,29.69h13.04c1.72,0,2.96-.52,3.71-1.57.75-1.05,1.39-2.48,1.91-4.27.15-.45.35-.87.62-1.24.26-.38.69-.56,1.29-.56s1.2.09,1.8.28c.6.18,1.12.35,1.57.5-.45,1.72-.84,3.32-1.18,4.78-.34,1.46-.64,2.94-.9,4.44-.26,1.5-.49,3.11-.67,4.84-.19,1.73-.35,3.67-.51,5.85-.75.38-1.72.56-2.92.56-1.05,0-1.68-.23-1.91-.67-.22-.45-.3-.94-.22-1.46.22-1.87.09-3.43-.39-4.67-.49-1.24-1.63-1.86-3.43-1.86h-12.7l-5.06,25.98Z"/>
    <path class="cls-1" d="M386.64,75.76l-.07-.17c-.16-.4-.26-.84-.3-1.31-.04-.45-.05-.83-.05-1.14,0-.78.35-1.33,1.04-1.64.61-.26,1.39-.47,2.31-.64,1.38-.21,2.52-.62,3.39-1.2.84-.56,1.41-1.57,1.69-2.99l11.01-57.36c.28-1.28.1-2.18-.54-2.75-.67-.6-2.01-1.01-3.96-1.23-1.79-.25-2.69-1.09-2.69-2.5,0-.55.12-1.26.35-2.09l.05-.2.2.02c2.97.24,5.67.42,8.25.57,2.6.15,4.88.22,6.79.22h21.02c2.97,0,5.14-.11,6.65-.33,3.18-.47,4.97-.5,5.66.18.35.35.52.96.52,1.86,0,2.39.19,4.76.56,7.04.38,2.34.83,4.68,1.34,6.96l.03.15-.12.1c-.41.32-.95.58-1.6.77-.65.19-1.26.29-1.81.29-.9,0-1.54-.19-1.96-.58-.41-.36-.7-.84-.86-1.41-1.03-3.54-2.44-6.09-4.19-7.58-1.75-1.49-4.15-2.25-7.15-2.25h-12.27l-5.53,29.2h12.74c1.63,0,2.81-.49,3.51-1.47.73-1.02,1.36-2.43,1.87-4.19.16-.48.37-.92.65-1.31.31-.44.81-.67,1.5-.67.63,0,1.26.1,1.87.3.6.18,1.13.36,1.58.5l.22.07-.06.23c-.45,1.71-.84,3.31-1.18,4.77-.34,1.46-.64,2.95-.9,4.43-.26,1.48-.48,3.1-.67,4.82-.18,1.69-.35,3.6-.51,5.84v.14s-.14.06-.14.06c-.78.39-1.8.59-3.03.59-1.16,0-1.86-.26-2.13-.81-.25-.49-.33-1.03-.25-1.61.22-1.82.09-3.35-.38-4.54-.45-1.14-1.5-1.7-3.2-1.7h-12.49l-5.02,25.78c-.13.68-.04,1.24.29,1.66.36.46.84.84,1.43,1.11.62.29,1.3.51,2.02.66.76.15,1.47.26,2.11.33,1.33.16,2.23.44,2.77.84.55.43.83.95.83,1.55,0,.31-.04.7-.12,1.16-.07.4-.13.77-.2,1.1l-.07.36h-.22c-1.35-.09-2.83-.18-4.44-.3-1.47-.1-3-.2-4.66-.28-1.6-.08-3.01-.13-4.32-.16-1.22-.04-2.37-.06-3.42-.06-1.52,0-3.56.07-6.06.22-2.73.17-5.2.35-7.52.57l-.19.02ZM400.4,74.46c1.06,0,2.21.02,3.44.06,1.31.03,2.73.09,4.33.16,1.67.09,3.19.18,4.67.28,1.52.11,2.93.2,4.22.27.06-.31.12-.65.18-1.02.07-.44.11-.8.11-1.08,0-.45-.21-.83-.63-1.16-.45-.34-1.3-.59-2.52-.74-.66-.07-1.38-.18-2.15-.34-.76-.15-1.48-.38-2.14-.69-.66-.31-1.21-.73-1.61-1.26-.42-.54-.55-1.23-.38-2.06l5.1-26.18h12.9c1.9,0,3.13.68,3.66,2.01.5,1.27.64,2.88.41,4.79-.07.48,0,.92.2,1.32.18.35.76.54,1.69.54,1.09,0,1.99-.16,2.68-.47.15-2.18.32-4.05.5-5.72.19-1.73.42-3.36.68-4.85.26-1.49.57-2.98.9-4.45.32-1.4.7-2.94,1.12-4.56-.4-.13-.85-.27-1.35-.43-.57-.18-1.15-.27-1.72-.27-.52,0-.88.15-1.09.45-.25.36-.44.75-.58,1.18-.53,1.81-1.18,3.27-1.95,4.34-.79,1.11-2.11,1.68-3.91,1.68h-13.34l.06-.29,5.66-29.9h12.68c3.12,0,5.63.8,7.47,2.37,1.82,1.56,3.29,4.19,4.35,7.82.14.48.38.88.71,1.17.33.3.88.45,1.63.45.51,0,1.07-.09,1.67-.27.53-.15.97-.35,1.31-.59-.5-2.24-.94-4.54-1.31-6.83-.37-2.31-.56-4.71-.56-7.12,0-.74-.13-1.26-.38-1.51-.17-.17-.6-.38-1.62-.38-.89,0-2.1.11-3.62.34-1.53.23-3.73.34-6.72.34h-21.02c-1.92,0-4.21-.07-6.82-.22-2.52-.14-5.16-.32-8.06-.55-.18.71-.28,1.3-.28,1.76,0,1.14.74,1.79,2.26,2,2.09.23,3.47.68,4.23,1.35.78.7,1.01,1.78.69,3.22l-11.01,57.35c-.31,1.56-.95,2.67-1.9,3.31-.93.62-2.13,1.05-3.59,1.27-.88.15-1.61.36-2.19.6-.51.23-.75.61-.75,1.18,0,.3.02.67.05,1.1.03.35.1.69.2,1,2.27-.21,4.68-.39,7.35-.55,2.51-.15,4.55-.22,6.09-.22Z"/>
  </g>
  <g>
    <path class="cls-1" d="M454.75,74.92c-2.51.16-5,.34-7.48.57-.15-.38-.26-.73-.34-1.07-.07-.33-.11-.69-.11-1.07,0-.45.15-.84.45-1.18.3-.34.86-.58,1.68-.73,1.87-.3,3.33-.79,4.38-1.46s1.72-1.77,2.02-3.26l11.01-57.36c.3-1.35,0-2.36-.9-3.04-.9-.67-2.33-1.16-4.27-1.46-1.43-.22-2.13-.82-2.13-1.79,0-.3.04-.64.11-1.01.07-.38.18-.79.34-1.24,2.85.3,5.64.51,8.37.62,2.73.11,5.04.16,6.92.16,2.1,0,4.68-.07,7.76-.22,3.07-.15,5.88-.34,8.43-.57.15.53.26.96.34,1.3.07.34.11.69.11,1.07,0,1.13-.86,1.8-2.59,2.03-3,.38-5.25.96-6.74,1.74-1.5.79-2.44,2.23-2.81,4.34l-10.68,56.1c-.15.91-.1,1.56.17,1.97.26.42.99.62,2.19.62h11.24c3.15,0,6.05-.85,8.71-2.55,2.66-1.7,5.42-4.6,8.26-8.68.37-.6.71-1.06,1.01-1.36.3-.3.75-.45,1.35-.45.68,0,1.33.21,1.97.62.63.41,1.18.84,1.63,1.3-.38.82-.79,1.69-1.24,2.58-.38.83-.8,1.74-1.29,2.76-.49,1.01-.96,2.16-1.41,3.43-.6,1.5-1.03,2.83-1.29,3.99s-.55,2.04-.84,2.64c-.22.52-.47.84-.73.96s-.58.17-.95.17c-.83,0-1.56-.04-2.19-.11-.64-.08-1.33-.15-2.08-.23-.75-.07-1.59-.15-2.53-.22-.94-.08-2.08-.11-3.43-.11h-26.3c-1.57,0-3.62.07-6.12.22Z"/>
    <path class="cls-1" d="M447.11,75.76l-.07-.17c-.16-.41-.27-.77-.35-1.11-.08-.35-.12-.73-.12-1.12,0-.5.17-.95.51-1.34.34-.38.93-.65,1.83-.81,1.83-.29,3.27-.77,4.29-1.43.98-.63,1.63-1.67,1.92-3.1l11.01-57.36c.28-1.26.01-2.18-.8-2.8-.85-.64-2.25-1.11-4.16-1.41-1.94-.3-2.34-1.27-2.34-2.04,0-.33.04-.68.12-1.06.07-.37.18-.79.34-1.27l.06-.19.2.02c2.8.3,5.61.51,8.36.62,2.82.11,5.07.16,6.9.16,2.14,0,4.74-.07,7.74-.22,2.99-.15,5.83-.34,8.42-.57l.21-.02.06.2c.15.54.26.97.34,1.31.08.36.12.73.12,1.13,0,1.26-.94,2.03-2.8,2.27-2.96.37-5.2.95-6.66,1.72-1.42.75-2.32,2.15-2.68,4.16l-10.68,56.1c-.14.83-.09,1.44.13,1.79.15.23.61.51,1.98.51h11.24c3.08,0,5.97-.85,8.57-2.51,2.62-1.68,5.38-4.58,8.19-8.61.38-.61.72-1.07,1.04-1.39.34-.35.85-.53,1.52-.53.72,0,1.43.22,2.1.66.65.42,1.22.87,1.67,1.33l.12.12-.07.16c-.41.91-.82,1.76-1.24,2.59-.37.82-.8,1.74-1.29,2.76-.48,1-.95,2.15-1.4,3.41-.59,1.47-1.02,2.8-1.28,3.97-.26,1.17-.55,2.07-.86,2.69-.25.58-.53.93-.85,1.07-.29.13-.64.19-1.05.19-.79,0-1.54-.04-2.22-.11-.59-.07-1.22-.14-1.9-.21l-.18-.02c-.75-.07-1.59-.15-2.52-.22-.91-.08-2.02-.11-3.41-.11h-26.3c-1.6,0-3.66.07-6.11.22-2.7.17-5.14.35-7.47.57l-.19.02ZM459.7,1.08c-.12.38-.21.71-.27,1.02-.07.36-.11.67-.11.97,0,.84.63,1.35,1.92,1.55,2.02.32,3.45.81,4.38,1.51.98.74,1.31,1.85.99,3.29l-11.01,57.35c-.32,1.57-1.03,2.72-2.14,3.42-1.08.69-2.59,1.2-4.48,1.5-.76.14-1.28.36-1.54.65-.26.3-.39.63-.39,1.01,0,.36.04.7.11,1.02.06.27.14.55.26.86,2.28-.21,4.67-.39,7.3-.55h0c2.46-.15,4.53-.22,6.14-.22h26.3c1.4,0,2.53.04,3.45.11.94.07,1.78.15,2.53.22l.19.02c.68.07,1.32.14,1.9.21.66.07,1.39.11,2.16.11.34,0,.63-.05.85-.15.14-.06.36-.25.6-.83.3-.6.58-1.47.83-2.59.27-1.19.71-2.54,1.3-4.03.45-1.27.92-2.43,1.41-3.45.49-1.01.91-1.93,1.29-2.75.4-.79.78-1.58,1.17-2.42-.41-.39-.9-.78-1.47-1.14-.6-.39-1.2-.58-1.83-.58-.53,0-.92.13-1.17.38-.29.29-.62.73-.98,1.32-2.86,4.1-5.66,7.04-8.34,8.76-2.69,1.72-5.66,2.59-8.84,2.59h-11.24c-1.3,0-2.09-.24-2.4-.74-.3-.46-.37-1.16-.2-2.14l10.68-56.1c.39-2.17,1.38-3.69,2.94-4.51,1.52-.8,3.81-1.39,6.83-1.77,1.59-.21,2.37-.79,2.37-1.78,0-.36-.03-.69-.11-1.02-.06-.29-.16-.65-.28-1.09-2.54.22-5.31.41-8.23.55-3.01.15-5.62.22-7.77.22-1.84,0-4.1-.05-6.92-.16-2.7-.11-5.45-.32-8.19-.6Z"/>
  </g>
  <g>
    <path class="cls-1" d="M548.33,50.41h-21.36l-8.65,15.86c-.3.52-.45,1.09-.45,1.69,0,1.2.73,2.1,2.19,2.7,1.46.6,3.2,1.05,5.23,1.35,1.42.23,2.13.75,2.13,1.57,0,.52-.11,1.16-.34,1.91-2.85-.23-5.38-.41-7.59-.57-2.21-.15-4.29-.22-6.24-.22-1.42,0-3.02.04-4.78.11-1.76.07-4.02.3-6.8.67-.15-.38-.26-.73-.34-1.07-.07-.33-.11-.65-.11-.96,0-.52.21-.95.62-1.29s1.14-.58,2.19-.73c3.75-.67,6.26-2.1,7.53-4.28L547.21,1.82c.6-1.05,1.42-1.57,2.47-1.57.98,0,1.8.26,2.48.79l12.59,65.9c.3,1.43.99,2.48,2.08,3.16,1.09.67,2.38,1.09,3.88,1.23.9.15,1.55.34,1.96.56.41.23.62.75.62,1.57,0,.23-.02.51-.06.84-.04.34-.1.69-.17,1.07-1.95-.15-4.05-.3-6.29-.45-2.25-.15-4.65-.22-7.19-.22-1.05,0-2.21.01-3.49.06-1.28.04-2.59.09-3.93.16-1.35.08-2.66.17-3.94.28-1.27.11-2.44.21-3.48.28-.23-.67-.34-1.31-.34-1.91,0-.45.15-.84.45-1.18.3-.34.86-.58,1.69-.73,3.07-.45,4.61-1.77,4.61-3.94,0-.52-.04-.89-.11-1.12l-2.7-16.2ZM547.43,45.24l-4.05-25.76-13.6,25.76h17.65Z"/>
    <path class="cls-1" d="M501.52,75.76l-.07-.18c-.15-.38-.27-.75-.35-1.11-.08-.36-.12-.7-.12-1.01,0-.6.24-1.09.71-1.48.45-.37,1.21-.63,2.31-.78,3.64-.65,6.12-2.05,7.35-4.16L546.99,1.7c.65-1.13,1.55-1.7,2.69-1.7,1.02,0,1.91.28,2.63.84l.07.06.02.09,12.59,65.9c.28,1.36.93,2.34,1.97,2.99,1.05.65,2.32,1.05,3.77,1.2.93.15,1.61.35,2.06.59.5.28.75.88.75,1.79,0,.22-.02.51-.06.87-.04.36-.1.71-.17,1.09l-.04.22-.22-.02c-1.95-.15-4.05-.3-6.29-.45-2.2-.15-4.61-.22-7.17-.22-1.21,0-2.34.02-3.48.06-1.21.03-2.49.09-3.93.16-1.45.09-2.74.18-3.93.28-1.28.12-2.44.21-3.49.29h-.19s-.06-.17-.06-.17c-.23-.7-.35-1.37-.35-1.99,0-.51.17-.96.51-1.34.34-.38.93-.65,1.83-.81,2.96-.44,4.4-1.65,4.4-3.7,0-.6-.05-.9-.1-1.05l-2.67-16.02h-21l-8.58,15.73c-.28.49-.42,1.01-.42,1.57,0,1.1.67,1.91,2.04,2.47,1.42.59,3.16,1.04,5.17,1.33,1.56.25,2.35.86,2.35,1.82,0,.55-.11,1.2-.35,1.99l-.06.19-.2-.02c-2.85-.23-5.37-.41-7.58-.57-2.16-.15-4.26-.22-6.22-.22-1.47,0-3.07.04-4.77.11-1.74.07-3.95.29-6.78.67l-.19.03ZM526.82,50.16h21.72l2.73,16.4c.07.23.11.63.11,1.16,0,2.31-1.62,3.72-4.82,4.19-.76.14-1.28.36-1.54.65-.26.29-.39.63-.39,1.01,0,.52.09,1.08.27,1.65.99-.08,2.09-.16,3.28-.27,1.19-.11,2.48-.2,3.94-.28,1.44-.08,2.73-.13,3.94-.16,1.14-.04,2.28-.06,3.49-.06,2.57,0,5,.07,7.21.22,2.16.15,4.19.29,6.08.44.05-.29.09-.56.13-.83.04-.34.06-.61.06-.82,0-.72-.17-1.18-.49-1.36-.39-.21-1.04-.39-1.89-.53-1.52-.15-2.86-.58-3.97-1.27-1.14-.72-1.88-1.83-2.19-3.32l-12.57-65.81c-.62-.46-1.36-.68-2.25-.68-.96,0-1.7.47-2.26,1.45l-35.63,65.34c-1.31,2.24-3.91,3.72-7.71,4.4-1.01.14-1.71.37-2.08.68-.35.29-.53.65-.53,1.1,0,.28.04.58.1.91.06.28.15.56.26.85,2.75-.37,4.92-.58,6.63-.65,1.7-.08,3.31-.12,4.79-.12,1.98,0,4.08.07,6.26.22,2.16.15,4.62.33,7.39.55.18-.65.27-1.2.27-1.65,0-.25,0-1.02-1.93-1.33-2.04-.3-3.82-.76-5.28-1.36-1.56-.64-2.35-1.63-2.35-2.93,0-.64.16-1.25.48-1.81l8.72-15.98ZM547.72,45.49h-18.35l.19-.36,13.95-26.42,4.21,26.78ZM530.19,44.99h16.94l-3.88-24.73-13.06,24.73Z"/>
  </g>
  <g>
    <path class="cls-1" d="M625.1,51.54c.45-2.33-1.09-3.72-4.61-4.16-.9-.15-1.52-.38-1.85-.67s-.5-.75-.5-1.35c0-.38.04-.75.11-1.13s.19-.82.34-1.35c2.85.22,5.49.41,7.93.56,2.43.15,4.55.23,6.35.23,1.5,0,3.43-.08,5.79-.23,2.36-.15,4.78-.34,7.25-.56.22.82.34,1.5.34,2.02,0,1.35-.83,2.18-2.48,2.48-1.72.3-3,.77-3.82,1.4-.83.64-1.39,1.63-1.69,2.99l-4.05,20.13c-.22,1.05-.67,1.8-1.35,2.25-.67.45-1.76.75-3.26.9-3.22.38-6.62.64-10.17.79-3.56.15-7.06.23-10.51.23-5.84,0-10.84-.81-15-2.42-4.16-1.61-7.57-3.8-10.23-6.58-2.66-2.77-4.63-6.04-5.9-9.78-1.27-3.75-1.91-7.77-1.91-12.03,0-5.18.88-10.42,2.64-15.75,1.76-5.32,4.48-10.13,8.15-14.45,3.67-4.31,8.26-7.84,13.77-10.57,5.51-2.74,12.05-4.14,19.61-4.22,3.9,0,7.76.35,11.58,1.04,3.82.69,7.49,1.62,11.02,2.77-.15,1.07-.23,2.16-.23,3.28v3.26c0,1.35.04,2.72.11,4.11.07,1.39.18,2.87.34,4.44-.67.68-1.69,1.01-3.04,1.01-1.65,0-2.59-.74-2.81-2.25-.98-4.57-2.96-7.87-5.96-9.9-3-2.02-6.6-3.04-10.79-3.04-4.95,0-9.27,1.11-12.98,3.31-3.71,2.21-6.8,5.15-9.27,8.81-2.48,3.67-4.33,7.91-5.56,12.74-1.24,4.83-1.85,9.86-1.85,15.1,0,7.94,1.8,14.28,5.39,19.03,3.6,4.75,8.84,7.13,15.74,7.13,1.95,0,3.88-.06,5.79-.17,1.91-.11,3.17-.24,3.77-.39l3.82-19.01Z"/>
    <path class="cls-1" d="M608.91,76.3c-5.84,0-10.92-.82-15.09-2.43-4.18-1.62-7.65-3.85-10.32-6.64-2.67-2.79-4.68-6.11-5.96-9.87-1.28-3.76-1.92-7.84-1.92-12.11,0-5.18.89-10.51,2.65-15.83,1.76-5.32,4.52-10.21,8.2-14.53,3.67-4.32,8.33-7.89,13.85-10.64,5.51-2.74,12.14-4.17,19.72-4.25,3.88,0,7.79.35,11.63,1.04,3.81.69,7.53,1.63,11.05,2.77l.2.06-.03.21c-.15,1.04-.22,2.14-.22,3.25v3.26c0,1.32.04,2.7.11,4.09.07,1.41.19,2.9.34,4.43v.12s-.07.08-.07.08c-.71.72-1.79,1.09-3.21,1.09-1.79,0-2.81-.83-3.05-2.46-.95-4.47-2.92-7.75-5.85-9.73-2.95-1.99-6.53-2.99-10.65-2.99-4.87,0-9.2,1.1-12.86,3.28-3.66,2.19-6.76,5.13-9.2,8.74-2.45,3.63-4.31,7.89-5.53,12.67-1.23,4.78-1.85,9.84-1.85,15.04,0,7.85,1.8,14.2,5.34,18.88,3.53,4.66,8.76,7.03,15.54,7.03,1.93,0,3.87-.06,5.77-.17,2.08-.12,3.08-.25,3.57-.35l3.79-18.85c.17-.87.05-1.57-.37-2.15-.64-.88-1.99-1.46-4.03-1.72-.96-.16-1.61-.4-1.99-.73-.39-.34-.59-.86-.59-1.53,0-.39.04-.79.11-1.18.07-.37.19-.82.34-1.37l.06-.2.2.02c3.21.25,5.73.43,7.92.56,2.45.15,4.58.23,6.34.23,1.48,0,3.36-.07,5.77-.23,2.19-.14,4.56-.32,7.25-.56l.21-.02.05.2c.23.86.35,1.54.35,2.09,0,1.02-.46,2.32-2.68,2.72-1.67.29-2.91.74-3.71,1.36-.77.6-1.31,1.55-1.6,2.84l-4.05,20.12c-.24,1.12-.73,1.92-1.45,2.41-.71.48-1.81.78-3.37.94-3.22.37-6.65.64-10.19.79-3.6.15-7.14.23-10.52.23ZM620.04.5c-7.5.08-14.06,1.49-19.5,4.19-5.45,2.71-10.06,6.25-13.69,10.51-3.64,4.27-6.36,9.11-8.1,14.36-1.74,5.27-2.63,10.55-2.63,15.67,0,4.22.64,8.24,1.9,11.96,1.26,3.69,3.22,6.95,5.85,9.69,2.62,2.74,6.03,4.93,10.14,6.52,4.12,1.59,9.14,2.4,14.91,2.4,3.38,0,6.91-.08,10.5-.23,3.53-.15,6.95-.41,10.16-.79,1.46-.15,2.52-.44,3.15-.86.62-.41,1.03-1.11,1.24-2.09l4.05-20.12c.31-1.41.91-2.46,1.78-3.13.86-.66,2.18-1.15,3.93-1.45,1.53-.28,2.27-1.01,2.27-2.23,0-.45-.09-1.04-.27-1.76-2.6.23-4.91.41-7.05.54-2.42.15-4.32.23-5.8.23-1.77,0-3.91-.08-6.37-.23-2.15-.13-4.61-.31-7.73-.54-.12.45-.22.82-.28,1.13-.07.35-.1.72-.1,1.08,0,.52.14.92.42,1.16.21.18.68.44,1.73.62,2.16.27,3.63.92,4.36,1.92.5.69.65,1.54.46,2.54h0s-3.85,19.16-3.85,19.16l-.15.04c-.64.16-1.92.29-3.81.4-1.91.11-3.86.17-5.8.17-6.95,0-12.31-2.43-15.94-7.23-3.61-4.77-5.44-11.23-5.44-19.18,0-5.24.63-10.34,1.86-15.16,1.24-4.83,3.12-9.15,5.6-12.82,2.48-3.67,5.62-6.67,9.35-8.89,3.74-2.22,8.15-3.35,13.11-3.35,4.22,0,7.9,1.04,10.93,3.08,3.04,2.06,5.08,5.44,6.06,10.05.21,1.39,1.04,2.05,2.57,2.05,1.22,0,2.16-.29,2.78-.86-.14-1.49-.25-2.95-.33-4.33-.08-1.4-.11-2.79-.11-4.12v-3.26c0-1.06.07-2.11.2-3.11-3.44-1.11-7.07-2.02-10.79-2.69-3.8-.68-7.69-1.03-11.53-1.03Z"/>
  </g>
  <g>
    <path class="cls-1" d="M668.04,9.36c.3-1.35.09-2.35-.62-2.99-.71-.63-2.08-1.06-4.1-1.29-1.65-.23-2.47-.97-2.47-2.25,0-.52.11-1.2.34-2.03,2.85.23,5.6.42,8.26.57,2.66.15,4.93.22,6.8.22h21.02c2.92,0,5.15-.11,6.69-.33,1.53-.23,2.75-.34,3.65-.34s1.5.16,1.8.45c.3.3.45.86.45,1.69,0,2.4.18,4.76.56,7.08.38,2.33.82,4.65,1.35,6.97-.38.3-.88.55-1.51.73-.64.19-1.22.28-1.74.28-.83,0-1.42-.17-1.8-.51-.38-.33-.64-.77-.79-1.29-1.05-3.6-2.47-6.17-4.27-7.7-1.8-1.54-4.23-2.31-7.31-2.31h-12.48l-5.39,28.57h13.04c1.72,0,2.96-.52,3.71-1.57.75-1.05,1.39-2.48,1.91-4.28.15-.45.35-.86.62-1.23.26-.38.69-.57,1.29-.57s1.2.1,1.8.28c.6.18,1.12.35,1.57.5-.45,1.73-.84,3.32-1.18,4.78-.34,1.46-.64,2.94-.9,4.45-.27,1.5-.49,3.11-.68,4.84-.19,1.72-.35,3.67-.5,5.84-.75.38-1.73.57-2.92.57-1.05,0-1.69-.23-1.91-.68-.23-.45-.3-.94-.23-1.46.23-1.87.1-3.43-.39-4.67-.49-1.23-1.63-1.86-3.43-1.86h-12.7l-5.28,27.54c-.15,1.06-.1,1.75.17,2.09.26.34.91.51,1.96.51h12.14c2.7,0,5.34-.76,7.92-2.27,2.59-1.52,5.3-4.28,8.15-8.29.38-.6.71-1.06,1.01-1.36.3-.3.75-.45,1.35-.45.67,0,1.33.21,1.97.62.63.42,1.18.84,1.63,1.3l-1.12,2.25c-.38.75-.78,1.6-1.23,2.53s-.9,2.04-1.35,3.32c-.6,1.5-1.03,2.83-1.29,3.99-.26,1.16-.55,2.04-.84,2.64-.22.52-.47.84-.73.96s-.58.17-.95.17c-.83,0-1.56-.04-2.19-.11-.64-.08-1.33-.15-2.08-.23-.75-.07-1.59-.15-2.53-.22-.94-.08-2.08-.11-3.43-.11h-26.3c-1.5,0-3.56.07-6.18.22-2.62.16-5.17.34-7.65.57-.37-.75-.56-1.43-.56-2.03s.21-1.09.62-1.46c.41-.38,1.14-.64,2.19-.79,2.17-.23,3.67-.71,4.5-1.46.82-.75,1.35-1.76,1.57-3.04l11.01-57.36Z"/>
    <path class="cls-1" d="M648.56,75.75l-.08-.15c-.39-.8-.59-1.5-.59-2.14s.23-1.22.7-1.64c.45-.41,1.21-.69,2.32-.85,2.12-.22,3.59-.69,4.36-1.4.78-.72,1.29-1.69,1.5-2.89l11.02-57.37c.28-1.27.1-2.17-.54-2.75-.67-.6-2.01-1.01-3.97-1.23-1.79-.25-2.69-1.09-2.69-2.5,0-.55.12-1.26.35-2.09l.05-.2.2.02c2.97.24,5.67.42,8.25.57,2.6.15,4.88.22,6.79.22h21.02c2.97,0,5.14-.11,6.65-.33,3.18-.47,4.97-.5,5.66.18.35.35.52.96.52,1.86,0,2.39.19,4.76.56,7.04.38,2.34.83,4.68,1.34,6.96l.03.15-.12.1c-.41.32-.95.58-1.6.77-.65.19-1.26.29-1.81.29-.89,0-1.54-.19-1.96-.57-.41-.36-.7-.84-.86-1.41-1.03-3.54-2.44-6.09-4.19-7.58-1.75-1.49-4.15-2.25-7.15-2.25h-12.27l-5.3,28.08h12.74c1.63,0,2.81-.49,3.51-1.47.73-1.02,1.36-2.44,1.87-4.2.16-.48.38-.92.66-1.31.31-.44.81-.67,1.49-.67.61,0,1.23.1,1.87.29.6.19,1.13.36,1.58.51l.22.07-.06.23c-.46,1.76-.84,3.32-1.18,4.77-.35,1.5-.65,2.99-.89,4.43-.26,1.45-.48,3.03-.68,4.82-.18,1.68-.35,3.64-.5,5.83v.14s-.14.06-.14.06c-.79.39-1.81.59-3.03.59s-1.86-.27-2.13-.82c-.25-.49-.33-1.03-.25-1.61.22-1.81.09-3.34-.38-4.54-.45-1.14-1.5-1.7-3.2-1.7h-12.5l-5.25,27.34c-.17,1.21-.03,1.7.12,1.89.15.19.57.41,1.77.41h12.14c2.64,0,5.26-.75,7.8-2.24,2.55-1.5,5.26-4.26,8.07-8.22.38-.61.73-1.07,1.04-1.39.35-.35.86-.53,1.52-.53.72,0,1.43.22,2.1.66.69.45,1.23.89,1.67,1.33l.12.13-1.2,2.41c-.38.75-.78,1.59-1.23,2.53-.44.92-.89,2.03-1.34,3.29-.59,1.48-1.02,2.81-1.28,3.97-.26,1.17-.55,2.08-.86,2.69-.25.58-.53.93-.85,1.07-.29.13-.64.19-1.05.19-.79,0-1.54-.04-2.22-.11-.59-.07-1.23-.14-1.91-.21l-.17-.02c-.74-.07-1.59-.15-2.52-.22-.91-.08-2.03-.11-3.41-.11h-26.3c-1.53,0-3.6.07-6.17.22-2.79.17-5.29.35-7.64.57l-.17.02ZM668.28,9.41l-11.01,57.35c-.23,1.31-.79,2.38-1.65,3.17-.87.79-2.39,1.29-4.64,1.52-.99.14-1.68.38-2.05.72-.36.33-.54.75-.54,1.28s.16,1.11.46,1.77c2.3-.21,4.75-.39,7.48-.55,2.58-.15,4.66-.22,6.2-.22h26.3c1.4,0,2.53.04,3.45.11.94.07,1.78.15,2.53.22l.17.02c.69.07,1.33.14,1.92.21.66.07,1.39.11,2.16.11.34,0,.63-.05.85-.15.14-.06.36-.25.6-.83.3-.6.57-1.46.83-2.6.27-1.18.7-2.54,1.3-4.03.45-1.27.91-2.4,1.36-3.33.45-.94.86-1.78,1.24-2.54l1.04-2.09c-.39-.38-.87-.75-1.46-1.14-.59-.38-1.21-.58-1.83-.58-.52,0-.92.13-1.17.38-.28.29-.61.73-.98,1.32-2.86,4.03-5.63,6.84-8.23,8.37-2.62,1.53-5.32,2.3-8.05,2.3h-12.14c-1.14,0-1.85-.2-2.16-.61-.31-.4-.38-1.13-.22-2.28l5.33-27.76h12.91c1.9,0,3.13.68,3.66,2.01.5,1.28.64,2.89.41,4.79-.07.48,0,.92.2,1.32.17.36.76.55,1.69.55,1.08,0,1.98-.16,2.68-.48.15-2.14.31-4.06.49-5.71.2-1.8.42-3.39.68-4.85.25-1.45.55-2.95.9-4.46.32-1.4.69-2.89,1.12-4.56-.4-.13-.85-.27-1.35-.43-.59-.18-1.17-.27-1.73-.27-.51,0-.88.15-1.09.46-.25.35-.45.75-.59,1.17-.53,1.81-1.18,3.27-1.94,4.34-.79,1.11-2.11,1.68-3.91,1.68h-13.34l.06-.29,5.43-28.77h12.68c3.12,0,5.63.8,7.47,2.37,1.82,1.56,3.29,4.19,4.35,7.82.14.48.38.88.71,1.17.33.3.88.45,1.63.45.51,0,1.07-.09,1.67-.27.53-.15.96-.35,1.31-.59-.5-2.24-.94-4.54-1.31-6.83-.37-2.31-.56-4.71-.56-7.12,0-.74-.13-1.26-.38-1.51-.17-.17-.6-.38-1.62-.38-.89,0-2.1.11-3.62.34-1.53.23-3.73.34-6.72.34h-21.02c-1.92,0-4.21-.07-6.82-.22-2.52-.14-5.16-.32-8.06-.55-.18.71-.28,1.3-.28,1.76,0,1.14.74,1.79,2.26,2,2.09.23,3.47.68,4.23,1.35.78.7,1.01,1.78.7,3.22Z"/>
  </g>
</svg>