<?xml version="1.0" encoding="UTF-8"?>
<svg id="Layer_1" data-name="Layer 1" xmlns="http://www.w3.org/2000/svg" viewBox="0 0 1480.46 973.12">
  <defs>
    <style>
      .cls-1 {
        fill: none;
        stroke: #221f1f;
        stroke-miterlimit: 10;
        stroke-width: .5px;
      }
    </style>
  </defs>
  <path class="cls-1" d="M739.21,958.88c-10.09,0-12.39-15.59-18.55-57.25-8.46-57.21-22.63-152.96-68.61-265.23-27.04-65.91-54.6-112.07-68.63-133.72-42.98-65.98-91.38-140.28-183-195.69-17-10.27-32.39-18.31-44.75-24.77-25.99-13.59-40.29-21.07-38.26-32.51,2.35-12.46,20.61-12.19,50.75-11.68,45.78.75,114.99,1.86,179.33-37.78,80.52-49.59,135.7-131.75,136.25-132.57,4.28-6.45,8.32-12.89,12.18-19.08,16.64-26.58,31.12-49.53,50.49-48.3,17.16,1.18,25.84,19.81,36.83,43.39,3.32,7.15,6.88,14.78,10.95,22.47,42.8,81.12,119.16,125.73,141.55,137.48,62.74,32.88,126.95,32.4,169.46,32.15,31.49-.21,52.4-.36,55.76,13.68,3.81,15.96-20.73,31.08-51.8,50.22-5.85,3.6-11.84,7.29-17.73,11.06-.99.7-115.36,81.43-191.69,186.52-36.7,50.64-54.29,93.12-72.92,138.09l-.44,1.08c-45.42,110.06-59.59,206.07-68.05,263.43-6.17,41.75-8.72,59.03-19.12,59.03ZM353.41,246.54c-14.6,0-26.72.77-27.47,4.73-.92,5.14,15.15,13.54,33.75,23.26,12.46,6.51,27.99,14.63,45.22,25.04,93.32,56.43,142.3,131.63,185.52,197.97,14.46,22.33,42.35,69.01,69.64,135.58,46.39,113.24,60.65,209.65,69.17,267.24,3.41,23.07,6.64,44.92,10.03,49.41,3.57-4.47,6.93-27.2,10.47-51.19,8.52-57.76,22.79-154.43,68.61-265.48l.45-1.08c18-43.45,36.61-88.39,73.9-139.86,77.21-106.3,192.73-187.82,193.89-188.63,6.08-3.89,12.11-7.6,18-11.24,23.56-14.52,50.27-30.97,47.92-40.82-1.74-7.32-22.82-7.15-47.26-7.02-43.35.3-108.88.75-173.54-33.15-22.95-12.03-101.23-57.78-145.21-141.11-4.12-7.82-7.75-15.58-11.14-22.86-9.77-20.99-17.5-37.57-29.52-38.4-14.7-.87-27.41,20.03-42.57,44.25-3.91,6.25-7.98,12.76-12.3,19.28-.56.84-56.74,84.54-138.94,135.16-66.48,40.97-137.26,39.84-184,39.06-4.94-.08-9.91-.16-14.62-.16Z"/>
  <path class="cls-1" d="M1178.96,969.31c-56.11,0-104.23-6.07-143.01-18.05-39.13-12.02-71.71-28.88-96.86-50.13-25.33-21.33-43.91-46.35-55.21-74.37-11.26-27.87-16.97-58.3-16.97-90.45,0-40.59,8.6-82.18,25.57-123.63,16.89-41.39,42.5-79.21,76.12-112.4,33.58-33.12,76.32-60.45,127.03-81.23,50.65-20.81,110.93-31.35,179.18-31.35,35.02,0,69.55,2.65,102.61,7.88,32.92,5.22,65.67,12.28,97.33,20.98l3.6.99-.45,3.72c-1.98,16.23-2.98,32.7-2.98,48.95,0,11.72.5,23.03,1.47,33.61.99,10.71,2.18,20.83,3.49,30.43l.33,2.37-1.83,1.54c-6.8,5.74-16.9,8.65-30.01,8.65-21.35,0-27.83-11.19-29.5-20.56-8.33-33.97-26.09-58.49-52.75-72.59-27.15-14.34-60.24-21.62-98.35-21.62-40.84,0-77.7,8.12-109.54,24.14-31.96,16.12-59.34,37.88-81.35,64.68-22.02,26.78-39.24,58.58-51.19,94.49-11.89,35.87-17.92,74.39-17.92,114.47,0,29.41,4.33,56.32,12.87,79.99,8.43,23.59,20.68,44.07,36.41,60.9,15.61,16.73,34.95,29.79,57.45,38.84,22.55,9.06,47.98,13.65,75.57,13.65,39.43,0,73.35-7.81,100.79-23.23,27.4-15.39,50.94-40.84,69.96-75.65,3.92-5.98,8.1-10.28,12.62-13.08,4.68-2.99,11.71-4.47,21.43-4.47,7.36,0,14.38,1.4,20.88,4.16,6.41,2.68,10.72,4.99,13.19,7.06l2.81,2.37-1.88,3.16c-8.62,14.57-17.35,32.68-25.93,53.82-8.67,21.34-16.07,44.87-22,69.93l-.67,2.78-2.81.5c-16.47,2.88-34.03,5.45-52.19,7.65-18.5,2.28-37.04,4.29-55.09,5.98-18.81,1.76-35.54,3.01-51.15,3.82-15.57.86-29.4,1.29-41.08,1.29ZM1274.79,396.38c-67.11,0-126.29,10.33-175.88,30.7-49.67,20.35-91.46,47.05-124.22,79.38-32.78,32.36-57.73,69.2-74.18,109.5-16.54,40.4-24.92,80.89-24.92,120.34,0,31.03,5.5,60.37,16.34,87.2,10.78,26.69,28.53,50.57,52.76,70.99,24.26,20.49,55.81,36.8,93.82,48.47,37.97,11.73,85.22,17.67,140.46,17.67,11.52,0,25.18-.43,40.62-1.28,15.5-.81,32.11-2.05,50.8-3.8,17.98-1.68,36.43-3.68,54.85-5.95,16.98-2.06,33.43-4.45,48.93-7.11,5.93-24.44,13.23-47.45,21.74-68.41,8.07-19.85,16.27-37.12,24.44-51.4-1.72-.95-4.25-2.19-7.95-3.74-5.45-2.31-11.33-3.48-17.51-3.48-7.91,0-13.56,1.05-16.8,3.13-3.49,2.17-6.78,5.59-9.82,10.21-19.63,35.96-44.3,62.55-73.15,78.75-28.75,16.15-64.1,24.34-105.04,24.34-28.71,0-55.21-4.8-78.81-14.28-23.7-9.52-44.07-23.31-60.56-40.97-16.55-17.7-29.42-39.2-38.24-63.9-8.87-24.6-13.38-52.5-13.38-82.92,0-41.01,6.18-80.45,18.37-117.21,12.28-36.93,30.02-69.65,52.71-97.27,22.79-27.73,51.1-50.24,84.15-66.91,33.07-16.64,71.24-25.07,113.45-25.07,39.54,0,73.99,7.61,102.41,22.62,28.95,15.31,48.19,41.71,57.18,78.46,1.08,6.03,4.37,13.68,21.01,13.68,9.78,0,17.37-1.76,22.57-5.23-1.19-8.96-2.27-18.38-3.19-28.28-1.01-10.86-1.51-22.43-1.51-34.41,0-15.35.88-30.9,2.61-46.27-30.23-8.17-61.43-14.83-92.79-19.79-32.62-5.16-66.68-7.78-101.26-7.78Z"/>
  <path class="cls-1" d="M301.5,972.87c-11.74,0-25.57-.43-41.09-1.29-15.55-.82-32.74-2.1-51.12-3.82-18.05-1.69-36.6-3.71-55.1-5.98-18.05-2.18-35.61-4.76-52.18-7.65l-2.81-.5-.67-2.78c-5.92-25.01-13.32-48.54-22.01-69.93-8.56-21.14-17.29-39.24-25.93-53.82l-1.89-3.18,2.84-2.37c2.5-2.08,6.81-4.38,13.21-7.05,6.46-2.75,13.49-4.15,20.86-4.15,9.72,0,16.74,1.47,21.48,4.5,4.49,2.79,8.67,7.09,12.39,12.74,19.2,35.12,42.73,60.58,70.13,75.96,27.44,15.41,61.35,23.22,100.79,23.22,27.61,0,53.03-4.59,75.57-13.65,22.52-9.04,41.85-22.11,57.44-38.83,15.74-16.82,28-37.31,36.43-60.9,8.55-23.67,12.88-50.58,12.88-79.99,0-40.08-6.03-78.6-17.92-114.48-11.96-35.92-29.19-67.71-51.2-94.48-22.02-26.8-49.38-48.56-81.34-64.68-31.85-16.03-68.7-24.15-109.54-24.15-38.1,0-71.2,7.28-98.37,21.62-26.64,14.09-44.4,38.61-52.79,72.85-1.63,9.11-8.11,20.29-29.45,20.29-13.11,0-23.2-2.91-30.01-8.64l-1.83-1.54.33-2.37c1.31-9.6,2.51-19.72,3.5-30.43.97-10.59,1.47-21.9,1.47-33.62,0-16.28-1.01-32.74-2.99-48.94l-.46-3.72,3.62-.99c31.68-8.71,64.43-15.76,97.35-20.98,33.05-5.23,67.56-7.88,102.6-7.88,68.25,0,128.54,10.55,179.19,31.36,50.7,20.77,93.44,48.1,127.03,81.22,33.62,33.21,59.24,71.03,76.13,112.41,16.95,41.42,25.55,83.01,25.55,123.61,0,32.17-5.71,62.6-16.97,90.46-11.31,28.03-29.9,53.05-55.21,74.37-25.14,21.24-57.73,38.11-96.85,50.13-38.79,11.98-86.92,18.05-143.03,18.05ZM106.31,946.05c15.58,2.67,32.03,5.06,48.92,7.11,18.44,2.27,36.89,4.27,54.86,5.95,18.26,1.71,35.35,2.99,50.77,3.8h.01c15.37.85,29.04,1.28,40.62,1.28,55.25,0,102.51-5.94,140.47-17.66,38-11.68,69.56-27.99,93.81-48.48,24.23-20.4,41.98-44.28,52.76-70.98,10.84-26.82,16.34-56.16,16.34-87.21,0-39.47-8.38-79.95-24.9-120.33-16.45-40.29-41.41-77.13-74.2-109.51-32.78-32.32-74.57-59.02-124.22-79.36-49.59-20.38-108.77-30.71-175.89-30.71-34.57,0-68.64,2.62-101.24,7.78-31.35,4.97-62.55,11.62-92.8,19.79,1.74,15.34,2.62,30.89,2.62,46.27,0,11.98-.51,23.56-1.51,34.42-.92,9.9-2,19.31-3.2,28.28,5.22,3.46,12.8,5.22,22.57,5.22,16.64,0,19.94-7.65,20.97-13.41,9.06-37.02,28.29-63.42,57.21-78.73,28.44-15.02,62.9-22.63,102.43-22.63,42.2,0,80.36,8.43,113.45,25.08,33.04,16.66,61.34,39.18,84.14,66.91,22.68,27.6,40.41,60.32,52.72,97.26,12.19,36.77,18.37,76.21,18.37,117.22,0,30.42-4.51,58.32-13.39,82.93-8.82,24.7-21.7,46.2-38.26,63.89-16.46,17.65-36.83,31.44-60.55,40.96-23.57,9.47-50.07,14.27-78.81,14.27-40.95,0-76.29-8.19-105.04-24.33-28.83-16.2-53.5-42.8-73.31-79.07-2.85-4.29-6.13-7.72-9.59-9.87-3.29-2.11-8.95-3.16-16.85-3.16-6.19,0-12.08,1.17-17.49,3.47-3.72,1.55-6.25,2.79-7.98,3.75,8.17,14.29,16.38,31.56,24.43,51.4,8.52,21,15.83,44,21.75,68.41Z"/>
  <path class="cls-1" d="M739.26,528.51c-3.41,0-4.19-5.27-6.28-19.37-2.86-19.35-7.66-51.75-23.21-89.72-9.15-22.3-18.47-37.91-23.22-45.24-14.54-22.32-30.91-47.46-61.91-66.2-5.75-3.47-10.96-6.19-15.14-8.38-8.79-4.6-13.63-7.13-12.94-11,.79-4.22,6.97-4.12,17.17-3.95,15.49.25,38.9.63,60.66-12.78,27.24-16.78,45.91-44.57,46.09-44.85,1.45-2.18,2.81-4.36,4.12-6.46,5.63-8.99,10.53-16.75,17.08-16.34,5.81.4,8.74,6.7,12.46,14.68,1.12,2.42,2.33,5,3.7,7.6,14.48,27.44,40.31,42.53,47.88,46.51,21.22,11.12,42.95,10.96,57.33,10.88,10.65-.07,17.73-.12,18.86,4.63,1.29,5.4-7.01,10.51-17.52,16.99-1.98,1.22-4.01,2.47-6,3.74-.34.24-39.02,27.55-64.85,63.1-12.41,17.13-18.37,31.5-24.67,46.71l-.15.37c-15.36,37.23-20.16,69.71-23.02,89.12-2.09,14.12-2.95,19.97-6.47,19.97ZM608.74,287.53c-4.94,0-9.04.26-9.29,1.6-.31,1.74,5.13,4.58,11.42,7.87,4.22,2.2,9.47,4.95,15.3,8.47,31.57,19.09,48.14,44.53,62.76,66.97,4.89,7.55,14.33,23.35,23.56,45.87,15.69,38.31,20.52,70.92,23.4,90.41,1.15,7.8,2.25,15.19,3.39,16.72,1.21-1.51,2.34-9.2,3.54-17.32,2.88-19.54,7.71-52.24,23.21-89.81l.15-.37c6.09-14.7,12.38-29.9,25-47.31,26.12-35.96,65.2-63.54,65.59-63.81,2.06-1.32,4.1-2.57,6.09-3.8,7.97-4.91,17-10.48,16.21-13.81-.59-2.48-7.72-2.42-15.99-2.37-14.67.1-36.83.25-58.71-11.21-7.76-4.07-34.25-19.55-49.12-47.74-1.4-2.65-2.62-5.27-3.77-7.73-3.31-7.1-5.92-12.71-9.99-12.99-4.97-.29-9.27,6.77-14.4,14.97-1.32,2.12-2.7,4.32-4.16,6.52-.19.28-19.19,28.6-47,45.72-22.49,13.86-46.43,13.48-62.25,13.22-1.67-.03-3.35-.06-4.95-.06Z"/>
  <path class="cls-1" d="M740.37,204.23c.81-65.1,1.62-130.2,2.43-195.3"/>
  <path class="cls-1" d="M745.25,205.37c.77-65.48,1.53-130.96,2.3-196.44"/>
  <path class="cls-1" d="M734.27,933.1c.79-135.15,1.57-270.29,2.36-405.44"/>
  <path class="cls-1" d="M743.76,933.1c-.55-135.59-1.11-271.19-1.66-406.78"/>
  <path class="cls-1" d="M325.94,251.28c41.37,12.33,89.79,23.88,144.37,31.77,46.98,6.79,90.19,9.65,128.53,10.27"/>
  <path class="cls-1" d="M335.12,247.43c41.28,12.43,89.7,24.03,144.37,31.77,42.5,6.01,81.81,8.7,117.08,9.4"/>
  <path class="cls-1" d="M1152.23,250.42c-41.79,12.26-90.17,23.7-144.37,31.77-45.82,6.82-88.22,10.09-126.26,11.22"/>
  <path class="cls-1" d="M1148.17,246.58c-43.46,12.43-93.55,23.88-149.5,31.77-41.93,5.91-81.07,8.97-116.75,10.17"/>
  <path class="cls-1" d="M736.65,513.86c1.26-102.24,2.52-204.48,3.78-306.72"/>
  <path class="cls-1" d="M742.1,515.61c1.02-101.83,2.04-203.66,3.06-305.49"/>
  <path class="cls-1" d="M599.45,289.13c38.72,7.51,86.83,13.62,142.14,13.46,53.27-.16,99.77-6.09,137.49-13.39"/>
  <path class="cls-1" d="M603.81,293.31c37.9,7.51,85.01,13.62,139.15,13.46,52.16-.16,97.67-6.09,134.6-13.39"/>
</svg>