<?xml version="1.0" encoding="UTF-8"?>
<svg id="Layer_1" data-name="Layer 1" xmlns="http://www.w3.org/2000/svg" viewBox="0 0 482.03 120.31">
  <defs>
    <style>
      .cls-1 {
        fill: #231f20;
        stroke: #231f20;
        stroke-miterlimit: 10;
        stroke-width: .52px;
      }
    </style>
  </defs>
  <path class="cls-1" d="M128.96,51.56c-4.21,0-7.77-.53-10.69-1.6-2.92-1.07-5.31-2.54-7.19-4.42-1.88-1.88-3.23-4.05-4.07-6.51-.84-2.46-1.26-5.11-1.26-7.95,0-3.6.63-7.24,1.9-10.92,1.27-3.68,3.16-6.99,5.67-9.93,2.51-2.94,5.67-5.34,9.47-7.19s8.26-2.78,13.39-2.78c2.63,0,5.2.24,7.68.7,2.48.47,4.92,1.09,7.3,1.87-.15,1.48-.23,2.96-.23,4.43,0,1.07.04,2.08.12,3.04.07.96.16,1.88.27,2.74-.46.46-1.14.69-2.05.69-1.12,0-1.75-.5-1.9-1.52-.66-3.2-2.04-5.45-4.14-6.77-2.1-1.32-4.63-1.98-7.57-1.98-3.15,0-5.95.73-8.41,2.2-2.46,1.47-4.54,3.43-6.24,5.89-1.7,2.46-3,5.32-3.92,8.59-.91,3.27-1.37,6.73-1.37,10.37,0,2.69.33,5.12.99,7.29.66,2.18,1.6,4.04,2.81,5.59,1.22,1.55,2.7,2.74,4.45,3.57s3.69,1.25,5.82,1.25c3.04,0,5.63-.71,7.76-2.13,2.13-1.42,3.93-3.73,5.4-6.92.25-.46.53-.8.84-1.03.3-.23.78-.34,1.44-.34.51,0,.99.11,1.44.34s.76.42.91.57c-.66,1.32-1.32,2.94-1.98,4.87-.66,1.93-1.22,4.03-1.67,6.32-1.22.25-2.52.48-3.92.69-1.4.2-2.78.38-4.15.53-1.37.15-2.65.26-3.84.34-1.19.08-2.22.12-3.08.12Z"/>
  <path class="cls-1" d="M164.33,6.43c.2-.92.06-1.59-.42-2.02-.48-.43-1.41-.72-2.78-.87-1.12-.15-1.67-.66-1.67-1.52,0-.36.07-.81.23-1.37,1.93.15,3.79.28,5.59.38s3.34.15,4.6.15h14.23c1.98,0,3.48-.07,4.53-.23,1.04-.15,1.86-.23,2.47-.23s1.01.11,1.22.31c.2.2.3.58.3,1.14,0,1.62.12,3.22.38,4.79s.56,3.14.91,4.72c-.25.2-.6.37-1.02.49-.43.13-.83.19-1.18.19-.56,0-.96-.12-1.22-.35-.25-.23-.43-.52-.53-.87-.71-2.44-1.67-4.18-2.89-5.21-1.22-1.04-2.87-1.56-4.95-1.56h-8.44l-3.65,19.34h8.82c1.17,0,2-.36,2.51-1.07.51-.71.94-1.67,1.29-2.89.1-.3.24-.58.42-.84.18-.25.47-.38.87-.38s.81.07,1.22.19.76.24,1.07.34c-.3,1.17-.57,2.25-.8,3.23-.23.99-.43,1.99-.61,3.01-.18,1.01-.33,2.11-.46,3.27-.13,1.17-.24,2.49-.34,3.95-.51.25-1.17.38-1.98.38-.71,0-1.14-.15-1.29-.46-.15-.3-.2-.63-.15-.99.15-1.27.06-2.32-.26-3.16-.33-.84-1.1-1.26-2.32-1.26h-8.6l-3.58,18.64c-.1.72-.06,1.19.12,1.42.18.23.62.35,1.33.35h8.22c1.82,0,3.61-.51,5.36-1.54,1.75-1.03,3.59-2.89,5.51-5.61.25-.41.48-.72.69-.92.2-.2.51-.31.91-.31.46,0,.9.14,1.33.42.43.28.8.57,1.1.88l-.76,1.52c-.25.51-.53,1.08-.84,1.71s-.61,1.38-.91,2.25c-.41,1.01-.7,1.91-.87,2.7s-.37,1.38-.57,1.79c-.15.36-.32.57-.49.65s-.39.12-.65.12c-.56,0-1.05-.03-1.48-.08-.43-.05-.9-.1-1.41-.15-.51-.05-1.08-.1-1.71-.15-.63-.05-1.41-.08-2.32-.08h-17.8c-1.02,0-2.41.05-4.18.15-1.78.11-3.5.23-5.17.38-.25-.51-.38-.96-.38-1.37s.14-.73.42-.99.77-.43,1.48-.53c1.47-.15,2.48-.48,3.04-.99.56-.51.91-1.19,1.07-2.05l7.45-38.81Z"/>
  <path class="cls-1" d="M199.43,50.79c-1.7.11-3.39.23-5.06.38-.1-.25-.18-.49-.23-.72-.05-.23-.08-.47-.08-.72,0-.3.1-.57.3-.8s.58-.39,1.14-.49c1.27-.2,2.26-.53,2.97-.99.71-.46,1.17-1.19,1.37-2.21l7.45-38.81c.2-.92,0-1.6-.61-2.06-.61-.46-1.57-.78-2.89-.99-.96-.15-1.44-.56-1.44-1.21,0-.21.02-.43.08-.69.05-.25.12-.53.23-.84,1.93.21,3.82.35,5.67.42,1.85.07,3.41.11,4.68.11,1.42,0,3.17-.05,5.25-.15,2.08-.1,3.98-.23,5.7-.38.1.36.18.65.23.88.05.23.08.47.08.72,0,.76-.58,1.22-1.75,1.37-2.03.25-3.55.65-4.56,1.18-1.02.53-1.65,1.51-1.9,2.94l-7.23,37.96c-.1.61-.06,1.06.12,1.33.18.28.67.42,1.48.42h7.61c2.13,0,4.09-.58,5.89-1.73,1.8-1.15,3.66-3.11,5.59-5.87.25-.41.48-.72.68-.92.2-.21.51-.31.91-.31.46,0,.9.14,1.33.42.43.28.8.57,1.1.88-.25.56-.53,1.14-.84,1.75-.25.56-.54,1.18-.87,1.87-.33.69-.65,1.46-.95,2.32-.41,1.01-.7,1.91-.87,2.7-.18.79-.37,1.38-.57,1.79-.15.36-.32.57-.49.65s-.39.12-.65.12c-.56,0-1.05-.03-1.48-.08-.43-.05-.9-.1-1.41-.15-.51-.05-1.08-.1-1.71-.15-.63-.05-1.41-.08-2.32-.08h-17.8c-1.07,0-2.45.05-4.14.15Z"/>
  <path class="cls-1" d="M249.59,6.43c.2-.92.06-1.59-.42-2.02-.48-.43-1.41-.72-2.78-.87-1.12-.15-1.67-.66-1.67-1.52,0-.36.07-.81.23-1.37,1.93.15,3.79.28,5.59.38s3.34.15,4.6.15h14.23c1.98,0,3.48-.07,4.53-.23,1.04-.15,1.86-.23,2.47-.23s1.01.11,1.22.31c.2.2.3.58.3,1.14,0,1.62.12,3.22.38,4.79.25,1.57.56,3.14.91,4.72-.25.2-.6.37-1.02.49-.43.13-.83.19-1.18.19-.56,0-.96-.12-1.22-.35-.25-.23-.43-.52-.53-.87-.71-2.44-1.67-4.18-2.89-5.21-1.22-1.04-2.87-1.56-4.95-1.56h-8.44l-3.65,19.34h8.82c1.17,0,2-.36,2.51-1.07.51-.71.94-1.67,1.29-2.89.1-.3.24-.58.42-.84.18-.25.47-.38.87-.38s.81.07,1.22.19.76.24,1.07.34c-.3,1.17-.57,2.25-.8,3.23-.23.99-.43,1.99-.61,3.01-.18,1.01-.33,2.11-.46,3.27-.13,1.17-.24,2.49-.34,3.95-.51.25-1.17.38-1.98.38-.71,0-1.14-.15-1.29-.46-.15-.3-.2-.63-.15-.99.15-1.27.06-2.32-.26-3.16-.33-.84-1.1-1.26-2.32-1.26h-8.6l-3.58,18.64c-.1.72-.06,1.19.12,1.42.18.23.62.35,1.33.35h8.22c1.82,0,3.61-.51,5.36-1.54,1.75-1.03,3.59-2.89,5.51-5.61.25-.41.48-.72.69-.92.2-.2.51-.31.91-.31.46,0,.9.14,1.33.42.43.28.8.57,1.1.88l-.76,1.52c-.25.51-.53,1.08-.84,1.71s-.61,1.38-.91,2.25c-.41,1.01-.7,1.91-.87,2.7s-.37,1.38-.57,1.79c-.15.36-.32.57-.49.65s-.39.12-.65.12c-.56,0-1.05-.03-1.48-.08-.43-.05-.9-.1-1.41-.15-.51-.05-1.08-.1-1.71-.15-.63-.05-1.41-.08-2.32-.08h-17.8c-1.02,0-2.41.05-4.18.15-1.78.11-3.5.23-5.17.38-.25-.51-.38-.96-.38-1.37s.14-.73.42-.99.77-.43,1.48-.53c1.47-.15,2.48-.48,3.04-.99.56-.51.91-1.19,1.07-2.05l7.45-38.81Z"/>
  <path class="cls-1" d="M287.63,14.34c0-2.13.46-4.06,1.37-5.78.91-1.73,2.12-3.2,3.61-4.42,1.5-1.22,3.21-2.17,5.14-2.86,1.92-.69,3.93-1.03,6.01-1.03,2.84,0,5.39.36,7.64,1.07,2.26.71,4.27,1.5,6.05,2.36-.15,1.22-.28,2.36-.38,3.42-.1,1.07-.15,2.11-.15,3.12v1.18c0,.38.03.78.08,1.18-.46.36-1.07.53-1.83.53-.51,0-.95-.12-1.33-.34-.38-.23-.62-.65-.72-1.26-.46-2.69-1.54-4.7-3.23-6.05-1.7-1.34-3.82-2.02-6.35-2.02-1.02,0-2,.14-2.97.42-.96.28-1.82.72-2.58,1.3-.76.59-1.37,1.32-1.83,2.21-.46.89-.68,1.94-.68,3.16,0,1.07.24,2.05.72,2.97.48.91,1.11,1.79,1.9,2.63.79.84,1.69,1.66,2.7,2.47,1.01.81,2.05,1.63,3.12,2.44,1.22.96,2.43,1.95,3.65,2.97,1.22,1.02,2.31,2.13,3.27,3.35.96,1.22,1.75,2.54,2.36,3.96.61,1.42.91,3.02.91,4.79,0,2.59-.53,4.84-1.6,6.77-1.07,1.93-2.47,3.54-4.22,4.83-1.75,1.3-3.77,2.26-6.05,2.89-2.28.63-4.64.95-7.07.95-1.52,0-3-.1-4.45-.3-1.45-.21-2.78-.46-3.99-.76-1.22-.3-2.27-.62-3.16-.95s-1.56-.65-2.02-.95c.15-1.47.29-3.03.42-4.68.13-1.65.19-3.23.19-4.76,0-.61-.01-1.19-.04-1.75-.03-.56-.06-1.09-.12-1.6.3-.1.63-.2.99-.3s.76-.15,1.22-.15c.71,0,1.16.17,1.37.49.2.33.38.83.53,1.48.56,3.46,1.56,6.1,3,7.96,1.44,1.85,3.66,2.78,6.66,2.78,1.26,0,2.48-.19,3.65-.57,1.17-.38,2.21-.95,3.12-1.71.91-.76,1.65-1.7,2.21-2.82s.84-2.41.84-3.88c0-1.27-.24-2.43-.72-3.5-.48-1.07-1.13-2.06-1.94-2.97-.81-.91-1.74-1.76-2.78-2.55s-2.09-1.58-3.16-2.4c-1.17-.86-2.31-1.74-3.42-2.63-1.12-.89-2.12-1.86-3-2.93-.89-1.07-1.6-2.23-2.13-3.5-.53-1.27-.8-2.69-.8-4.26Z"/>
  <path class="cls-1" d="M341.78,4.37h-5.4c-1.12,0-2.09.14-2.93.42-.84.28-1.6.7-2.28,1.25-.68.56-1.36,1.26-2.02,2.1-.66.84-1.39,1.84-2.21,3-.3.41-.63.69-.99.84-.36.15-.73.23-1.14.23s-.78-.09-1.1-.27c-.33-.17-.54-.31-.65-.42.4-.86.75-1.71,1.03-2.55.28-.84.6-1.79.95-2.86.3-1.01.53-1.85.68-2.51s.33-1.27.53-1.83c.25-.76.71-1.14,1.37-1.14s1.59.09,2.78.27c1.19.18,3,.26,5.44.26h22.13c1.27,0,2.32-.02,3.16-.07.84-.05,1.55-.1,2.13-.15.58-.05,1.08-.1,1.48-.15.41-.05.78-.08,1.14-.08.66,0,1.02.31,1.07.92.1.76.15,1.44.15,2.05s.08,1.47.23,2.59c.1.86.23,1.71.38,2.55.15.84.35,1.69.61,2.55-.25.15-.54.32-.87.49-.33.18-.75.26-1.26.26-.81,0-1.34-.36-1.6-1.07-.81-2.39-1.88-4.1-3.19-5.13-1.32-1.04-3.09-1.56-5.32-1.56h-5.32l-7.6,40.49c-.2.92.02,1.63.68,2.14.66.5,1.83.91,3.5,1.21.71.11,1.19.27,1.44.49.25.23.38.55.38.95,0,.2-.03.43-.08.68-.05.25-.13.53-.23.84-1.88-.15-3.7-.28-5.48-.38-1.78-.1-3.58-.15-5.4-.15-1.57,0-3.32.05-5.25.15-1.93.11-3.73.23-5.4.38-.1-.25-.18-.51-.23-.76-.05-.25-.08-.5-.08-.76,0-.81.43-1.3,1.29-1.45,1.77-.25,3.14-.65,4.11-1.18.96-.53,1.55-1.31,1.75-2.32l7.61-40.34Z"/>
  <path class="cls-1" d="M380.35,6.5c.2-.92.12-1.63-.27-2.14-.38-.5-1.31-.84-2.78-.99-1.12-.15-1.67-.56-1.67-1.21,0-.36.12-.86.38-1.53,1.88.15,3.63.28,5.25.38s3.02.15,4.19.15c1.01,0,2.43-.04,4.26-.11,1.83-.08,3.62-.22,5.4-.42.15.56.23,1.04.23,1.45s-.11.71-.34.91-.7.36-1.41.46c-1.42.21-2.42.53-3,.99-.58.46-.98,1.19-1.18,2.21l-7.3,38.74c-.2,1.02-.05,1.71.46,2.1.51.38,1.44.7,2.81.95.96.2,1.44.66,1.44,1.37,0,.41-.07.86-.23,1.37-1.88-.15-3.73-.28-5.55-.38-1.82-.1-3.32-.15-4.49-.15-1.02,0-2.35.05-3.99.15-1.65.11-3.34.23-5.06.38-.15-.51-.23-.96-.23-1.37s.09-.71.27-.91.54-.36,1.1-.46c1.32-.2,2.31-.55,2.97-1.03.66-.48,1.09-1.2,1.29-2.17l7.45-38.74Z"/>
  <path class="cls-1" d="M421.35,34.2h-14.45l-5.86,10.73c-.2.36-.3.74-.3,1.14,0,.81.49,1.42,1.48,1.83.99.41,2.17.71,3.54.91.96.15,1.44.51,1.44,1.07,0,.36-.08.79-.23,1.3-1.93-.15-3.64-.28-5.13-.38-1.5-.1-2.9-.15-4.22-.15-.96,0-2.04.02-3.23.08-1.19.05-2.72.2-4.6.46-.1-.25-.18-.49-.23-.72-.05-.23-.07-.44-.07-.65,0-.36.14-.64.42-.87s.77-.39,1.48-.49c2.54-.46,4.23-1.42,5.1-2.89L420.59,1.32c.41-.71.96-1.07,1.67-1.07.66,0,1.22.18,1.67.53l8.52,44.6c.2.96.67,1.67,1.41,2.14.73.46,1.61.73,2.63.84.61.1,1.05.23,1.33.38.28.15.42.51.42,1.07,0,.15-.01.35-.04.57-.03.23-.06.47-.12.72-1.32-.1-2.74-.2-4.26-.31-1.52-.1-3.14-.15-4.87-.15-.71,0-1.5,0-2.36.04-.86.02-1.75.06-2.66.11-.91.05-1.8.12-2.66.19s-1.65.14-2.36.19c-.15-.46-.23-.89-.23-1.3,0-.3.1-.57.3-.8.2-.23.58-.39,1.14-.49,2.08-.31,3.12-1.19,3.12-2.67,0-.35-.03-.6-.07-.76l-1.83-10.96ZM420.74,30.7l-2.74-17.43-9.2,17.43h11.94Z"/>
  <path class="cls-1" d="M444.96,50.79c-1.7.11-3.39.23-5.06.38-.1-.25-.18-.49-.23-.72-.05-.23-.08-.47-.08-.72,0-.3.1-.57.3-.8.2-.23.58-.39,1.14-.49,1.27-.2,2.26-.53,2.97-.99s1.17-1.19,1.37-2.21l7.45-38.81c.2-.92,0-1.6-.61-2.06-.61-.46-1.57-.78-2.89-.99-.96-.15-1.44-.56-1.44-1.21,0-.21.02-.43.08-.69.05-.25.12-.53.23-.84,1.93.21,3.82.35,5.67.42,1.85.07,3.41.11,4.68.11,1.42,0,3.17-.05,5.25-.15,2.08-.1,3.98-.23,5.7-.38.1.36.18.65.23.88.05.23.08.47.08.72,0,.76-.58,1.22-1.75,1.37-2.03.25-3.55.65-4.56,1.18-1.02.53-1.65,1.51-1.9,2.94l-7.23,37.96c-.1.61-.06,1.06.12,1.33.18.28.67.42,1.48.42h7.61c2.13,0,4.09-.58,5.89-1.73,1.8-1.15,3.66-3.11,5.59-5.87.25-.41.48-.72.68-.92.2-.21.51-.31.91-.31.46,0,.9.14,1.33.42.43.28.8.57,1.1.88-.25.56-.53,1.14-.84,1.75-.25.56-.54,1.18-.87,1.87-.33.69-.65,1.46-.95,2.32-.41,1.01-.7,1.91-.87,2.7s-.37,1.38-.57,1.79c-.15.36-.32.57-.49.65s-.39.12-.65.12c-.56,0-1.05-.03-1.48-.08-.43-.05-.9-.1-1.41-.15-.51-.05-1.08-.1-1.71-.15-.63-.05-1.41-.08-2.32-.08h-17.8c-1.07,0-2.45.05-4.14.15Z"/>
  <path class="cls-1" d="M23.46,120.05c-4.21,0-7.77-.53-10.69-1.6-2.92-1.07-5.31-2.54-7.19-4.42-1.88-1.88-3.23-4.05-4.07-6.51-.84-2.46-1.26-5.11-1.26-7.95,0-3.6.63-7.24,1.9-10.92,1.27-3.68,3.16-6.99,5.67-9.93,2.51-2.94,5.67-5.34,9.47-7.19,3.8-1.85,8.26-2.78,13.39-2.78,2.63,0,5.2.24,7.68.7,2.48.47,4.92,1.09,7.3,1.87-.15,1.48-.23,2.96-.23,4.43,0,1.07.04,2.08.12,3.04.07.96.16,1.88.27,2.74-.46.46-1.14.69-2.05.69-1.12,0-1.75-.5-1.9-1.52-.66-3.2-2.04-5.45-4.14-6.77-2.1-1.32-4.63-1.98-7.57-1.98-3.15,0-5.95.73-8.41,2.2-2.46,1.47-4.54,3.43-6.24,5.89-1.7,2.46-3,5.32-3.92,8.59-.91,3.27-1.37,6.73-1.37,10.37,0,2.69.33,5.12.99,7.29.66,2.18,1.6,4.04,2.81,5.59s2.7,2.74,4.45,3.57c1.75.84,3.69,1.25,5.82,1.25,3.04,0,5.63-.71,7.76-2.13,2.13-1.42,3.93-3.73,5.4-6.92.25-.46.53-.8.84-1.03.3-.23.78-.34,1.44-.34.51,0,.99.11,1.44.34s.76.42.91.57c-.66,1.32-1.32,2.94-1.98,4.87-.66,1.93-1.22,4.03-1.67,6.32-1.22.25-2.52.48-3.92.69-1.4.2-2.78.38-4.15.53-1.37.15-2.65.26-3.84.34-1.19.08-2.22.12-3.08.12Z"/>
  <path class="cls-1" d="M71.99,102.7h-14.45l-5.86,10.73c-.2.36-.3.74-.3,1.14,0,.81.49,1.42,1.48,1.83.99.41,2.17.71,3.54.91.96.15,1.44.51,1.44,1.07,0,.36-.08.79-.23,1.3-1.93-.15-3.64-.28-5.13-.38-1.5-.1-2.9-.15-4.22-.15-.96,0-2.04.02-3.23.08-1.19.05-2.72.2-4.6.46-.1-.25-.18-.49-.23-.72-.05-.23-.07-.44-.07-.65,0-.36.14-.64.42-.87s.77-.39,1.48-.49c2.54-.46,4.23-1.42,5.1-2.89l24.11-44.22c.41-.71.96-1.07,1.67-1.07.66,0,1.22.18,1.67.53l8.52,44.6c.2.96.67,1.67,1.41,2.14.73.46,1.61.73,2.63.84.61.1,1.05.23,1.33.38.28.15.42.51.42,1.07,0,.15-.01.35-.04.57-.03.23-.06.47-.12.72-1.32-.1-2.74-.2-4.26-.31-1.52-.1-3.14-.15-4.87-.15-.71,0-1.5,0-2.36.04-.86.02-1.75.06-2.66.11-.91.05-1.8.12-2.66.19-.86.08-1.65.14-2.36.19-.15-.46-.23-.89-.23-1.3,0-.3.1-.57.3-.8.2-.23.58-.39,1.14-.49,2.08-.31,3.12-1.19,3.12-2.67,0-.35-.03-.6-.07-.76l-1.83-10.96ZM71.38,99.2l-2.74-17.43-9.2,17.43h11.94Z"/>
  <path class="cls-1" d="M146.07,69.67c1.47,0,2.88-.04,4.22-.11,1.34-.08,2.88-.22,4.6-.42.15.56.23,1.02.23,1.37,0,.81-.53,1.32-1.6,1.52-1.02.25-1.8.55-2.36.87-.56.33-.89.93-.99,1.79l-5.78,39.12c-.15.96.05,1.66.61,2.09.56.43,1.34.75,2.36.95.56.1.99.25,1.29.46.3.21.46.53.46.99,0,.36-.08.79-.23,1.3-1.88-.15-3.7-.27-5.48-.34-1.78-.08-3.27-.12-4.49-.12-1.07,0-2.41.05-4.03.15-1.62.11-3.3.23-5.02.38-.1-.31-.18-.57-.23-.8-.05-.23-.08-.44-.08-.65,0-.76.56-1.21,1.67-1.37,1.37-.15,2.37-.47,3-.95.63-.48,1.03-1.2,1.18-2.17l4.79-31.2-19.4,35.84c-.3.56-.62.98-.95,1.26-.33.28-.77.42-1.33.42-.51,0-.93-.05-1.26-.15s-.62-.23-.87-.38l-8.98-38.74-7.6,32.57c-.25,1.02-.08,1.79.53,2.32.61.53,1.8.93,3.57,1.18.76.1,1.28.26,1.56.49s.42.55.42.95c0,.31-.08.76-.23,1.37-1.88-.15-3.46-.28-4.75-.38-1.29-.1-2.42-.15-3.38-.15-.86,0-1.91.04-3.16.12-1.24.07-2.67.21-4.3.42-.1-.25-.18-.49-.23-.72-.05-.23-.07-.44-.07-.65,0-.36.11-.63.34-.84s.65-.36,1.26-.46c2.38-.41,3.8-1.5,4.26-3.27l9.28-39.2c.15-.56.09-1.07-.19-1.52s-1.05-.81-2.32-1.07c-.61-.1-1.02-.25-1.26-.46-.23-.2-.34-.51-.34-.91,0-.36.08-.84.23-1.45.91.11,1.77.19,2.59.27.81.08,1.61.12,2.39.15.78.02,1.61.05,2.47.07.86.03,1.83.04,2.89.04s1.81.19,2.24.57c.43.38.7.88.8,1.49l7.83,35.92,18.79-35.39c.25-.51.51-.93.76-1.26.25-.33.56-.6.91-.8.36-.2.78-.34,1.29-.42.51-.08,1.19-.12,2.05-.12Z"/>
  <path class="cls-1" d="M186.08,68.76c3.24,0,6.11.52,8.6,1.56,2.48,1.04,4.56,2.46,6.24,4.26,1.67,1.8,2.94,3.94,3.8,6.39.86,2.46,1.29,5.12,1.29,7.96,0,4.62-.74,8.83-2.21,12.63-1.47,3.81-3.49,7.08-6.05,9.82-2.56,2.74-5.59,4.87-9.09,6.39-3.5,1.52-7.28,2.28-11.33,2.28-3.15,0-5.91-.56-8.29-1.67-2.39-1.11-4.39-2.61-6.01-4.49-1.62-1.88-2.84-4.06-3.65-6.54-.81-2.49-1.22-5.07-1.22-7.76,0-4.06.7-7.95,2.09-11.68,1.39-3.73,3.33-7.02,5.82-9.86,2.48-2.84,5.43-5.1,8.82-6.78,3.4-1.67,7.12-2.51,11.18-2.51ZM179.23,116.62c2.94,0,5.48-.78,7.61-2.36,2.13-1.57,3.89-3.63,5.29-6.17,1.39-2.53,2.42-5.39,3.08-8.56.66-3.17.99-6.38.99-9.63,0-5.58-.91-9.93-2.74-13.05-1.83-3.12-4.46-4.68-7.91-4.68-3.04,0-5.67.77-7.87,2.32-2.21,1.55-4.03,3.59-5.48,6.13-1.44,2.54-2.51,5.46-3.19,8.75-.68,3.3-1.03,6.72-1.03,10.27,0,5.33.9,9.49,2.7,12.48,1.8,2.99,4.65,4.49,8.56,4.49Z"/>
  <path class="cls-1" d="M250.74,109.55c-1.02,2.18-2.35,4.05-3.99,5.59-1.65,1.55-3.65,2.75-6.01,3.61-2.36.86-5.16,1.3-8.41,1.3-5.53,0-9.84-1.2-12.93-3.61-3.1-2.41-4.64-5.87-4.64-10.39,0-.66.03-1.32.08-1.98.05-.66.15-1.34.3-2.06l5.17-26.79c.2-.91.09-1.64-.34-2.17-.43-.53-1.38-.87-2.85-1.03-1.12-.15-1.67-.61-1.67-1.37,0-.36.13-.86.38-1.53,1.93.21,3.69.35,5.29.42,1.6.07,3,.11,4.22.11.51,0,1.15,0,1.94-.04.79-.02,1.62-.05,2.51-.07.89-.03,1.79-.08,2.7-.15.91-.08,1.8-.16,2.66-.27.05.25.09.48.12.69.02.21.04.41.04.61,0,.51-.14.89-.42,1.14s-.85.43-1.71.53c-1.47.2-2.42.52-2.85.95s-.75,1.1-.95,2.02l-5.25,26.41c-.41,2.03-.61,3.78-.61,5.25,0,3.04.84,5.37,2.51,6.96,1.67,1.6,4.51,2.39,8.52,2.39,3.65,0,6.76-1.09,9.32-3.27,2.56-2.18,4.32-5.78,5.29-10.81l5.02-26.33c.15-.86,0-1.66-.46-2.39-.46-.73-1.34-1.2-2.66-1.41-.76-.1-1.28-.25-1.56-.46-.28-.2-.42-.5-.42-.91,0-.31.07-.76.23-1.37,1.87.15,3.29.28,4.26.38.96.1,1.93.15,2.89.15.86,0,1.84,0,2.93-.04,1.09-.02,2.45-.13,4.07-.34.1.25.18.49.23.72.05.23.07.44.07.65,0,.36-.11.63-.34.84-.23.2-.65.36-1.26.46-2.23.36-3.5,1.4-3.8,3.12l-5.17,27.17c-.61,2.69-1.42,5.13-2.43,7.31Z"/>
  <path class="cls-1" d="M276.29,113.88c-.1.51-.03.93.23,1.26.25.33.6.6,1.03.8.43.2.9.36,1.41.46.51.1.99.18,1.44.23.86.11,1.46.28,1.79.53.33.25.49.56.49.92,0,.2-.03.46-.08.76-.05.31-.1.59-.15.84-.91-.05-1.91-.12-3-.19-1.09-.08-2.14-.14-3.16-.19-1.02-.05-1.99-.09-2.93-.11-.94-.03-1.71-.04-2.32-.04-1.02,0-2.38.05-4.11.15-1.72.11-3.42.23-5.09.38-.1-.25-.17-.53-.19-.84-.02-.3-.04-.56-.04-.76,0-.46.2-.77.61-.95.41-.17.91-.31,1.52-.42.96-.15,1.75-.43,2.36-.84.61-.41,1.01-1.12,1.22-2.13l7.45-38.81c.2-.92.06-1.59-.42-2.02-.48-.43-1.41-.72-2.78-.87-1.12-.15-1.67-.66-1.67-1.52,0-.36.07-.81.23-1.37,1.93.15,3.79.28,5.59.38,1.8.1,3.34.15,4.6.15h14.23c1.98,0,3.48-.07,4.53-.23,1.04-.15,1.86-.23,2.47-.23s1.01.11,1.22.31c.2.2.3.58.3,1.14,0,1.62.12,3.22.38,4.79.25,1.57.56,3.14.91,4.72-.25.2-.6.37-1.02.49-.43.13-.83.19-1.18.19-.56,0-.96-.12-1.22-.35-.25-.23-.43-.52-.53-.87-.71-2.44-1.67-4.18-2.89-5.21-1.22-1.04-2.87-1.56-4.95-1.56h-8.44l-3.8,20.09h8.82c1.17,0,2-.36,2.51-1.07s.94-1.67,1.29-2.89c.1-.31.24-.59.42-.84s.47-.38.88-.38.81.06,1.22.19c.41.12.76.24,1.07.34-.3,1.17-.57,2.25-.8,3.23-.23.99-.43,1.99-.61,3-.18,1.02-.33,2.11-.46,3.27-.13,1.17-.24,2.49-.34,3.96-.51.25-1.17.38-1.98.38-.71,0-1.14-.15-1.29-.46-.15-.3-.2-.63-.15-.99.15-1.27.06-2.32-.27-3.16-.33-.84-1.1-1.26-2.32-1.26h-8.59l-3.42,17.58Z"/>
  <path class="cls-1" d="M307.82,119.29c-1.7.11-3.39.23-5.06.38-.1-.25-.18-.49-.23-.72-.05-.23-.08-.47-.08-.72,0-.3.1-.57.3-.8s.58-.39,1.14-.49c1.27-.2,2.26-.53,2.97-.99s1.17-1.19,1.37-2.21l7.45-38.81c.2-.92,0-1.6-.61-2.06-.61-.46-1.57-.78-2.89-.99-.96-.15-1.44-.56-1.44-1.21,0-.21.02-.43.08-.69.05-.25.12-.53.23-.84,1.93.21,3.82.35,5.67.42,1.85.07,3.41.11,4.68.11,1.42,0,3.17-.05,5.25-.15,2.08-.1,3.98-.23,5.7-.38.1.36.18.65.23.88.05.23.08.47.08.72,0,.76-.58,1.22-1.75,1.37-2.03.25-3.55.65-4.56,1.18-1.02.53-1.65,1.51-1.9,2.94l-7.23,37.96c-.1.61-.06,1.06.12,1.33.18.28.67.42,1.48.42h7.61c2.13,0,4.09-.58,5.89-1.73,1.8-1.15,3.66-3.11,5.59-5.87.25-.41.48-.72.68-.92.2-.21.51-.31.91-.31.46,0,.9.14,1.33.42.43.28.8.57,1.1.88-.25.56-.53,1.14-.84,1.75-.25.56-.54,1.18-.87,1.87-.33.69-.65,1.46-.95,2.32-.41,1.01-.7,1.91-.87,2.7s-.37,1.38-.57,1.79c-.15.36-.32.57-.49.65s-.39.12-.65.12c-.56,0-1.05-.03-1.48-.08-.43-.05-.9-.1-1.41-.15-.51-.05-1.08-.1-1.71-.15-.63-.05-1.41-.08-2.32-.08h-17.8c-1.07,0-2.45.05-4.14.15Z"/>
  <path class="cls-1" d="M371.15,102.7h-14.45l-5.86,10.73c-.2.36-.3.74-.3,1.14,0,.81.49,1.42,1.48,1.83s2.17.71,3.54.91c.96.15,1.44.51,1.44,1.07,0,.36-.08.79-.23,1.3-1.93-.15-3.64-.28-5.13-.38-1.5-.1-2.9-.15-4.22-.15-.96,0-2.04.02-3.23.08-1.19.05-2.72.2-4.6.46-.1-.25-.18-.49-.23-.72-.05-.23-.07-.44-.07-.65,0-.36.14-.64.42-.87s.77-.39,1.48-.49c2.54-.46,4.23-1.42,5.1-2.89l24.11-44.22c.41-.71.96-1.07,1.67-1.07.66,0,1.22.18,1.67.53l8.52,44.6c.2.96.67,1.67,1.41,2.14.73.46,1.61.73,2.63.84.61.1,1.05.23,1.33.38.28.15.42.51.42,1.07,0,.15-.01.35-.04.57-.03.23-.06.47-.12.72-1.32-.1-2.74-.2-4.26-.31-1.52-.1-3.14-.15-4.87-.15-.71,0-1.5,0-2.36.04-.86.02-1.75.06-2.66.11-.91.05-1.8.12-2.66.19-.86.08-1.65.14-2.36.19-.15-.46-.23-.89-.23-1.3,0-.3.1-.57.3-.8.2-.23.58-.39,1.14-.49,2.08-.31,3.12-1.19,3.12-2.67,0-.35-.03-.6-.07-.76l-1.83-10.96ZM370.54,99.2l-2.74-17.43-9.2,17.43h11.94Z"/>
  <path class="cls-1" d="M423.1,103.46c.3-1.57-.74-2.51-3.12-2.82-.61-.1-1.03-.25-1.26-.46s-.34-.51-.34-.91c0-.25.02-.51.07-.76s.13-.56.23-.91c1.93.15,3.71.28,5.36.38,1.65.1,3.08.15,4.3.15,1.01,0,2.32-.05,3.92-.15,1.6-.1,3.23-.23,4.91-.38.15.56.23,1.01.23,1.37,0,.91-.56,1.47-1.67,1.67-1.17.2-2.03.52-2.58.95-.56.43-.94,1.1-1.14,2.02l-2.74,13.62c-.15.71-.46,1.22-.91,1.52-.46.31-1.19.51-2.21.61-2.18.25-4.48.43-6.88.53-2.41.1-4.78.15-7.11.15-3.95,0-7.34-.55-10.15-1.64-2.81-1.09-5.12-2.57-6.92-4.45-1.8-1.88-3.13-4.08-3.99-6.62-.86-2.54-1.29-5.25-1.29-8.14,0-3.5.6-7.05,1.79-10.66,1.19-3.6,3.03-6.86,5.51-9.78,2.48-2.92,5.59-5.3,9.32-7.16,3.73-1.85,8.15-2.8,13.27-2.86,2.64,0,5.25.24,7.84.7,2.59.47,5.07,1.09,7.46,1.87-.1.72-.15,1.46-.15,2.22v2.21c0,.91.03,1.84.08,2.78s.12,1.94.23,3c-.46.46-1.14.69-2.05.69-1.12,0-1.75-.5-1.9-1.52-.66-3.1-2-5.33-4.03-6.7-2.03-1.37-4.46-2.05-7.3-2.05-3.35,0-6.28.75-8.79,2.24-2.51,1.5-4.6,3.48-6.28,5.97-1.67,2.48-2.93,5.36-3.77,8.62-.84,3.27-1.26,6.68-1.26,10.22,0,5.37,1.22,9.67,3.65,12.88,2.43,3.22,5.98,4.82,10.65,4.82,1.32,0,2.62-.04,3.92-.12,1.29-.07,2.14-.16,2.55-.26l2.59-12.86Z"/>
  <path class="cls-1" d="M452.15,74.92c.2-.92.06-1.59-.42-2.02-.48-.43-1.41-.72-2.78-.87-1.12-.15-1.67-.66-1.67-1.52,0-.36.07-.81.23-1.37,1.93.15,3.79.28,5.59.38,1.8.1,3.34.15,4.6.15h14.23c1.98,0,3.48-.07,4.53-.23,1.04-.15,1.86-.23,2.47-.23s1.01.11,1.22.31c.2.2.3.58.3,1.14,0,1.62.12,3.22.38,4.79.25,1.57.56,3.14.91,4.72-.25.2-.6.37-1.02.49-.43.13-.83.19-1.18.19-.56,0-.96-.12-1.22-.35-.25-.23-.43-.52-.53-.87-.71-2.44-1.67-4.18-2.89-5.21-1.22-1.04-2.87-1.56-4.95-1.56h-8.44l-3.65,19.34h8.82c1.17,0,2-.36,2.51-1.07s.94-1.67,1.29-2.89c.1-.3.24-.58.42-.84.18-.25.47-.38.87-.38s.81.07,1.22.19c.41.12.76.24,1.07.34-.3,1.17-.57,2.25-.8,3.23-.23.99-.43,1.99-.61,3.01-.18,1.01-.33,2.11-.46,3.27-.13,1.17-.24,2.49-.34,3.95-.51.25-1.17.38-1.98.38-.71,0-1.14-.15-1.29-.46-.15-.3-.2-.63-.15-.99.15-1.27.06-2.32-.26-3.16-.33-.84-1.1-1.26-2.32-1.26h-8.6l-3.58,18.64c-.1.72-.06,1.19.12,1.42.18.23.62.35,1.33.35h8.22c1.82,0,3.61-.51,5.36-1.54,1.75-1.03,3.59-2.89,5.51-5.61.25-.41.48-.72.69-.92.2-.2.51-.31.91-.31.46,0,.9.14,1.33.42.43.28.8.57,1.1.88l-.76,1.52c-.25.51-.53,1.08-.84,1.71s-.61,1.38-.91,2.25c-.41,1.01-.7,1.91-.87,2.7-.18.79-.37,1.38-.57,1.79-.15.36-.32.57-.49.65s-.39.12-.65.12c-.56,0-1.05-.03-1.48-.08-.43-.05-.9-.1-1.41-.15-.51-.05-1.08-.1-1.71-.15-.63-.05-1.41-.08-2.32-.08h-17.8c-1.02,0-2.41.05-4.18.15-1.78.11-3.5.23-5.17.38-.25-.51-.38-.96-.38-1.37s.14-.73.42-.99.77-.43,1.48-.53c1.47-.15,2.48-.48,3.04-.99.56-.51.91-1.19,1.07-2.05l7.45-38.81Z"/>
</svg>