<?xml version="1.0" encoding="UTF-8"?>
<svg id="Layer_1" data-name="Layer 1" xmlns="http://www.w3.org/2000/svg" viewBox="0 0 746.12 1281.78">
  <defs>
    <style>
      .cls-1 {
        fill: none;
        stroke: #231f20;
        stroke-miterlimit: 10;
        stroke-width: .25px;
      }
    </style>
  </defs>
  <path class="cls-1" d="M292.64,1276.12c-3.99,0-4.91-6.17-7.34-22.66-3.35-22.65-8.96-60.55-27.16-104.99-10.7-26.09-21.61-44.36-27.16-52.93-17.01-26.12-36.17-55.53-72.44-77.46-6.73-4.07-12.82-7.25-17.71-9.81-10.29-5.38-15.95-8.34-15.14-12.87.93-4.93,8.16-4.82,20.09-4.62,18.12.3,45.52.74,70.98-14.95,31.87-19.63,53.72-52.15,53.93-52.48,1.7-2.55,3.29-5.1,4.82-7.55,6.59-10.52,12.32-19.6,19.99-19.12,6.79.47,10.23,7.84,14.58,17.17,1.31,2.83,2.72,5.85,4.33,8.9,16.94,32.11,47.17,49.77,56.03,54.42,24.83,13.01,50.25,12.83,67.08,12.73,12.46-.08,20.74-.14,22.07,5.41,1.51,6.32-8.21,12.3-20.51,19.88-2.32,1.43-4.69,2.89-7.02,4.38-.39.28-45.66,32.23-75.88,73.83-14.53,20.05-21.49,36.86-28.86,54.66l-.17.43c-17.98,43.57-23.59,81.57-26.94,104.28-2.44,16.53-3.45,23.37-7.57,23.37ZM139.92,994.15c-5.78,0-10.58.31-10.87,1.87-.36,2.03,6,5.36,13.36,9.21,4.93,2.58,11.08,5.79,17.9,9.91,36.94,22.34,56.33,52.1,73.44,78.36,5.72,8.84,16.76,27.32,27.57,53.67,18.36,44.82,24.01,82.99,27.38,105.79,1.35,9.13,2.63,17.78,3.97,19.56,1.41-1.77,2.74-10.76,4.15-20.26,3.37-22.86,9.02-61.13,27.16-105.09l.18-.43c7.12-17.2,14.49-34.99,29.25-55.36,30.56-42.08,76.29-74.35,76.75-74.67,2.41-1.54,4.79-3.01,7.12-4.45,9.32-5.75,19.9-12.26,18.97-16.16-.69-2.9-9.03-2.83-18.71-2.78-17.16.12-43.1.3-68.69-13.12-9.08-4.76-40.07-22.87-57.48-55.86-1.63-3.1-3.07-6.17-4.41-9.05-3.87-8.31-6.93-14.87-11.69-15.2-5.82-.34-10.85,7.93-16.85,17.52-1.55,2.48-3.16,5.05-4.87,7.63-.22.33-22.46,33.46-55,53.5-26.32,16.22-54.33,15.77-72.84,15.46-1.95-.03-3.92-.06-5.79-.06Z"/>
  <path class="cls-1" d="M466.71,1280.24c-22.21,0-41.26-2.4-56.61-7.15-15.49-4.76-28.39-11.43-38.34-19.84-10.03-8.44-17.38-18.35-21.86-29.44-4.46-11.03-6.72-23.08-6.72-35.8,0-16.07,3.4-32.53,10.12-48.94,6.69-16.38,16.82-31.35,30.13-44.49,13.29-13.11,30.21-23.93,50.28-32.15,20.05-8.24,43.91-12.41,70.93-12.41,13.86,0,27.53,1.05,40.62,3.12,13.03,2.07,25.99,4.86,38.53,8.31l1.43.39-.18,1.47c-.78,6.42-1.18,12.95-1.18,19.38,0,4.64.2,9.11.58,13.31.39,4.24.86,8.25,1.38,12.05l.13.94-.72.61c-2.69,2.27-6.69,3.42-11.88,3.42-8.45,0-11.02-4.43-11.68-8.14-3.3-13.45-10.33-23.15-20.88-28.73-10.75-5.68-23.85-8.56-38.93-8.56-16.17,0-30.76,3.22-43.36,9.56-12.65,6.38-23.49,15-32.2,25.6-8.72,10.6-15.53,23.19-20.26,37.4-4.7,14.2-7.09,29.45-7.09,45.31,0,11.64,1.71,22.29,5.09,31.66,3.34,9.34,8.18,17.45,14.41,24.11,6.18,6.62,13.83,11.79,22.74,15.37,8.93,3.59,18.99,5.4,29.92,5.4,15.61,0,29.03-3.09,39.9-9.2,10.85-6.09,20.17-16.17,27.69-29.94,1.55-2.37,3.21-4.07,5-5.18,1.85-1.19,4.63-1.77,8.48-1.77,2.91,0,5.69.55,8.26,1.65,2.54,1.06,4.24,1.97,5.22,2.79l1.11.94-.74,1.25c-3.41,5.77-6.87,12.94-10.26,21.3-3.43,8.45-6.36,17.76-8.71,27.68l-.26,1.1-1.11.2c-6.52,1.14-13.47,2.16-20.66,3.03-7.32.9-14.66,1.7-21.81,2.37-7.45.7-14.07,1.19-20.25,1.51-6.16.34-11.64.51-16.26.51ZM504.64,1053.45c-26.57,0-49.99,4.09-69.62,12.15-19.66,8.05-36.2,18.62-49.17,31.42-12.97,12.81-22.85,27.39-29.37,43.35-6.55,15.99-9.87,32.02-9.87,47.64,0,12.28,2.18,23.9,6.47,34.52,4.27,10.57,11.29,20.02,20.89,28.1,9.6,8.11,22.09,14.57,37.14,19.19,15.03,4.64,33.73,6.99,55.6,6.99,4.56,0,9.97-.17,16.08-.51,6.14-.32,12.71-.81,20.11-1.5,7.12-.66,14.42-1.46,21.71-2.35,6.72-.81,13.23-1.76,19.37-2.81,2.35-9.68,5.24-18.78,8.6-27.08,3.19-7.86,6.44-14.69,9.67-20.35-.68-.38-1.68-.87-3.15-1.48-2.16-.91-4.49-1.38-6.93-1.38-3.13,0-5.37.42-6.65,1.24-1.38.86-2.68,2.21-3.89,4.04-7.77,14.23-17.54,24.76-28.95,31.17-11.38,6.39-25.37,9.63-41.58,9.63-11.36,0-21.86-1.9-31.19-5.65-9.38-3.77-17.45-9.23-23.97-16.22-6.55-7.01-11.65-15.52-15.14-25.29-3.51-9.74-5.3-20.78-5.3-32.82,0-16.23,2.45-31.85,7.27-46.4,4.86-14.62,11.88-27.57,20.86-38.5,9.02-10.98,20.23-19.89,33.31-26.49,13.09-6.59,28.2-9.92,44.91-9.92,15.65,0,29.29,3.01,40.54,8.96,11.46,6.06,19.07,16.51,22.63,31.06.43,2.39,1.73,5.42,8.32,5.42,3.87,0,6.87-.7,8.94-2.07-.47-3.55-.9-7.27-1.26-11.19-.4-4.3-.6-8.88-.6-13.62,0-6.08.35-12.23,1.03-18.32-11.97-3.23-24.32-5.87-36.73-7.84-12.91-2.04-26.4-3.08-40.08-3.08Z"/>
  <path class="cls-1" d="M119.37,1281.65c-4.65,0-10.12-.17-16.27-.51-6.15-.32-12.96-.83-20.24-1.51-7.15-.67-14.49-1.47-21.81-2.37-7.15-.86-14.1-1.88-20.65-3.03l-1.11-.2-.26-1.1c-2.34-9.9-5.27-19.22-8.71-27.68-3.39-8.37-6.84-15.53-10.26-21.3l-.75-1.26,1.12-.94c.99-.82,2.7-1.74,5.23-2.79,2.56-1.09,5.34-1.64,8.26-1.64,3.85,0,6.63.58,8.5,1.78,1.78,1.1,3.43,2.81,4.91,5.04,7.6,13.9,16.91,23.98,27.76,30.07,10.86,6.1,24.28,9.19,39.9,9.19,10.93,0,20.99-1.82,29.92-5.4,8.91-3.58,16.57-8.75,22.74-15.37,6.23-6.66,11.08-14.77,14.42-24.11,3.39-9.37,5.1-20.02,5.1-31.66,0-15.87-2.39-31.11-7.09-45.32-4.74-14.22-11.56-26.8-20.27-37.4-8.72-10.61-19.55-19.22-32.2-25.6-12.61-6.34-27.2-9.56-43.36-9.56-15.08,0-28.18,2.88-38.94,8.56-10.55,5.58-17.58,15.28-20.89,28.84-.64,3.61-3.21,8.03-11.66,8.03-5.19,0-9.18-1.15-11.88-3.42l-.72-.61.13-.94c.52-3.8.99-7.81,1.39-12.05.38-4.19.58-8.67.58-13.31,0-6.44-.4-12.96-1.19-19.37l-.18-1.47,1.43-.39c12.54-3.45,25.51-6.24,38.53-8.31,13.08-2.07,26.74-3.12,40.61-3.12,27.02,0,50.88,4.17,70.93,12.41,20.07,8.22,36.99,19.04,50.28,32.15,13.31,13.15,23.45,28.12,30.13,44.49,6.71,16.4,10.11,32.86,10.11,48.93,0,12.73-2.26,24.78-6.72,35.81-4.48,11.09-11.83,21-21.86,29.44-9.95,8.41-22.85,15.09-38.34,19.84-15.35,4.74-34.41,7.14-56.61,7.14ZM42.11,1271.04c6.17,1.06,12.68,2,19.37,2.81,7.3.9,14.6,1.69,21.72,2.35,7.23.68,13.99,1.19,20.1,1.5h0c6.08.34,11.49.51,16.08.51,21.87,0,40.58-2.35,55.6-6.99,15.04-4.62,27.54-11.08,37.13-19.19,9.59-8.07,16.62-17.53,20.89-28.1,4.29-10.62,6.47-22.23,6.47-34.52,0-15.62-3.32-31.65-9.86-47.63-6.51-15.95-16.39-30.53-29.37-43.35-12.97-12.79-29.52-23.36-49.17-31.42-19.63-8.07-43.05-12.16-69.62-12.16-13.69,0-27.17,1.04-40.08,3.08-12.41,1.97-24.76,4.6-36.74,7.84.69,6.07,1.04,12.23,1.04,18.31,0,4.74-.2,9.33-.6,13.62-.36,3.92-.79,7.65-1.27,11.19,2.07,1.37,5.07,2.07,8.94,2.07,6.59,0,7.89-3.03,8.3-5.31,3.59-14.66,11.2-25.11,22.65-31.16,11.26-5.94,24.9-8.96,40.55-8.96,16.7,0,31.81,3.34,44.91,9.93,13.08,6.6,24.28,15.51,33.31,26.49,8.98,10.93,16,23.88,20.87,38.5,4.83,14.56,7.27,30.17,7.27,46.4,0,12.04-1.78,23.09-5.3,32.83-3.49,9.78-8.59,18.29-15.14,25.29-6.52,6.99-14.58,12.44-23.97,16.21-9.33,3.75-19.82,5.65-31.19,5.65-16.21,0-30.2-3.24-41.58-9.63-11.41-6.41-21.18-16.94-29.02-31.3-1.13-1.7-2.43-3.05-3.8-3.91-1.3-.83-3.54-1.25-6.67-1.25-2.45,0-4.78.46-6.92,1.37-1.47.61-2.47,1.1-3.16,1.48,3.23,5.66,6.48,12.49,9.67,20.35,3.37,8.31,6.27,17.42,8.61,27.08Z"/>
  <g>
    <g>
      <path class="cls-1" d="M452.74,380.1h-1.96s0-170.86,0-170.86h1c.3-1.13.63-3.46.95-5.74,1.11-7.86,2.96-21.03,9.11-36.2,2.17-5.57,4.64-11.92,9.78-19.35,10.33-14.56,25.2-25.38,25.83-25.83.86-.56,1.65-1.06,2.44-1.56,2.09-1.31,5.24-3.29,5.53-4.2l-.48-2.07,2.1-.09c36.94-5.55,73.72-11.09,110.66-16.79l1.79-.28.42,1.75c1.58,6.49-8.13,12.48-20.42,20.06-2.4,1.48-4.87,3-7.3,4.56-.38.27-45.53,32.17-75.71,73.73-14.79,20.33-22.02,37.96-29,55.02-17.97,43.64-23.6,81.65-26.96,104.36-2.53,17.09-3.47,23.48-7.77,23.48ZM454.7,212.22v156.21c.61-3.53,1.26-7.9,1.92-12.39,3.39-22.89,9.06-61.19,27.21-105.28,7.07-17.26,14.39-35.12,29.45-55.83,30.57-42.1,76.25-74.36,76.71-74.68,2.51-1.62,5-3.15,7.42-4.65,7.78-4.8,16.44-10.15,18.34-13.92-35.61,5.5-71.09,10.84-106.7,16.19-.87,2.11-3.71,3.89-7.1,6.01-.76.48-1.53.97-2.3,1.46-.07.06-14.9,10.85-24.83,24.85-4.86,7.04-7.14,12.89-9.34,18.55-5.98,14.75-7.79,27.61-8.87,35.3-.6,4.29-.97,6.91-1.91,8.18Z"/>
      <path class="cls-1" d="M453.24,131.71h-1.98s.37-50.92.37-50.92l2.08.14c3.07.2,4.54,3.38,6.1,6.74.43.93.88,1.9,1.39,2.88,5.39,10.8,15.12,16.49,17.97,17.98,7.87,4.27,15.98,4.26,21.48,4.24,4.72-.01,8.02-.02,8.6,3.01l.28,1.43-1.29.68c-16.7,8.79-34.58,13.45-53.11,13.82h-1.89ZM455.51,87.76l-.29,40.01c16.16-.34,31.82-4.07,46.61-11.08-.4,0-.8,0-1.17,0-5.95-.04-14.62.03-23.34-4.7-3.09-1.62-13.72-7.84-19.63-19.66-.53-1.01-1-2.04-1.46-3.01-.22-.48-.47-1.02-.74-1.56Z"/>
      <path class="cls-1" d="M399.53,118.36l-114.34-17.38.36-1.99c.93-5.08,8.17-4.95,20.14-4.74,18.13.34,45.51.82,70.94-14.89,31.82-19.68,53.59-52.16,53.81-52.48,1.74-2.59,3.37-5.16,4.93-7.63,6.92-10.94,12.41-19.64,20.17-19.11l1.89.11-1.93,84.72-2.04-.13h-.03c-.93,0-2.72,2.9-4.03,5.02-.6.97-1.23,1.99-1.91,3.01-.28.45-7.56,11.67-18.55,18.7-8.98,5.66-18.86,5.49-24.77,5.42-1.58-.03-3.51-.06-4.37.11l-.27,1.26ZM293.72,98.31l103.39,15.72c1.38-1.05,3.94-1.01,7.12-.96,5.79.06,14.61.22,22.6-4.8,10.23-6.55,17.3-17.43,17.37-17.54.67-1.01,1.28-1.99,1.85-2.92,1.82-2.94,3.44-5.57,5.6-6.51l1.76-77.01c-4.78,1.37-9.43,8.71-14.72,17.07-1.58,2.5-3.23,5.1-4.98,7.71-.21.32-22.44,33.5-55.01,53.65-26.41,16.32-55.63,15.82-73.08,15.47-4.04-.06-8.64-.16-11.9.12Z"/>
      <path class="cls-1" d="M454.69,213.16h-1.95c-2.6,0-2.98-2.66-3.89-9.1-1.08-7.63-2.9-20.41-8.86-35.3-3.67-9.19-7.3-15.16-8.66-17.41l-.27-.45c-5.51-8.74-11.78-18.69-23.54-26.04-2.04-1.24-3.92-2.24-5.48-3.08-4.05-2.16-6.49-3.47-5.98-6.03l.52-2.57,2.32,1.22c16.62,8.76,35.14,13.37,53.61,13.37.24,0,.47,0,.71,0h1.99s-.52,85.39-.52,85.39ZM415.48,125.71c8.85,7.13,14.16,15.56,18.94,23.14l.28.47c1.41,2.32,5.15,8.49,8.95,17.98,3.73,9.35,5.88,17.86,7.24,24.84l.37-60.44c-12.1-.13-24.2-2.17-35.79-6Z"/>
    </g>
    <g>
      <path class="cls-1" d="M452.68,379.83c-3.99,0-4.91-6.17-7.34-22.66-3.35-22.65-8.96-60.55-27.16-104.99-10.7-26.09-21.61-44.36-27.16-52.93-17.01-26.12-36.17-55.53-72.44-77.46-6.73-4.07-12.82-7.25-17.71-9.81-10.29-5.38-15.95-8.34-15.14-12.87.93-4.93,8.16-4.82,20.09-4.62,18.12.3,45.52.74,70.98-14.95,31.87-19.63,53.72-52.15,53.93-52.48,1.7-2.55,3.29-5.1,4.82-7.55,6.59-10.52,12.32-19.6,19.99-19.12,6.79.47,10.23,7.84,14.58,17.17,1.31,2.83,2.72,5.85,4.33,8.9,16.94,32.11,47.17,49.77,56.03,54.42,24.83,13.01,50.25,12.83,67.08,12.73,12.46-.08,20.74-.14,22.07,5.41,1.51,6.32-8.21,12.3-20.51,19.88-2.32,1.43-4.69,2.89-7.02,4.38-.39.28-45.66,32.23-75.88,73.83-14.53,20.05-21.49,36.86-28.86,54.66l-.17.43c-17.98,43.57-23.59,81.57-26.94,104.28-2.44,16.53-3.45,23.37-7.57,23.37ZM299.96,97.86c-5.78,0-10.58.31-10.87,1.87-.36,2.03,6,5.36,13.36,9.21,4.93,2.58,11.08,5.79,17.9,9.91,36.94,22.34,56.33,52.1,73.44,78.36,5.72,8.84,16.76,27.32,27.57,53.67,18.36,44.82,24.01,82.99,27.38,105.79,1.35,9.13,2.63,17.78,3.97,19.56,1.41-1.77,2.74-10.76,4.15-20.26,3.37-22.86,9.02-61.13,27.16-105.09l.18-.43c7.12-17.2,14.49-34.99,29.25-55.36,30.56-42.08,76.29-74.35,76.75-74.67,2.41-1.54,4.79-3.01,7.12-4.45,9.32-5.75,19.9-12.26,18.97-16.16-.69-2.9-9.03-2.83-18.71-2.78-17.16.12-43.1.3-68.69-13.12-9.08-4.76-40.07-22.87-57.48-55.86-1.63-3.1-3.07-6.17-4.41-9.05-3.87-8.31-6.93-14.87-11.69-15.2-5.82-.34-10.85,7.93-16.85,17.52-1.55,2.48-3.16,5.05-4.87,7.63-.22.33-22.46,33.46-55,53.5-26.32,16.22-54.33,15.77-72.84,15.46-1.95-.03-3.92-.06-5.79-.06Z"/>
      <polygon class="cls-1" points="454.39 378.11 450.96 378.11 451 211.19 451.9 82.94 453.7 2.06 457.14 2.13 455.33 82.99 454.43 211.2 454.39 378.11"/>
      <path class="cls-1" d="M452.8,131.52c-19.1,0-38.22-4.74-55.34-13.73l-110.31-16.68.51-3.39,111.15,16.9c16.7,8.82,35.36,13.47,54,13.47.16,0,.32,0,.47,0l1.85-.04c17.79-.38,35.59-5.03,51.45-13.43l.55-.18,110.56-16.72.51,3.39-110.27,16.68c-16.27,8.57-34.5,13.3-52.76,13.7l-1.88.04c-.16,0-.33,0-.49,0Z"/>
    </g>
    <path class="cls-1" d="M626.75,383.95c-22.21,0-41.26-2.4-56.61-7.15-15.49-4.76-28.39-11.43-38.34-19.84-10.03-8.44-17.38-18.35-21.86-29.44-4.46-11.03-6.72-23.08-6.72-35.8,0-16.07,3.4-32.53,10.12-48.94,6.69-16.38,16.82-31.35,30.13-44.49,13.29-13.11,30.21-23.93,50.28-32.15,20.05-8.24,43.91-12.41,70.93-12.41,13.86,0,27.53,1.05,40.62,3.12,13.03,2.07,25.99,4.86,38.53,8.31l1.43.39-.18,1.47c-.78,6.42-1.18,12.95-1.18,19.38,0,4.64.2,9.11.58,13.31.39,4.24.86,8.25,1.38,12.05l.13.94-.72.61c-2.69,2.27-6.69,3.42-11.88,3.42-8.45,0-11.02-4.43-11.68-8.14-3.3-13.45-10.33-23.15-20.88-28.73-10.75-5.68-23.85-8.56-38.93-8.56-16.17,0-30.76,3.22-43.36,9.56-12.65,6.38-23.49,15-32.2,25.6-8.72,10.6-15.53,23.19-20.26,37.4-4.7,14.2-7.09,29.45-7.09,45.31,0,11.64,1.71,22.29,5.09,31.66,3.34,9.34,8.18,17.45,14.41,24.11,6.18,6.62,13.83,11.79,22.74,15.37,8.93,3.59,18.99,5.4,29.92,5.4,15.61,0,29.03-3.09,39.9-9.2,10.85-6.09,20.17-16.17,27.69-29.94,1.55-2.37,3.21-4.07,5-5.18,1.85-1.19,4.63-1.77,8.48-1.77,2.91,0,5.69.55,8.26,1.65,2.54,1.06,4.24,1.97,5.22,2.79l1.11.94-.74,1.25c-3.41,5.77-6.87,12.94-10.26,21.3-3.43,8.45-6.36,17.76-8.71,27.68l-.26,1.1-1.11.2c-6.52,1.14-13.47,2.16-20.66,3.03-7.32.9-14.66,1.7-21.81,2.37-7.45.7-14.07,1.19-20.25,1.51-6.16.34-11.64.51-16.26.51ZM664.68,157.16c-26.57,0-49.99,4.09-69.62,12.15-19.66,8.05-36.2,18.62-49.17,31.42-12.97,12.81-22.85,27.39-29.37,43.35-6.55,15.99-9.87,32.02-9.87,47.64,0,12.28,2.18,23.9,6.47,34.52,4.27,10.57,11.29,20.02,20.89,28.1,9.6,8.11,22.09,14.57,37.14,19.19,15.03,4.64,33.73,6.99,55.6,6.99,4.56,0,9.97-.17,16.08-.51,6.14-.32,12.71-.81,20.11-1.5,7.12-.66,14.42-1.46,21.71-2.35,6.72-.81,13.23-1.76,19.37-2.81,2.35-9.68,5.24-18.78,8.6-27.08,3.19-7.86,6.44-14.69,9.67-20.35-.68-.38-1.68-.87-3.15-1.48-2.16-.91-4.49-1.38-6.93-1.38-3.13,0-5.37.42-6.65,1.24-1.38.86-2.68,2.21-3.89,4.04-7.77,14.23-17.54,24.76-28.95,31.17-11.38,6.39-25.37,9.63-41.58,9.63-11.36,0-21.86-1.9-31.19-5.65-9.38-3.77-17.45-9.23-23.97-16.22-6.55-7.01-11.65-15.52-15.14-25.29-3.51-9.74-5.3-20.78-5.3-32.82,0-16.23,2.45-31.85,7.27-46.4,4.86-14.62,11.88-27.57,20.86-38.5,9.02-10.98,20.23-19.89,33.31-26.49,13.09-6.59,28.2-9.92,44.91-9.92,15.65,0,29.29,3.01,40.54,8.96,11.46,6.06,19.07,16.51,22.63,31.06.43,2.39,1.73,5.42,8.32,5.42,3.87,0,6.87-.7,8.94-2.07-.47-3.55-.9-7.27-1.26-11.19-.4-4.3-.6-8.88-.6-13.62,0-6.08.35-12.23,1.03-18.32-11.97-3.23-24.32-5.87-36.73-7.84-12.91-2.04-26.4-3.08-40.08-3.08Z"/>
    <path class="cls-1" d="M279.41,385.36c-4.65,0-10.12-.17-16.27-.51-6.15-.32-12.96-.83-20.24-1.51-7.15-.67-14.49-1.47-21.81-2.37-7.15-.86-14.1-1.88-20.65-3.03l-1.11-.2-.26-1.1c-2.34-9.9-5.27-19.22-8.71-27.68-3.39-8.37-6.84-15.53-10.26-21.3l-.75-1.26,1.12-.94c.99-.82,2.7-1.74,5.23-2.79,2.56-1.09,5.34-1.64,8.26-1.64,3.85,0,6.63.58,8.5,1.78,1.78,1.1,3.43,2.81,4.91,5.04,7.6,13.9,16.91,23.98,27.76,30.07,10.86,6.1,24.28,9.19,39.9,9.19,10.93,0,20.99-1.82,29.92-5.4,8.91-3.58,16.57-8.75,22.74-15.37,6.23-6.66,11.08-14.77,14.42-24.11,3.39-9.37,5.1-20.02,5.1-31.66,0-15.87-2.39-31.11-7.09-45.32-4.74-14.22-11.56-26.8-20.27-37.4-8.72-10.61-19.55-19.22-32.2-25.6-12.61-6.34-27.2-9.56-43.36-9.56-15.08,0-28.18,2.88-38.94,8.56-10.55,5.58-17.58,15.28-20.89,28.84-.64,3.61-3.21,8.03-11.66,8.03-5.19,0-9.18-1.15-11.88-3.42l-.72-.61.13-.94c.52-3.8.99-7.81,1.39-12.05.38-4.19.58-8.67.58-13.31,0-6.44-.4-12.96-1.19-19.37l-.18-1.47,1.43-.39c12.54-3.45,25.51-6.24,38.53-8.31,13.08-2.07,26.74-3.12,40.61-3.12,27.02,0,50.88,4.17,70.93,12.41,20.07,8.22,36.99,19.04,50.28,32.15,13.31,13.15,23.45,28.12,30.13,44.49,6.71,16.4,10.11,32.86,10.11,48.93,0,12.73-2.26,24.78-6.72,35.81-4.48,11.09-11.83,21-21.86,29.44-9.95,8.41-22.85,15.09-38.34,19.84-15.35,4.74-34.41,7.14-56.61,7.14ZM202.15,374.75c6.17,1.06,12.68,2,19.37,2.81,7.3.9,14.6,1.69,21.72,2.35,7.23.68,13.99,1.19,20.1,1.5h0c6.08.34,11.49.51,16.08.51,21.87,0,40.58-2.35,55.6-6.99,15.04-4.62,27.54-11.08,37.13-19.19,9.59-8.07,16.62-17.53,20.89-28.1,4.29-10.62,6.47-22.23,6.47-34.52,0-15.62-3.32-31.65-9.86-47.63-6.51-15.95-16.39-30.53-29.37-43.35-12.97-12.79-29.52-23.36-49.17-31.42-19.63-8.07-43.05-12.16-69.62-12.16-13.69,0-27.17,1.04-40.08,3.08-12.41,1.97-24.76,4.6-36.74,7.84.69,6.07,1.04,12.23,1.04,18.31,0,4.74-.2,9.33-.6,13.62-.36,3.92-.79,7.65-1.27,11.19,2.07,1.37,5.07,2.07,8.94,2.07,6.59,0,7.89-3.03,8.3-5.31,3.59-14.66,11.2-25.11,22.65-31.16,11.26-5.94,24.9-8.96,40.55-8.96,16.7,0,31.81,3.34,44.91,9.93,13.08,6.6,24.28,15.51,33.31,26.49,8.98,10.93,16,23.88,20.87,38.5,4.83,14.56,7.27,30.17,7.27,46.4,0,12.04-1.78,23.09-5.3,32.83-3.49,9.78-8.59,18.29-15.14,25.29-6.52,6.99-14.58,12.44-23.97,16.21-9.33,3.75-19.82,5.65-31.19,5.65-16.21,0-30.2-3.24-41.58-9.63-11.41-6.41-21.18-16.94-29.02-31.3-1.13-1.7-2.43-3.05-3.8-3.91-1.3-.83-3.54-1.25-6.67-1.25-2.45,0-4.78.46-6.92,1.37-1.47.61-2.47,1.1-3.16,1.48,3.23,5.66,6.48,12.49,9.67,20.35,3.37,8.31,6.27,17.42,8.61,27.08Z"/>
  </g>
  <path class="cls-1" d="M292.65,1105.76c-1.35,0-1.66-2.09-2.48-7.67-1.13-7.66-3.03-20.48-9.19-35.52-3.62-8.83-7.31-15.01-9.19-17.91-5.76-8.83-12.24-18.78-24.51-26.2-2.28-1.38-4.34-2.45-5.99-3.32-3.48-1.82-5.4-2.82-5.12-4.35.31-1.67,2.76-1.63,6.8-1.56,6.13.1,15.4.25,24.01-5.06,10.78-6.64,18.17-17.64,18.24-17.75.57-.86,1.11-1.73,1.63-2.56,2.23-3.56,4.17-6.63,6.76-6.47,2.3.16,3.46,2.65,4.93,5.81.44.96.92,1.98,1.47,3.01,5.73,10.86,15.96,16.84,18.95,18.41,8.4,4.4,17,4.34,22.69,4.31,4.22-.03,7.02-.05,7.47,1.83.51,2.14-2.78,4.16-6.94,6.73-.78.48-1.59.98-2.37,1.48-.13.09-15.45,10.9-25.67,24.98-4.91,6.78-7.27,12.47-9.76,18.49l-.06.14c-6.08,14.74-7.98,27.59-9.11,35.28-.83,5.59-1.17,7.9-2.56,7.9ZM240.99,1010.37c-1.95,0-3.58.1-3.68.63-.12.69,2.03,1.81,4.52,3.11,1.67.87,3.75,1.96,6.05,3.35,12.5,7.56,19.06,17.63,24.84,26.51,1.94,2.99,5.67,9.24,9.33,18.16,6.21,15.16,8.12,28.07,9.26,35.79.46,3.09.89,6.01,1.34,6.62.48-.6.93-3.64,1.4-6.85,1.14-7.73,3.05-20.68,9.19-35.55l.06-.15c2.41-5.82,4.9-11.84,9.9-18.73,10.34-14.23,25.81-25.15,25.96-25.26.81-.52,1.62-1.02,2.41-1.5,3.15-1.94,6.73-4.15,6.42-5.47-.23-.98-3.06-.96-6.33-.94-5.81.04-14.58.1-23.24-4.44-3.07-1.61-13.56-7.74-19.44-18.9-.55-1.05-1.04-2.09-1.49-3.06-1.31-2.81-2.34-5.03-3.95-5.14-1.97-.12-3.67,2.68-5.7,5.93-.52.84-1.07,1.71-1.65,2.58-.08.11-7.6,11.32-18.6,18.1-8.9,5.49-18.38,5.34-24.64,5.23-.66-.01-1.33-.02-1.96-.02Z"/>
  <path class="cls-1" d="M293.1,977.39c.32-25.77.64-51.54.96-77.31"/>
  <path class="cls-1" d="M295.03,977.85c.3-25.92.61-51.84.91-77.76"/>
  <path class="cls-1" d="M290.68,1265.91c.31-53.5.62-106.99.93-160.49"/>
  <path class="cls-1" d="M294.44,1265.91c-.22-53.67-.44-107.35-.66-161.02"/>
  <path class="cls-1" d="M129.05,996.02c16.38,4.88,35.54,9.45,57.15,12.57,18.59,2.69,35.7,3.82,50.88,4.06"/>
  <path class="cls-1" d="M132.68,994.5c16.34,4.92,35.51,9.51,57.15,12.57,16.82,2.38,32.38,3.45,46.34,3.72"/>
  <path class="cls-1" d="M456.12,995.68c-16.54,4.85-35.69,9.38-57.15,12.57-18.14,2.7-34.92,3.99-49.98,4.44"/>
  <path class="cls-1" d="M454.52,994.16c-17.21,4.92-37.03,9.45-59.18,12.57-16.6,2.34-32.09,3.55-46.21,4.03"/>
  <path class="cls-1" d="M291.62,1099.96c.5-40.47,1-80.94,1.49-121.41"/>
  <path class="cls-1" d="M293.78,1100.65c.4-40.31.81-80.62,1.21-120.92"/>
  <path class="cls-1" d="M237.31,1011c15.32,2.97,34.37,5.39,56.26,5.33,21.09-.06,39.49-2.41,54.42-5.3"/>
  <path class="cls-1" d="M239.04,1012.66c15,2.97,33.65,5.39,55.08,5.33,20.64-.06,38.66-2.41,53.28-5.3"/>
</svg>