<?xml version="1.0" encoding="UTF-8"?>
<svg id="Layer_1" data-name="Layer 1" xmlns="http://www.w3.org/2000/svg" viewBox="0 0 561.55 77.6">
  <defs>
    <style>
      .cls-1 {
        fill: #231f20;
      }
    </style>
  </defs>
  <g>
    <path class="cls-1" d="M35.12,77.34c-6.33,0-11.68-.8-16.06-2.4-4.38-1.6-7.98-3.81-10.8-6.63-2.82-2.82-4.86-6.08-6.12-9.78-1.26-3.69-1.89-7.68-1.89-11.95,0-5.42.95-10.88,2.86-16.41,1.9-5.52,4.75-10.5,8.52-14.92,3.77-4.42,8.51-8.03,14.23-10.81C31.58,1.65,38.28.26,45.98.26c3.96,0,7.81.35,11.54,1.05,3.73.71,7.39,1.64,10.97,2.81-.23,2.23-.34,4.45-.34,6.66,0,1.6.06,3.13.17,4.57.11,1.45.25,2.83.4,4.12-.69.69-1.72,1.03-3.09,1.03-1.68,0-2.63-.76-2.86-2.29-.99-4.8-3.07-8.19-6.23-10.18-3.16-1.98-6.96-2.98-11.37-2.98-4.73,0-8.94,1.1-12.63,3.31-3.7,2.21-6.82,5.16-9.37,8.85-2.55,3.69-4.51,8-5.89,12.9-1.37,4.91-2.06,10.11-2.06,15.58,0,4.04.49,7.69,1.49,10.96.99,3.27,2.4,6.07,4.23,8.39,1.83,2.32,4.06,4.11,6.69,5.37s5.55,1.88,8.74,1.88c4.57,0,8.46-1.07,11.66-3.2,3.2-2.13,5.91-5.6,8.12-10.41.38-.69.8-1.2,1.26-1.54.45-.35,1.18-.51,2.17-.51.76,0,1.49.17,2.17.51s1.14.63,1.37.86c-.99,1.98-1.98,4.42-2.97,7.32-.99,2.9-1.83,6.06-2.51,9.49-1.83.38-3.79.73-5.89,1.03-2.1.3-4.17.57-6.23.8-2.06.23-3.98.4-5.77.51-1.79.12-3.33.17-4.63.17Z"/>
    <path class="cls-1" d="M35.12,77.6c-6.33,0-11.76-.81-16.15-2.42-4.4-1.61-8.06-3.86-10.89-6.69-2.83-2.83-4.91-6.16-6.18-9.88-1.26-3.7-1.9-7.75-1.9-12.03,0-5.41.97-10.96,2.87-16.5,1.91-5.53,4.79-10.58,8.57-15,3.78-4.43,8.6-8.09,14.31-10.87C31.47,1.41,38.28,0,45.98,0c3.95,0,7.85.36,11.59,1.06,3.73.71,7.43,1.66,11.01,2.82l.2.06-.02.21c-.23,2.22-.34,4.45-.34,6.63,0,1.59.06,3.12.17,4.55.11,1.44.25,2.83.4,4.11l.02.12-.09.09c-.73.74-1.83,1.11-3.27,1.11-1.82,0-2.86-.84-3.12-2.51-.97-4.69-3.03-8.06-6.11-9.99-3.11-1.95-6.89-2.94-11.24-2.94-4.66,0-8.86,1.1-12.5,3.27-3.65,2.19-6.78,5.14-9.29,8.77-2.52,3.65-4.49,7.96-5.85,12.82-1.36,4.86-2.05,10.08-2.05,15.51,0,4,.5,7.66,1.47,10.89.98,3.23,2.39,6.02,4.19,8.31,1.79,2.28,4.01,4.06,6.59,5.29,2.58,1.23,5.49,1.86,8.63,1.86,4.5,0,8.37-1.06,11.51-3.16,3.15-2.1,5.85-5.56,8.03-10.3.4-.72.85-1.27,1.34-1.64.5-.38,1.26-.57,2.33-.57.81,0,1.58.18,2.29.54.74.37,1.2.66,1.44.91l.13.13-.08.17c-.98,1.98-1.98,4.43-2.96,7.29-.98,2.87-1.82,6.05-2.5,9.46l-.03.17-.17.04c-1.87.39-3.86.74-5.9,1.03-2.1.3-4.2.57-6.24.8-1.95.22-3.89.39-5.79.51-1.79.12-3.35.17-4.64.17ZM45.98.52c-7.62,0-14.35,1.4-20,4.15-5.65,2.75-10.41,6.37-14.15,10.75s-6.58,9.37-8.47,14.84c-1.89,5.48-2.84,10.97-2.84,16.33,0,4.23.63,8.22,1.87,11.87,1.24,3.65,3.28,6.9,6.05,9.68,2.78,2.78,6.38,5,10.71,6.58,4.33,1.58,9.71,2.39,15.97,2.39,1.28,0,2.83-.06,4.61-.17,1.88-.12,3.82-.29,5.76-.51,2.03-.23,4.12-.5,6.22-.8,1.97-.29,3.89-.62,5.7-.99.68-3.36,1.52-6.51,2.49-9.36.96-2.8,1.93-5.21,2.9-7.17-.23-.18-.62-.41-1.17-.69-.64-.32-1.33-.48-2.05-.48-.94,0-1.61.15-2.01.46-.43.33-.83.82-1.19,1.46-2.21,4.81-4.97,8.35-8.2,10.5-3.23,2.15-7.2,3.25-11.8,3.25-3.22,0-6.2-.64-8.86-1.91-2.65-1.27-4.93-3.1-6.78-5.44-1.84-2.34-3.28-5.19-4.27-8.48-.99-3.27-1.5-6.99-1.5-11.04,0-5.48.7-10.75,2.07-15.65,1.37-4.92,3.37-9.28,5.92-12.98,2.55-3.69,5.73-6.7,9.45-8.92,3.72-2.22,8.01-3.35,12.77-3.35,4.44,0,8.32,1.02,11.51,3.02,3.21,2.01,5.34,5.49,6.34,10.34.21,1.4,1.06,2.08,2.61,2.08,1.25,0,2.18-.28,2.81-.87-.15-1.25-.28-2.6-.39-4-.12-1.44-.17-2.99-.17-4.59,0-2.13.11-4.31.32-6.47-3.49-1.13-7.1-2.05-10.74-2.74-3.71-.7-7.58-1.05-11.49-1.05Z"/>
  </g>
  <g>
    <path class="cls-1" d="M88.27,9.53c.3-1.38.09-2.39-.63-3.04-.72-.64-2.11-1.08-4.17-1.31-1.68-.23-2.51-.99-2.51-2.29,0-.53.11-1.22.34-2.06,2.9.23,5.69.43,8.4.58s5.01.22,6.92.22h21.38c2.97,0,5.24-.11,6.8-.34,1.56-.23,2.8-.35,3.71-.35s1.52.16,1.83.46c.3.3.46.87.46,1.72,0,2.44.19,4.84.57,7.2s.84,4.72,1.37,7.09c-.38.3-.89.56-1.54.74-.65.19-1.24.29-1.77.29-.84,0-1.45-.17-1.83-.52-.38-.34-.65-.78-.8-1.31-1.07-3.66-2.51-6.27-4.34-7.83-1.83-1.56-4.31-2.35-7.43-2.35h-12.69l-5.48,29.05h13.26c1.75,0,3.01-.53,3.77-1.6.76-1.07,1.41-2.52,1.94-4.35.15-.45.36-.87.63-1.25.26-.38.7-.58,1.31-.58s1.22.1,1.83.29,1.14.36,1.6.51c-.46,1.76-.86,3.37-1.2,4.86-.34,1.49-.65,2.99-.91,4.52-.27,1.52-.5,3.17-.69,4.92-.19,1.75-.36,3.74-.51,5.94-.76.38-1.76.58-2.97.58-1.07,0-1.72-.23-1.94-.69-.23-.45-.31-.95-.23-1.49.23-1.9.1-3.48-.4-4.75-.5-1.25-1.66-1.89-3.49-1.89h-12.92l-5.37,28.01c-.15,1.07-.1,1.78.17,2.13.27.35.93.52,2,.52h12.35c2.74,0,5.43-.77,8.06-2.31,2.63-1.54,5.39-4.35,8.29-8.43.38-.61.72-1.07,1.03-1.38.3-.3.76-.46,1.37-.46.69,0,1.35.21,2,.63.65.43,1.2.86,1.66,1.32l-1.14,2.29c-.38.76-.8,1.62-1.25,2.57s-.92,2.08-1.37,3.37c-.61,1.52-1.05,2.88-1.31,4.06-.27,1.18-.56,2.08-.86,2.68-.23.53-.48.86-.74.97s-.59.17-.97.17c-.84,0-1.58-.04-2.23-.12-.65-.08-1.36-.15-2.12-.23-.76-.07-1.62-.15-2.57-.22-.95-.08-2.11-.12-3.49-.12h-26.75c-1.53,0-3.62.07-6.29.22-2.67.16-5.26.35-7.77.58-.38-.76-.57-1.45-.57-2.06s.21-1.1.63-1.49,1.16-.65,2.23-.8c2.21-.23,3.73-.72,4.57-1.49.84-.76,1.37-1.79,1.6-3.09l11.2-58.33Z"/>
    <path class="cls-1" d="M68.45,77.05l-.08-.16c-.4-.81-.6-1.52-.6-2.18s.24-1.25.71-1.68c.46-.42,1.24-.71,2.37-.87,2.16-.23,3.65-.7,4.43-1.42.79-.73,1.31-1.72,1.52-2.94l11.2-58.34c.28-1.29.1-2.2-.55-2.79-.68-.6-2.04-1.02-4.03-1.25-1.82-.25-2.74-1.11-2.74-2.54,0-.56.12-1.28.35-2.13l.06-.21.21.02c3.03.24,5.77.43,8.39.58,2.65.15,4.97.22,6.9.22h21.38c3.02,0,5.23-.11,6.76-.34,3.22-.48,5.05-.51,5.76.19.36.36.54.98.54,1.9,0,2.43.19,4.84.57,7.16.38,2.37.84,4.75,1.37,7.07l.04.16-.13.1c-.42.33-.96.6-1.63.79-.66.2-1.28.3-1.85.3-.91,0-1.57-.19-2-.59-.42-.37-.71-.85-.88-1.43-1.05-3.6-2.48-6.19-4.26-7.71-1.77-1.52-4.22-2.29-7.26-2.29h-12.47l-5.39,28.54h12.94c1.66,0,2.85-.5,3.56-1.49.74-1.04,1.38-2.48,1.91-4.27.16-.49.39-.93.67-1.33.31-.45.83-.69,1.52-.69.62,0,1.26.1,1.9.3.61.19,1.15.36,1.61.51l.23.08-.06.23c-.47,1.81-.86,3.4-1.2,4.85-.35,1.52-.66,3.03-.91,4.51-.26,1.47-.49,3.11-.69,4.9-.19,1.71-.36,3.7-.51,5.93v.15s-.14.07-.14.07c-.8.4-1.84.6-3.09.6s-1.9-.27-2.18-.84c-.25-.5-.34-1.05-.25-1.64.22-1.84.1-3.4-.38-4.61-.46-1.16-1.52-1.73-3.25-1.73h-12.7l-5.33,27.8c-.17,1.23-.03,1.72.12,1.92.15.19.58.42,1.79.42h12.35c2.68,0,5.35-.76,7.93-2.27,2.59-1.52,5.35-4.33,8.21-8.36.39-.63.74-1.09,1.06-1.42.36-.36.88-.54,1.55-.54.73,0,1.45.23,2.14.67.7.46,1.26.91,1.7,1.36l.13.13-1.23,2.45c-.38.76-.8,1.62-1.25,2.57-.45.94-.91,2.07-1.36,3.35-.6,1.5-1.04,2.86-1.3,4.03-.27,1.19-.56,2.11-.88,2.74-.25.59-.54.95-.87,1.1-.3.13-.66.19-1.07.19-.81,0-1.56-.04-2.26-.12-.59-.07-1.23-.14-1.91-.21l-.2-.02c-.76-.07-1.61-.15-2.56-.22-.93-.08-2.06-.11-3.47-.11h-26.75c-1.55,0-3.66.07-6.27.22-2.83.17-5.37.36-7.77.58l-.18.02ZM88.52,9.58l-11.2,58.32c-.23,1.34-.8,2.42-1.68,3.23-.89.8-2.43,1.31-4.72,1.55-1,.14-1.7.39-2.08.73-.37.33-.54.76-.54,1.29s.16,1.12.47,1.79c2.34-.21,4.83-.4,7.6-.56,2.62-.15,4.74-.22,6.3-.22h26.75c1.42,0,2.57.04,3.51.12.95.07,1.81.15,2.57.22l.2.02c.69.07,1.33.14,1.92.21.67.08,1.41.11,2.2.11.34,0,.63-.05.87-.15.14-.06.36-.25.61-.84.3-.61.58-1.49.84-2.64.27-1.2.72-2.58,1.32-4.1.46-1.29.92-2.43,1.38-3.39.46-.95.87-1.81,1.26-2.58l1.06-2.12c-.4-.38-.88-.76-1.48-1.16-.6-.39-1.23-.58-1.86-.58-.53,0-.93.13-1.19.38-.29.29-.62.74-1,1.34-2.9,4.1-5.72,6.96-8.38,8.52-2.66,1.55-5.42,2.34-8.19,2.34h-12.35c-1.16,0-1.88-.2-2.2-.62-.32-.41-.39-1.15-.22-2.32l5.42-28.23h13.13c1.93,0,3.19.69,3.73,2.05.51,1.3.65,2.94.41,4.87-.07.49,0,.93.2,1.34.18.36.77.55,1.71.55,1.1,0,2.01-.16,2.72-.49.15-2.17.32-4.12.5-5.8.2-1.8.43-3.46.69-4.94.25-1.48.56-3.01.92-4.53.32-1.4.7-2.91,1.14-4.63-.4-.13-.86-.28-1.37-.43-.6-.18-1.19-.28-1.75-.28-.52,0-.88.15-1.1.46-.25.36-.45.76-.6,1.19-.54,1.84-1.2,3.33-1.98,4.42-.81,1.13-2.15,1.71-3.98,1.71h-13.57l5.58-29.57h12.9c3.17,0,5.73.81,7.6,2.41,1.86,1.58,3.35,4.26,4.42,7.96.14.49.38.89.72,1.19.33.3.89.45,1.66.45.51,0,1.09-.09,1.7-.28.53-.15.98-.36,1.32-.6-.51-2.28-.96-4.61-1.34-6.94-.38-2.35-.57-4.79-.57-7.25,0-.75-.13-1.28-.38-1.53-.18-.18-.61-.39-1.65-.39-.9,0-2.14.12-3.68.34-1.56.23-3.8.34-6.84.34h-21.38c-1.94,0-4.27-.08-6.93-.22-2.56-.14-5.24-.33-8.19-.56-.18.72-.28,1.32-.28,1.79,0,1.15.75,1.82,2.29,2.03,2.12.24,3.53.69,4.31,1.38.79.71,1.03,1.82.71,3.28Z"/>
  </g>
  <g>
    <path class="cls-1" d="M141.02,76.2c-2.56.16-5.09.35-7.6.58-.15-.38-.27-.74-.34-1.09-.08-.34-.12-.71-.12-1.09,0-.45.16-.85.46-1.2s.87-.59,1.71-.74c1.9-.3,3.39-.8,4.46-1.49,1.07-.69,1.75-1.8,2.06-3.32l11.2-58.33c.3-1.38,0-2.4-.91-3.09-.92-.69-2.37-1.18-4.35-1.49-1.45-.22-2.17-.84-2.17-1.82,0-.31.04-.65.12-1.03.07-.38.19-.8.34-1.26,2.9.31,5.73.52,8.51.63,2.78.11,5.12.17,7.03.17,2.13,0,4.76-.07,7.89-.22,3.12-.15,5.98-.35,8.57-.58.15.54.27.98.34,1.32.08.35.12.71.12,1.09,0,1.15-.88,1.83-2.63,2.06-3.05.38-5.34.97-6.86,1.77-1.53.8-2.48,2.27-2.86,4.41l-10.86,57.04c-.15.92-.1,1.59.17,2,.27.43,1.01.63,2.23.63h11.43c3.2,0,6.15-.87,8.86-2.6,2.7-1.73,5.51-4.67,8.4-8.83.38-.61.72-1.07,1.03-1.38.3-.31.76-.46,1.37-.46.69,0,1.35.21,2,.63.65.42,1.2.86,1.66,1.32-.38.84-.8,1.72-1.26,2.62-.38.84-.82,1.77-1.31,2.81-.5,1.03-.97,2.19-1.43,3.49-.61,1.52-1.05,2.88-1.31,4.06-.27,1.18-.56,2.08-.86,2.68-.23.53-.48.86-.74.97s-.59.17-.97.17c-.84,0-1.58-.04-2.23-.12-.65-.08-1.36-.15-2.12-.23-.76-.07-1.62-.15-2.57-.22-.95-.08-2.11-.12-3.49-.12h-26.75c-1.6,0-3.68.07-6.23.22Z"/>
    <path class="cls-1" d="M133.25,77.05l-.07-.18c-.16-.41-.28-.78-.35-1.13-.08-.36-.12-.75-.12-1.14,0-.51.18-.97.52-1.37.34-.39.95-.66,1.86-.83,1.86-.3,3.32-.78,4.36-1.45,1-.64,1.65-1.7,1.94-3.15l11.2-58.32c.28-1.28.02-2.21-.81-2.84-.87-.65-2.29-1.13-4.23-1.44-1.98-.3-2.39-1.3-2.39-2.08,0-.34.04-.69.12-1.08.07-.38.19-.8.35-1.29l.07-.2.21.02c2.84.3,5.7.52,8.5.63,2.86.11,5.16.17,7.02.17,2.16,0,4.81-.08,7.87-.22,3.04-.15,5.92-.34,8.56-.58l.21-.02.06.21c.15.55.27.99.35,1.33.08.37.12.75.12,1.15,0,1.29-.96,2.07-2.85,2.32-3.01.38-5.28.96-6.77,1.75-1.44.76-2.36,2.18-2.73,4.23l-10.86,57.05c-.14.85-.09,1.46.14,1.82.15.24.62.52,2.01.52h11.43c3.13,0,6.07-.86,8.72-2.56,2.66-1.71,5.47-4.65,8.33-8.76.38-.61.74-1.1,1.06-1.42.35-.36.87-.54,1.55-.54.73,0,1.45.22,2.14.67.66.43,1.24.88,1.7,1.35l.13.13-.07.16c-.41.91-.84,1.79-1.26,2.63-.38.83-.81,1.77-1.31,2.8-.49,1.02-.97,2.18-1.42,3.46-.6,1.5-1.04,2.86-1.3,4.03-.27,1.19-.56,2.11-.88,2.74-.25.59-.54.95-.87,1.1-.3.13-.66.19-1.07.19-.81,0-1.56-.04-2.26-.12-.59-.07-1.23-.14-1.91-.21l-.2-.02c-.76-.07-1.61-.15-2.56-.22-.93-.08-2.06-.11-3.47-.11h-26.75c-1.63,0-3.72.07-6.21.22-2.73.17-5.22.36-7.59.58l-.19.02ZM146.06,1.11c-.12.38-.21.72-.27,1.03-.07.36-.11.68-.11.98,0,.85.64,1.37,1.95,1.57,2.05.32,3.51.82,4.46,1.53,1,.75,1.33,1.88,1.01,3.36l-11.2,58.32c-.32,1.59-1.05,2.77-2.17,3.49-1.1.71-2.63,1.22-4.56,1.52-.77.14-1.3.36-1.56.66-.27.3-.39.64-.39,1.03,0,.36.04.71.11,1.03.06.27.15.56.26.87,2.32-.21,4.75-.39,7.41-.56h0c2.5-.15,4.6-.22,6.24-.22h26.75c1.42,0,2.57.04,3.51.12.95.07,1.81.15,2.57.22l.2.02c.69.07,1.33.14,1.92.21.67.08,1.41.11,2.2.11.34,0,.63-.05.87-.15.14-.06.36-.25.61-.84.3-.61.58-1.49.84-2.64.27-1.2.72-2.58,1.32-4.1.46-1.29.94-2.47,1.44-3.51.49-1.03.93-1.96,1.31-2.8.4-.79.8-1.62,1.18-2.46-.42-.4-.92-.79-1.49-1.16-.61-.39-1.22-.59-1.86-.59-.54,0-.94.13-1.18.38-.29.3-.63.75-.99,1.34-2.91,4.17-5.76,7.17-8.48,8.91-2.73,1.75-5.76,2.64-9,2.64h-11.43c-1.33,0-2.13-.25-2.45-.76-.3-.47-.37-1.19-.21-2.18l10.86-57.05c.4-2.21,1.4-3.76,2.99-4.59,1.54-.81,3.88-1.42,6.95-1.8,1.62-.21,2.4-.8,2.4-1.81,0-.36-.04-.7-.11-1.03-.06-.29-.16-.66-.28-1.1-2.59.23-5.4.42-8.37.56-3.07.15-5.73.22-7.9.22-1.87,0-4.17-.05-7.04-.17-2.74-.11-5.54-.32-8.32-.61Z"/>
  </g>
  <g>
    <path class="cls-1" d="M216.4,9.53c.3-1.38.09-2.39-.63-3.04-.72-.64-2.11-1.08-4.17-1.31-1.68-.23-2.51-.99-2.51-2.29,0-.53.11-1.22.34-2.06,2.9.23,5.69.43,8.4.58s5.01.22,6.92.22h21.38c2.97,0,5.24-.11,6.8-.34,1.56-.23,2.8-.35,3.71-.35s1.52.16,1.83.46c.3.3.46.87.46,1.72,0,2.44.19,4.84.57,7.2.38,2.37.84,4.72,1.37,7.09-.38.3-.89.56-1.54.74-.65.19-1.24.29-1.77.29-.84,0-1.45-.17-1.83-.52-.38-.34-.65-.78-.8-1.31-1.07-3.66-2.51-6.27-4.34-7.83-1.83-1.56-4.31-2.35-7.43-2.35h-12.69l-5.48,29.05h13.26c1.75,0,3.01-.53,3.77-1.6.76-1.07,1.41-2.52,1.94-4.35.15-.45.36-.87.63-1.25.26-.38.7-.58,1.31-.58s1.22.1,1.83.29c.61.19,1.14.36,1.6.51-.46,1.76-.86,3.37-1.2,4.86-.34,1.49-.65,2.99-.91,4.52-.27,1.52-.5,3.17-.69,4.92-.19,1.75-.36,3.74-.51,5.94-.76.38-1.76.58-2.97.58-1.07,0-1.72-.23-1.94-.69-.23-.45-.31-.95-.23-1.49.23-1.9.1-3.48-.4-4.75-.5-1.25-1.66-1.89-3.49-1.89h-12.92l-5.37,28.01c-.15,1.07-.1,1.78.17,2.13.27.35.93.52,2,.52h12.35c2.74,0,5.43-.77,8.06-2.31,2.63-1.54,5.39-4.35,8.29-8.43.38-.61.72-1.07,1.03-1.38.3-.3.76-.46,1.37-.46.69,0,1.35.21,2,.63.65.43,1.2.86,1.66,1.32l-1.14,2.29c-.38.76-.8,1.62-1.25,2.57s-.92,2.08-1.37,3.37c-.61,1.52-1.05,2.88-1.31,4.06s-.56,2.08-.86,2.68c-.23.53-.48.86-.74.97s-.59.17-.97.17c-.84,0-1.58-.04-2.23-.12-.65-.08-1.36-.15-2.12-.23-.76-.07-1.62-.15-2.57-.22-.95-.08-2.11-.12-3.49-.12h-26.75c-1.53,0-3.62.07-6.29.22-2.67.16-5.26.35-7.77.58-.38-.76-.57-1.45-.57-2.06s.21-1.1.63-1.49,1.16-.65,2.23-.8c2.21-.23,3.73-.72,4.57-1.49.84-.76,1.37-1.79,1.6-3.09l11.2-58.33Z"/>
    <path class="cls-1" d="M196.58,77.05l-.08-.16c-.4-.81-.6-1.52-.6-2.18s.24-1.25.71-1.68c.46-.42,1.24-.71,2.37-.87,2.16-.23,3.65-.7,4.44-1.42.79-.73,1.31-1.71,1.52-2.94l11.2-58.34c.28-1.29.1-2.2-.55-2.79-.68-.6-2.04-1.02-4.03-1.25-1.82-.25-2.74-1.11-2.74-2.54,0-.56.12-1.28.35-2.13l.06-.21.21.02c3.03.24,5.77.43,8.39.58,2.65.15,4.97.22,6.9.22h21.38c3.02,0,5.23-.11,6.76-.34,3.22-.48,5.05-.51,5.76.19.36.36.54.98.54,1.9,0,2.43.19,4.84.57,7.16.38,2.37.84,4.75,1.37,7.07l.04.16-.13.1c-.42.33-.97.6-1.63.79-.66.2-1.28.3-1.85.3-.91,0-1.57-.19-2-.59-.42-.37-.71-.85-.88-1.43-1.05-3.6-2.48-6.19-4.26-7.71-1.78-1.52-4.22-2.29-7.26-2.29h-12.47l-5.39,28.54h12.94c1.66,0,2.85-.5,3.56-1.49.74-1.04,1.38-2.48,1.91-4.27.16-.49.39-.93.67-1.33.31-.45.83-.69,1.52-.69.62,0,1.26.1,1.9.3.61.19,1.15.36,1.61.51l.23.08-.06.23c-.47,1.82-.87,3.4-1.2,4.85-.35,1.51-.65,3.02-.91,4.51-.26,1.47-.49,3.12-.69,4.9-.19,1.7-.36,3.7-.51,5.93v.15s-.14.07-.14.07c-.8.4-1.84.6-3.09.6s-1.9-.27-2.18-.84c-.25-.5-.34-1.05-.25-1.64.22-1.84.1-3.4-.38-4.61-.46-1.16-1.52-1.73-3.25-1.73h-12.7l-5.33,27.8c-.17,1.23-.03,1.72.12,1.92.15.19.58.42,1.79.42h12.35c2.68,0,5.34-.76,7.92-2.27,2.59-1.52,5.35-4.33,8.21-8.36.39-.63.74-1.09,1.06-1.42.36-.36.88-.54,1.55-.54.73,0,1.45.23,2.14.67.7.46,1.26.91,1.7,1.36l.13.13-1.23,2.45c-.38.76-.8,1.62-1.25,2.57-.45.94-.91,2.07-1.36,3.35-.6,1.5-1.04,2.85-1.3,4.03-.27,1.19-.56,2.11-.88,2.74-.25.59-.54.95-.87,1.1-.3.13-.66.19-1.07.19-.81,0-1.56-.04-2.26-.12-.59-.07-1.23-.14-1.92-.21l-.2-.02c-.76-.07-1.61-.15-2.56-.22-.93-.08-2.06-.11-3.47-.11h-26.75c-1.55,0-3.66.07-6.27.22-2.83.17-5.37.36-7.77.58l-.18.02ZM216.65,9.58l-11.2,58.32c-.23,1.34-.8,2.42-1.68,3.23-.89.8-2.43,1.31-4.72,1.55-1,.14-1.7.39-2.08.73-.37.33-.54.76-.54,1.29s.16,1.12.47,1.79c2.34-.21,4.83-.4,7.6-.56,2.62-.15,4.74-.22,6.3-.22h26.75c1.42,0,2.57.04,3.51.12.95.07,1.81.15,2.57.22l.2.02c.69.07,1.33.14,1.93.21.67.08,1.41.11,2.2.11.34,0,.63-.05.87-.15.14-.06.36-.25.61-.84.3-.61.58-1.49.84-2.64.27-1.21.72-2.58,1.33-4.1.45-1.29.92-2.43,1.38-3.39.46-.95.87-1.81,1.26-2.58l1.06-2.12c-.4-.38-.88-.76-1.48-1.16-.6-.39-1.23-.58-1.86-.58-.53,0-.93.13-1.19.38-.29.29-.62.74-1,1.34-2.9,4.1-5.72,6.96-8.38,8.52-2.66,1.55-5.42,2.34-8.19,2.34h-12.35c-1.16,0-1.88-.2-2.2-.62-.32-.41-.39-1.15-.22-2.32l5.42-28.23h13.13c1.93,0,3.19.69,3.73,2.05.51,1.3.65,2.94.41,4.87-.07.49,0,.93.2,1.34.18.36.77.55,1.71.55,1.1,0,2.01-.16,2.72-.49.15-2.18.32-4.13.5-5.8.2-1.79.43-3.45.69-4.94.26-1.49.57-3.02.92-4.53.32-1.39.69-2.91,1.14-4.63-.4-.13-.86-.28-1.37-.43-.6-.18-1.19-.28-1.75-.28-.52,0-.88.15-1.1.46-.25.36-.46.76-.6,1.19-.54,1.84-1.2,3.33-1.98,4.42-.81,1.13-2.15,1.71-3.98,1.71h-13.57l5.58-29.57h12.9c3.17,0,5.73.81,7.6,2.41,1.86,1.58,3.34,4.26,4.42,7.96.14.49.38.89.72,1.19.33.3.89.45,1.66.45.51,0,1.09-.09,1.7-.28.53-.15.98-.36,1.32-.6-.51-2.29-.96-4.62-1.34-6.94-.38-2.35-.57-4.79-.57-7.25,0-.75-.13-1.28-.38-1.53-.18-.17-.61-.39-1.65-.39-.9,0-2.14.12-3.68.34-1.56.23-3.8.34-6.84.34h-21.38c-1.94,0-4.27-.08-6.93-.22-2.56-.14-5.24-.33-8.19-.56-.19.72-.28,1.32-.28,1.79,0,1.15.75,1.82,2.29,2.03,2.12.24,3.53.69,4.31,1.38.79.71,1.03,1.82.71,3.28Z"/>
  </g>
  <g>
    <path class="cls-1" d="M273.55,21.42c0-3.2.69-6.1,2.06-8.69,1.37-2.6,3.18-4.8,5.43-6.63,2.25-1.83,4.82-3.26,7.72-4.29,2.89-1.03,5.9-1.54,9.03-1.54,4.27,0,8.1.53,11.49,1.6,3.39,1.07,6.42,2.25,9.09,3.55-.23,1.83-.42,3.54-.57,5.14-.16,1.6-.23,3.17-.23,4.69v1.77c0,.58.04,1.17.12,1.77-.69.53-1.6.8-2.74.8-.76,0-1.43-.17-2-.51-.57-.35-.93-.97-1.09-1.89-.69-4.04-2.31-7.07-4.86-9.09-2.55-2.02-5.73-3.03-9.54-3.03-1.53,0-3.01.21-4.46.63-1.45.43-2.74,1.07-3.88,1.95-1.14.88-2.06,1.98-2.74,3.32-.69,1.33-1.03,2.91-1.03,4.75,0,1.6.36,3.09,1.09,4.46.72,1.37,1.67,2.68,2.86,3.94,1.18,1.25,2.54,2.5,4.06,3.71,1.52,1.22,3.08,2.44,4.68,3.66,1.83,1.45,3.66,2.94,5.49,4.46,1.83,1.53,3.47,3.2,4.92,5.03,1.45,1.83,2.63,3.81,3.54,5.95.92,2.13,1.37,4.54,1.37,7.2,0,3.89-.8,7.28-2.4,10.18-1.6,2.9-3.71,5.32-6.34,7.26-2.63,1.95-5.66,3.4-9.09,4.35-3.43.95-6.97,1.43-10.63,1.43-2.29,0-4.51-.15-6.69-.45-2.17-.31-4.17-.69-6-1.15-1.83-.45-3.41-.93-4.75-1.43-1.33-.5-2.34-.97-3.03-1.43.23-2.21.44-4.56.63-7.04.19-2.47.29-4.86.29-7.15,0-.92-.02-1.79-.06-2.63-.04-.84-.1-1.64-.17-2.4.46-.15.95-.3,1.49-.45.53-.15,1.14-.23,1.83-.23,1.06,0,1.75.25,2.06.74.3.5.57,1.24.8,2.23.84,5.19,2.34,9.17,4.51,11.96,2.17,2.78,5.5,4.18,10,4.18,1.9,0,3.73-.29,5.48-.86,1.75-.58,3.31-1.44,4.69-2.57,1.37-1.15,2.47-2.55,3.31-4.23.84-1.67,1.25-3.62,1.25-5.83,0-1.9-.36-3.66-1.09-5.26-.72-1.6-1.69-3.09-2.91-4.46-1.22-1.37-2.61-2.65-4.17-3.83-1.56-1.18-3.14-2.38-4.74-3.61-1.76-1.29-3.47-2.61-5.15-3.94-1.68-1.33-3.18-2.8-4.51-4.4-1.33-1.6-2.4-3.35-3.2-5.26-.8-1.9-1.2-4.04-1.2-6.4Z"/>
    <path class="cls-1" d="M284.87,77.6c-2.29,0-4.55-.15-6.72-.46-2.17-.31-4.2-.7-6.03-1.15-1.83-.46-3.44-.94-4.77-1.44-1.35-.5-2.38-.99-3.08-1.46l-.13-.09.02-.16c.22-2.11.42-4.41.63-7.03.19-2.47.29-4.87.29-7.13,0-.86-.02-1.72-.06-2.62-.04-.83-.1-1.63-.17-2.39l-.02-.21.2-.07c.46-.15.96-.3,1.5-.46.56-.16,1.2-.24,1.9-.24,1.15,0,1.92.29,2.28.86.32.53.6,1.31.83,2.31.83,5.13,2.33,9.11,4.47,11.85,2.11,2.7,5.41,4.08,9.8,4.08,1.86,0,3.68-.28,5.4-.84,1.71-.56,3.26-1.41,4.6-2.53,1.34-1.12,2.43-2.52,3.25-4.15.82-1.63,1.23-3.55,1.23-5.72,0-1.86-.36-3.59-1.06-5.15-.71-1.58-1.68-3.06-2.87-4.4-1.2-1.35-2.59-2.62-4.13-3.79l-.56-.42c-1.38-1.04-2.78-2.1-4.18-3.18-1.66-1.22-3.34-2.51-5.15-3.95-1.68-1.34-3.22-2.83-4.55-4.44-1.34-1.61-2.43-3.4-3.24-5.33-.81-1.93-1.22-4.11-1.22-6.5,0-3.23.7-6.2,2.09-8.81,1.38-2.61,3.23-4.87,5.5-6.71,2.25-1.84,4.88-3.3,7.79-4.33,2.9-1.03,5.97-1.56,9.12-1.56,4.27,0,8.16.54,11.56,1.61,3.39,1.07,6.46,2.27,9.12,3.56l.17.08-.02.18c-.23,1.88-.42,3.56-.57,5.13-.15,1.58-.23,3.15-.23,4.67v1.77c0,.55.04,1.14.11,1.74l.02.15-.12.09c-.73.57-1.7.85-2.9.85-.8,0-1.52-.18-2.13-.55-.64-.39-1.05-1.08-1.21-2.07-.67-3.95-2.28-6.96-4.77-8.93-2.49-1.97-5.65-2.97-9.38-2.97-1.49,0-2.97.21-4.39.62-1.41.41-2.69,1.05-3.8,1.9-1.11.85-2.01,1.94-2.67,3.23-.66,1.29-1,2.85-1,4.63,0,1.55.35,3.01,1.05,4.34.71,1.34,1.65,2.65,2.82,3.89,1.18,1.25,2.54,2.5,4.03,3.69,1.65,1.32,3.18,2.52,4.68,3.66,1.79,1.42,3.64,2.92,5.5,4.46,1.84,1.54,3.5,3.24,4.95,5.07,1.46,1.85,2.66,3.87,3.58,6.01.93,2.16,1.4,4.62,1.4,7.31,0,3.91-.82,7.38-2.44,10.3-1.61,2.92-3.77,5.4-6.42,7.35-2.64,1.96-5.73,3.43-9.17,4.39-3.43.95-7.04,1.44-10.7,1.44ZM264.68,72.75c.66.42,1.62.86,2.84,1.32,1.32.49,2.91.97,4.72,1.42,1.81.45,3.82.83,5.97,1.14,2.15.3,4.39.45,6.65.45,3.62,0,7.17-.48,10.56-1.42,3.38-.94,6.41-2.39,9-4.31,2.58-1.91,4.69-4.32,6.27-7.18,1.57-2.85,2.37-6.23,2.37-10.05,0-2.62-.46-5.01-1.35-7.1-.9-2.1-2.08-4.08-3.51-5.89-1.42-1.8-3.07-3.48-4.88-5-1.85-1.54-3.7-3.04-5.48-4.45-1.5-1.14-3.03-2.34-4.68-3.66-1.51-1.21-2.89-2.47-4.09-3.74-1.2-1.28-2.17-2.62-2.9-4-.74-1.41-1.12-2.95-1.12-4.58,0-1.86.36-3.5,1.06-4.86.7-1.36,1.64-2.5,2.82-3.4,1.16-.89,2.5-1.56,3.97-1.99,1.47-.42,2.99-.64,4.53-.64,3.85,0,7.11,1.04,9.7,3.08,2.59,2.06,4.26,5.17,4.96,9.25.14.84.46,1.4.96,1.71.53.31,1.16.47,1.86.47,1.02,0,1.85-.22,2.47-.66-.07-.57-.1-1.13-.1-1.66v-1.77c0-1.54.08-3.13.23-4.72.14-1.52.32-3.15.55-4.96-2.6-1.25-5.59-2.42-8.88-3.45-3.35-1.05-7.19-1.59-11.41-1.59-3.09,0-6.1.51-8.94,1.53-2.86,1.02-5.43,2.45-7.64,4.25-2.21,1.8-4.02,4.01-5.37,6.55-1.34,2.54-2.03,5.42-2.03,8.57,0,2.32.4,4.44,1.18,6.3.79,1.88,1.85,3.63,3.16,5.2,1.31,1.58,2.82,3.04,4.48,4.36,1.8,1.43,3.48,2.72,5.14,3.94,1.41,1.08,2.81,2.14,4.19,3.18l.56.42c1.57,1.19,2.99,2.49,4.21,3.87,1.23,1.38,2.22,2.9,2.96,4.53.74,1.62,1.11,3.43,1.11,5.36,0,2.25-.43,4.25-1.28,5.95-.85,1.7-1.98,3.15-3.38,4.32-1.39,1.16-3,2.04-4.77,2.62-1.78.58-3.65.87-5.57.87-4.56,0-8-1.44-10.21-4.28-2.19-2.81-3.73-6.87-4.57-12.07-.21-.93-.47-1.65-.77-2.13-.26-.41-.87-.62-1.83-.62-.65,0-1.24.08-1.76.22-.45.13-.88.26-1.28.39.07.7.12,1.45.15,2.21.04.91.06,1.78.06,2.64,0,2.27-.1,4.68-.29,7.17-.2,2.57-.4,4.82-.61,6.89Z"/>
  </g>
  <g>
    <path class="cls-1" d="M354.93,6.43h-8.11c-1.68,0-3.14.22-4.4.63-1.25.42-2.4,1.05-3.43,1.88-1.03.84-2.04,1.89-3.03,3.15-.99,1.25-2.1,2.76-3.31,4.51-.46.61-.95,1.03-1.49,1.25-.53.23-1.1.35-1.71.35s-1.16-.13-1.66-.4c-.5-.26-.82-.47-.97-.63.61-1.29,1.12-2.57,1.54-3.83.41-1.25.89-2.69,1.43-4.29.46-1.52.8-2.78,1.03-3.77.23-.99.49-1.9.8-2.75.38-1.14,1.07-1.72,2.06-1.72s2.38.14,4.17.4c1.79.27,4.51.4,8.17.4h33.26c1.9,0,3.48-.04,4.74-.11,1.26-.08,2.32-.15,3.2-.23.87-.08,1.62-.15,2.23-.23.61-.07,1.18-.12,1.71-.12.99,0,1.53.46,1.6,1.38.15,1.14.23,2.17.23,3.09s.12,2.21.34,3.89c.16,1.3.35,2.57.57,3.83.23,1.26.53,2.54.91,3.84-.38.22-.82.48-1.31.74-.5.27-1.13.4-1.89.4-1.22,0-2.02-.53-2.4-1.6-1.22-3.58-2.82-6.16-4.8-7.72-1.98-1.56-4.65-2.35-8-2.35h-8l-11.43,60.84c-.31,1.38.04,2.44,1.03,3.21.99.76,2.74,1.37,5.26,1.82,1.07.16,1.79.4,2.17.74.38.35.57.82.57,1.44,0,.3-.04.65-.12,1.02-.08.38-.19.8-.34,1.26-2.82-.23-5.56-.42-8.23-.58-2.67-.15-5.37-.22-8.12-.22-2.36,0-4.99.07-7.89.22-2.9.16-5.6.35-8.11.58-.16-.38-.27-.76-.34-1.15-.08-.38-.12-.76-.12-1.14,0-1.22.65-1.95,1.94-2.18,2.66-.38,4.72-.97,6.17-1.77,1.45-.8,2.33-1.96,2.63-3.48l11.43-60.62Z"/>
    <path class="cls-1" d="M333.05,77.05l-.07-.18c-.16-.4-.28-.8-.36-1.2-.08-.39-.12-.78-.12-1.19,0-1.34.75-2.18,2.16-2.43,2.63-.38,4.68-.97,6.09-1.75,1.39-.77,2.21-1.85,2.5-3.31l11.37-60.31h-7.8c-1.63,0-3.08.21-4.32.62-1.22.41-2.35,1.02-3.35,1.84-1.02.84-2.02,1.88-2.99,3.11-.99,1.25-2.1,2.77-3.31,4.5-.49.66-1.03,1.11-1.6,1.35-1.14.49-2.57.5-3.6-.07-.52-.27-.86-.49-1.03-.67l-.12-.13.08-.16c.59-1.27,1.11-2.55,1.53-3.8.36-1.08.76-2.29,1.21-3.62l.22-.67c.45-1.49.79-2.75,1.02-3.75.23-1,.5-1.93.81-2.78.52-1.56,1.54-1.89,2.3-1.89,1,0,2.38.13,4.21.41,1.75.26,4.49.39,8.14.39h33.26c1.89,0,3.48-.04,4.73-.11,1.25-.08,2.32-.15,3.19-.23.87-.08,1.61-.15,2.22-.23.67-.08,1.24-.12,1.75-.12,1.13,0,1.77.56,1.86,1.62.15,1.13.23,2.18.23,3.11s.12,2.19.34,3.85c.16,1.3.35,2.59.57,3.82.23,1.25.53,2.53.91,3.81l.06.19-.17.1c-.38.23-.82.48-1.32.75-.54.29-1.19.43-2.01.43-1.33,0-2.22-.6-2.65-1.77-1.2-3.52-2.78-6.08-4.72-7.6-1.93-1.52-4.57-2.29-7.84-2.29h-7.79l-11.39,60.63c-.29,1.29.02,2.25.93,2.96.96.73,2.69,1.33,5.15,1.78,1.12.17,1.87.43,2.3.8.44.4.66.95.66,1.63,0,.32-.04.68-.12,1.08-.07.38-.19.8-.35,1.29l-.06.19-.2-.02c-2.62-.22-5.31-.4-8.22-.58-2.61-.15-5.34-.22-8.1-.22-2.39,0-5.04.07-7.87.22-3.05.17-5.7.36-8.1.58l-.19.02ZM349.22,75.71c2.78,0,5.51.08,8.13.22,2.84.17,5.47.35,8.03.56.12-.39.21-.73.27-1.04.07-.36.11-.69.11-.97,0-.54-.16-.95-.49-1.24-.34-.3-1.02-.53-2.03-.68-2.55-.46-4.36-1.09-5.38-1.88-1.07-.83-1.45-2-1.12-3.47l11.47-61.04h8.22c3.39,0,6.14.81,8.16,2.41,2.01,1.58,3.66,4.22,4.88,7.84.34.96,1.05,1.43,2.16,1.43.72,0,1.31-.12,1.76-.37.42-.23.79-.44,1.13-.64-.35-1.23-.64-2.46-.86-3.67-.23-1.24-.42-2.54-.58-3.84-.23-1.68-.34-3-.34-3.92s-.08-1.93-.23-3.05c-.07-.79-.49-1.15-1.34-1.15-.49,0-1.04.04-1.68.11-.61.08-1.36.15-2.24.23-.95.09-2.11.16-3.21.23-1.26.07-2.86.11-4.76.11h-33.26c-3.72,0-6.41-.13-8.21-.4-1.81-.27-3.16-.4-4.13-.4-.87,0-1.46.5-1.81,1.54-.3.83-.57,1.75-.79,2.72-.23,1-.58,2.28-1.03,3.79l-.23.68c-.44,1.33-.85,2.54-1.21,3.62-.41,1.22-.9,2.45-1.47,3.68.14.1.37.25.77.46.46.25.96.37,1.54.37s1.11-.11,1.61-.32c.49-.2.95-.6,1.38-1.17,1.21-1.73,2.32-3.26,3.32-4.52.99-1.26,2.02-2.33,3.07-3.19,1.05-.85,2.23-1.5,3.51-1.93,1.29-.43,2.8-.65,4.49-.65h8.43l-.06.31-11.43,60.62c-.32,1.6-1.25,2.83-2.76,3.66-1.46.81-3.57,1.42-6.26,1.8-1.17.21-1.72.82-1.72,1.92,0,.37.04.73.11,1.09.06.3.14.61.26.92,2.36-.21,4.95-.4,7.93-.56,2.84-.15,5.5-.22,7.9-.22Z"/>
  </g>
  <g>
    <path class="cls-1" d="M412.88,9.64c.3-1.38.17-2.44-.4-3.21-.57-.76-1.96-1.25-4.17-1.49-1.68-.22-2.51-.84-2.51-1.82,0-.53.19-1.3.57-2.29,2.82.23,5.45.43,7.89.58s4.53.22,6.29.22c1.52,0,3.66-.06,6.4-.17,2.74-.12,5.45-.32,8.11-.63.23.84.34,1.56.34,2.18s-.17,1.07-.51,1.37c-.34.3-1.05.53-2.12.69-2.13.31-3.64.8-4.51,1.49-.88.69-1.47,1.8-1.77,3.32l-10.97,58.21c-.31,1.53-.08,2.57.69,3.15.76.57,2.17,1.05,4.23,1.43,1.45.3,2.17.99,2.17,2.06,0,.61-.11,1.3-.34,2.06-2.82-.23-5.6-.42-8.34-.58-2.74-.15-4.99-.22-6.74-.22-1.53,0-3.53.07-6,.22-2.48.16-5.01.35-7.6.58-.23-.76-.34-1.45-.34-2.06s.13-1.07.4-1.37c.27-.3.82-.53,1.66-.69,1.98-.3,3.47-.82,4.46-1.54.99-.73,1.64-1.81,1.94-3.26l11.2-58.21Z"/>
    <path class="cls-1" d="M393.38,77.05l-.06-.2c-.24-.8-.35-1.5-.35-2.14,0-.67.16-1.19.46-1.54.31-.36.9-.61,1.81-.77,1.93-.29,3.39-.8,4.35-1.5.94-.7,1.55-1.71,1.84-3.1l11.2-58.21c.29-1.31.17-2.29-.35-3-.52-.7-1.87-1.16-3.99-1.38-1.82-.24-2.75-.94-2.75-2.08,0-.57.2-1.37.59-2.39l.07-.18.19.02c2.97.24,5.55.43,7.88.58,2.38.15,4.5.22,6.27.22,1.48,0,3.57-.05,6.39-.17,2.75-.12,5.47-.33,8.09-.63l.22-.03.06.21c.24.87.35,1.6.35,2.25,0,.69-.2,1.21-.6,1.56-.39.34-1.12.59-2.25.75-2.09.3-3.56.79-4.39,1.43-.82.65-1.39,1.72-1.68,3.16l-10.97,58.21c-.28,1.41-.09,2.39.59,2.9.73.54,2.11,1.01,4.12,1.38,1.58.33,2.38,1.11,2.38,2.31,0,.64-.12,1.36-.35,2.14l-.06.2-.21-.02c-2.64-.22-5.37-.41-8.34-.58-2.68-.15-4.95-.22-6.73-.22-1.55,0-3.57.07-5.99.22-2.7.17-5.18.36-7.59.58l-.21.02ZM407.17,75.71c1.79,0,4.07.08,6.76.22,2.89.17,5.56.35,8.14.56.18-.65.27-1.25.27-1.79,0-.94-.64-1.53-1.96-1.8-2.11-.39-3.53-.87-4.33-1.47-.85-.64-1.11-1.79-.78-3.41l10.97-58.21c.31-1.58.94-2.74,1.86-3.47.91-.71,2.43-1.22,4.64-1.54,1.26-.18,1.77-.44,1.98-.62.28-.25.42-.65.42-1.18s-.09-1.17-.28-1.9c-2.57.29-5.23.5-7.91.61-2.83.11-4.93.17-6.41.17-1.79,0-3.91-.08-6.3-.22-2.29-.14-4.81-.33-7.7-.56-.32.87-.48,1.55-.48,2.02,0,.31,0,1.26,2.29,1.57,2.3.24,3.72.76,4.34,1.59.62.82.77,1.97.45,3.42l-11.2,58.21c-.32,1.51-1.01,2.65-2.04,3.42-1.03.75-2.57,1.28-4.57,1.59-.96.17-1.35.42-1.5.6-.22.25-.34.66-.34,1.2s.09,1.12.27,1.79c2.35-.21,4.77-.39,7.39-.56,2.43-.15,4.46-.22,6.02-.22Z"/>
  </g>
  <g>
    <path class="cls-1" d="M474.49,51.27h-21.72l-8.8,16.12c-.31.53-.46,1.11-.46,1.72,0,1.22.74,2.13,2.23,2.75,1.49.61,3.26,1.07,5.32,1.37,1.45.23,2.17.76,2.17,1.6,0,.53-.12,1.18-.34,1.95-2.9-.23-5.47-.42-7.71-.58-2.25-.15-4.36-.22-6.35-.22-1.45,0-3.07.04-4.86.12-1.79.07-4.09.3-6.92.69-.15-.38-.26-.74-.34-1.09-.07-.34-.11-.66-.11-.97,0-.53.21-.97.63-1.31.42-.35,1.16-.59,2.23-.74,3.81-.69,6.36-2.13,7.66-4.35L473.35,1.86c.61-1.07,1.45-1.6,2.51-1.6.99,0,1.83.27,2.52.8l12.8,67.02c.3,1.45,1.01,2.52,2.11,3.21,1.1.69,2.42,1.1,3.95,1.25.91.15,1.58.35,2,.57.42.23.63.76.63,1.6,0,.23-.02.52-.06.86-.04.35-.1.71-.17,1.09-1.98-.15-4.11-.3-6.4-.46-2.29-.15-4.72-.22-7.31-.22-1.07,0-2.25.01-3.54.06-1.3.04-2.63.09-4,.17-1.37.08-2.71.17-4,.29s-2.48.21-3.54.29c-.23-.69-.35-1.33-.35-1.95,0-.45.16-.86.46-1.2.3-.35.88-.59,1.72-.74,3.12-.46,4.68-1.8,4.68-4.01,0-.53-.04-.91-.11-1.14l-2.74-16.47ZM473.57,46.01l-4.11-26.19-13.83,26.19h17.94Z"/>
    <path class="cls-1" d="M426.89,77.06l-.08-.19c-.15-.39-.27-.75-.35-1.13-.08-.38-.12-.71-.12-1.03,0-.61.24-1.12.72-1.51.46-.38,1.23-.64,2.36-.8,3.7-.67,6.22-2.09,7.47-4.22L473.12,1.74c.66-1.15,1.58-1.74,2.74-1.74,1.04,0,1.94.29,2.68.85l.08.06.02.1,12.8,67.02c.29,1.38.94,2.38,2,3.04,1.06.66,2.35,1.07,3.83,1.22.94.16,1.64.36,2.09.6.51.28.77.9.77,1.83,0,.23-.02.51-.06.88-.04.35-.1.72-.18,1.11l-.04.23-.23-.02c-1.98-.15-4.11-.3-6.4-.46-2.24-.15-4.69-.22-7.29-.22-1.21,0-2.37.02-3.54.06-1.21.03-2.52.09-3.99.17-1.46.08-2.76.18-3.99.29-1.3.12-2.48.21-3.54.29h-.2s-.06-.18-.06-.18c-.24-.71-.36-1.39-.36-2.03,0-.52.18-.98.52-1.37.34-.39.95-.66,1.86-.83,3.01-.45,4.47-1.67,4.47-3.75,0-.61-.05-.92-.1-1.06l-2.72-16.29h-21.34l-8.73,15.99c-.28.5-.43,1.03-.43,1.59,0,1.11.68,1.93,2.07,2.51,1.45.6,3.22,1.05,5.25,1.35,1.59.25,2.39.88,2.39,1.86,0,.55-.12,1.23-.35,2.02l-.06.2-.21-.02c-2.89-.23-5.46-.42-7.71-.58-2.2-.15-4.33-.22-6.33-.22-1.49,0-3.12.04-4.85.12-1.78.07-4.03.3-6.89.68l-.2.03ZM452.62,51.01h22.09l2.78,16.69c.07.23.12.64.12,1.18,0,2.35-1.65,3.79-4.91,4.27-.77.14-1.3.36-1.56.66-.26.29-.39.64-.39,1.03,0,.52.09,1.09.27,1.67,1.01-.08,2.12-.17,3.33-.27,1.24-.11,2.55-.21,4.01-.29,1.48-.08,2.79-.13,4.01-.17,1.17-.04,2.33-.06,3.55-.06,2.62,0,5.08.08,7.33.22,2.2.15,4.26.3,6.17.44.05-.3.1-.57.13-.84.04-.35.06-.62.06-.83,0-.73-.17-1.19-.5-1.38-.39-.21-1.06-.4-1.91-.54-1.54-.15-2.91-.59-4.04-1.29-1.16-.73-1.91-1.86-2.23-3.38L478.14,1.21c-.63-.46-1.38-.69-2.28-.69-.97,0-1.72.48-2.29,1.47l-36.23,66.44c-1.34,2.28-3.97,3.78-7.84,4.48-1.03.15-1.73.38-2.11.69-.36.3-.53.66-.53,1.11,0,.28.03.58.11.92.06.28.15.57.26.86,2.78-.37,4.99-.59,6.74-.66,1.73-.08,3.37-.12,4.87-.12,2.01,0,4.15.08,6.36.22,2.19.15,4.69.34,7.5.56.18-.65.27-1.22.27-1.67,0-.26,0-1.03-1.95-1.35-2.08-.3-3.88-.77-5.37-1.39-1.58-.65-2.39-1.66-2.39-2.99,0-.66.17-1.28.49-1.85l8.87-16.25ZM473.88,46.27h-18.68l14.39-27.26,4.28,27.26ZM456.06,45.75h17.21l-3.95-25.12-13.26,25.12Z"/>
  </g>
  <g>
    <path class="cls-1" d="M509.98,76.2c-2.56.16-5.09.35-7.6.58-.15-.38-.27-.74-.34-1.09-.08-.34-.12-.71-.12-1.09,0-.45.16-.85.46-1.2.3-.35.87-.59,1.71-.74,1.9-.3,3.39-.8,4.46-1.49s1.75-1.8,2.06-3.32l11.2-58.33c.3-1.38,0-2.4-.91-3.09-.92-.69-2.37-1.18-4.35-1.49-1.45-.22-2.17-.84-2.17-1.82,0-.31.04-.65.12-1.03.07-.38.19-.8.34-1.26,2.9.31,5.73.52,8.51.63,2.78.11,5.12.17,7.03.17,2.13,0,4.76-.07,7.89-.22,3.12-.15,5.98-.35,8.57-.58.15.54.27.98.34,1.32.08.35.12.71.12,1.09,0,1.15-.88,1.83-2.63,2.06-3.05.38-5.34.97-6.86,1.77-1.53.8-2.48,2.27-2.86,4.41l-10.86,57.04c-.15.92-.1,1.59.17,2,.27.43,1.01.63,2.23.63h11.43c3.2,0,6.15-.87,8.86-2.6,2.7-1.73,5.51-4.67,8.4-8.83.38-.61.72-1.07,1.03-1.38.3-.31.76-.46,1.37-.46.69,0,1.35.21,2,.63.65.42,1.2.86,1.66,1.32-.38.84-.8,1.72-1.26,2.62-.38.84-.82,1.77-1.31,2.81-.5,1.03-.97,2.19-1.43,3.49-.61,1.52-1.05,2.88-1.31,4.06-.27,1.18-.56,2.08-.86,2.68-.23.53-.48.86-.74.97s-.59.17-.97.17c-.84,0-1.58-.04-2.23-.12-.65-.08-1.36-.15-2.12-.23-.76-.07-1.62-.15-2.57-.22-.95-.08-2.11-.12-3.49-.12h-26.75c-1.6,0-3.68.07-6.23.22Z"/>
    <path class="cls-1" d="M502.21,77.05l-.07-.18c-.16-.41-.28-.78-.35-1.13-.08-.36-.12-.74-.12-1.14,0-.51.17-.97.52-1.37.34-.39.95-.66,1.86-.83,1.86-.3,3.33-.78,4.36-1.45,1-.64,1.65-1.7,1.94-3.15l11.2-58.32c.28-1.28.02-2.21-.81-2.84-.87-.65-2.29-1.13-4.23-1.44-1.98-.3-2.39-1.3-2.39-2.08,0-.34.04-.69.12-1.08.07-.38.19-.8.35-1.29l.07-.2.21.02c2.84.3,5.7.52,8.5.63,2.86.11,5.16.17,7.02.17,2.16,0,4.81-.08,7.87-.22,3.04-.15,5.92-.34,8.56-.58l.21-.02.06.21c.15.55.27.99.35,1.33.08.37.12.75.12,1.15,0,1.29-.96,2.07-2.85,2.32-3.01.38-5.29.96-6.77,1.75-1.44.76-2.36,2.18-2.73,4.23l-10.86,57.05c-.14.85-.09,1.46.14,1.82.15.24.62.52,2.01.52h11.43c3.14,0,6.07-.86,8.72-2.56,2.67-1.7,5.47-4.65,8.33-8.76.38-.61.74-1.09,1.06-1.42.35-.36.87-.54,1.56-.54.73,0,1.45.22,2.14.67.66.43,1.24.89,1.7,1.35l.13.13-.08.16c-.43.94-.84,1.8-1.26,2.63-.38.83-.82,1.77-1.31,2.8-.49,1.01-.97,2.18-1.42,3.46-.6,1.5-1.04,2.86-1.3,4.03-.27,1.19-.57,2.11-.88,2.74-.25.59-.54.95-.87,1.1-.3.13-.66.19-1.07.19-.81,0-1.56-.04-2.26-.12-.59-.07-1.23-.14-1.91-.21l-.2-.02c-.76-.07-1.61-.15-2.56-.22-.93-.08-2.06-.11-3.47-.11h-26.75c-1.63,0-3.72.07-6.21.22-2.73.17-5.22.36-7.59.58l-.19.02ZM515.02,1.11c-.12.38-.21.72-.27,1.03-.08.36-.11.68-.11.98,0,.85.64,1.37,1.95,1.57,2.05.32,3.51.82,4.46,1.53,1,.76,1.33,1.88,1.01,3.36l-11.2,58.32c-.32,1.59-1.05,2.77-2.17,3.49-1.1.71-2.63,1.22-4.56,1.52-.77.14-1.3.36-1.56.66-.27.3-.39.64-.39,1.03,0,.36.04.71.11,1.03.06.27.15.56.26.87,2.32-.21,4.75-.39,7.41-.56h0c2.5-.15,4.6-.22,6.24-.22h26.75c1.42,0,2.57.04,3.51.12.95.07,1.81.15,2.57.22l.21.02c.69.07,1.33.14,1.92.21.67.08,1.41.11,2.2.11.34,0,.63-.05.87-.15.14-.06.36-.25.61-.84.3-.61.58-1.49.84-2.64.27-1.2.72-2.58,1.33-4.1.46-1.29.94-2.48,1.44-3.51.49-1.03.93-1.96,1.31-2.8.4-.79.79-1.59,1.18-2.46-.42-.4-.92-.79-1.49-1.16-.61-.39-1.22-.59-1.86-.59-.54,0-.94.13-1.19.38-.29.3-.63.75-.99,1.34-2.91,4.17-5.76,7.17-8.48,8.91-2.73,1.75-5.76,2.64-9,2.64h-11.43c-1.33,0-2.13-.25-2.45-.76-.3-.47-.37-1.19-.21-2.18l10.86-57.05c.39-2.21,1.4-3.76,2.99-4.59,1.54-.81,3.88-1.42,6.95-1.8,1.62-.21,2.4-.8,2.4-1.81,0-.36-.04-.7-.11-1.03-.06-.29-.16-.66-.28-1.1-2.59.23-5.4.42-8.37.56-3.07.15-5.73.22-7.9.22-1.87,0-4.17-.05-7.04-.17-2.74-.11-5.54-.32-8.32-.61Z"/>
  </g>
</svg>